<svg width="132" height="132" viewBox="0 0 132 132" fill="none" xmlns="http://www.w3.org/2000/svg">
<g clip-path="url(#clip0_33_334)">
<path d="M52.8 105.6C81.9606 105.6 105.6 81.9606 105.6 52.8C105.6 23.6394 81.9606 0 52.8 0C23.6394 0 0 23.6394 0 52.8C0 81.9606 23.6394 105.6 52.8 105.6Z" fill="#FF4900"/>
<path d="M82.9382 119.896H82.8062C82.1061 119.896 81.4346 119.617 80.9395 119.122C80.4444 118.627 80.1662 117.956 80.1662 117.256C80.1662 116.555 80.4444 115.884 80.9395 115.389C81.4346 114.894 82.1061 114.616 82.8062 114.616H82.9382C83.6384 114.616 84.3099 114.894 84.805 115.389C85.3001 115.884 85.5782 116.555 85.5782 117.256C85.5782 117.956 85.3001 118.627 84.805 119.122C84.3099 119.617 83.6384 119.896 82.9382 119.896ZM69.9349 117.377C69.5897 117.377 69.248 117.308 68.9291 117.176L68.8195 117.13C68.4814 117.012 68.1708 116.827 67.9065 116.585C67.6423 116.344 67.43 116.051 67.2825 115.724C67.1351 115.398 67.0555 115.045 67.0487 114.687C67.0419 114.329 67.1081 113.974 67.243 113.642C67.378 113.31 67.5791 113.01 67.834 112.758C68.0888 112.507 68.3922 112.31 68.7256 112.179C69.0591 112.048 69.4156 111.987 69.7735 111.999C70.1313 112.01 70.4831 112.094 70.8074 112.246L70.9394 112.302C71.5055 112.534 71.9731 112.956 72.2625 113.495C72.5519 114.034 72.645 114.657 72.5259 115.257C72.4067 115.858 72.0828 116.398 71.6095 116.786C71.1362 117.174 70.5429 117.385 69.931 117.384L69.9349 117.377ZM95.799 117.328C95.1881 117.33 94.5956 117.12 94.1224 116.733C93.6492 116.347 93.3245 115.809 93.2039 115.21C93.0832 114.611 93.1739 113.989 93.4606 113.449C93.7473 112.91 94.2122 112.487 94.776 112.251L94.908 112.2C95.2287 112.068 95.5723 112 95.9192 112C96.2662 112.001 96.6096 112.069 96.9299 112.203C97.2503 112.336 97.5413 112.531 97.7863 112.776C98.0313 113.022 98.2255 113.313 98.3578 113.634C98.4902 113.955 98.5581 114.298 98.5576 114.645C98.5572 114.992 98.4884 115.336 98.3552 115.656C98.222 115.976 98.0271 116.267 97.7814 116.512C97.5358 116.757 97.2443 116.952 96.9236 117.084L95.9165 114.645L96.8154 117.13C96.4929 117.262 96.1475 117.33 95.799 117.328ZM58.8878 110.068C58.1966 110.069 57.5328 109.798 57.0398 109.313L56.9831 109.258C56.4826 108.765 56.1968 108.094 56.1879 107.392C56.179 106.689 56.4477 106.012 56.9356 105.506C57.1745 105.258 57.46 105.06 57.7758 104.923C58.0917 104.786 58.4315 104.713 58.7757 104.707C59.12 104.702 59.4619 104.765 59.7817 104.892C60.1016 105.02 60.3931 105.209 60.6395 105.449L60.7345 105.542C61.1093 105.909 61.3663 106.379 61.4727 106.893C61.579 107.407 61.5299 107.94 61.3316 108.426C61.1333 108.912 60.7948 109.327 60.3594 109.62C59.9239 109.912 59.4111 110.068 58.8865 110.068H58.8878ZM106.814 109.976C106.297 109.975 105.792 109.823 105.36 109.538C104.929 109.252 104.591 108.846 104.388 108.371C104.185 107.895 104.127 107.37 104.22 106.861C104.313 106.353 104.553 105.882 104.911 105.509L105.043 105.377C105.541 104.896 106.208 104.63 106.9 104.636C107.592 104.642 108.254 104.92 108.744 105.409C109.233 105.899 109.511 106.561 109.517 107.253C109.523 107.945 109.257 108.612 108.776 109.11L108.72 109.165C108.474 109.423 108.178 109.627 107.851 109.767C107.523 109.906 107.171 109.978 106.814 109.977V109.976ZM51.4562 99.1082C50.9357 99.1082 50.4268 98.9543 49.9935 98.6659C49.5602 98.3775 49.2218 97.9674 49.0208 97.4872L51.4549 96.4669L48.972 97.3724C48.8319 97.0521 48.7568 96.7072 48.751 96.3576C48.7453 96.0081 48.809 95.6609 48.9385 95.3361C49.068 95.0114 49.2608 94.7157 49.5055 94.466C49.7503 94.2164 50.0422 94.0178 50.3643 93.8819C50.6864 93.746 51.0322 93.6754 51.3818 93.6742C51.7314 93.6731 52.0778 93.7414 52.4008 93.8751C52.7238 94.0089 53.017 94.2055 53.2634 94.4535C53.5098 94.7015 53.7045 94.996 53.8362 95.3198L53.889 95.4518C54.0574 95.853 54.124 96.2895 54.0829 96.7227C54.0419 97.1558 53.8944 97.572 53.6536 97.9344C53.4129 98.2968 53.0863 98.5941 52.7029 98.7998C52.3196 99.0055 51.8913 99.1132 51.4562 99.1135V99.1082ZM114.206 98.9881C113.843 98.9891 113.483 98.914 113.15 98.7677C112.51 98.4797 112.008 97.9528 111.75 97.2995C111.493 96.6462 111.502 95.9182 111.774 95.271C112.046 94.6238 112.561 94.1087 113.207 93.8356C113.854 93.5626 114.582 93.5533 115.236 93.8097C115.557 93.9361 115.85 94.1248 116.097 94.3649C116.345 94.605 116.542 94.8917 116.679 95.2086C116.815 95.5254 116.887 95.8661 116.891 96.211C116.895 96.5559 116.83 96.8981 116.701 97.218L116.623 97.4015C116.418 97.8723 116.081 98.2732 115.651 98.555C115.222 98.8368 114.72 98.9873 114.206 98.9881ZM48.7819 86.0719C48.4419 86.0794 48.1037 86.0197 47.7869 85.8963C47.47 85.7728 47.1806 85.5879 46.9353 85.3523C46.69 85.1167 46.4936 84.835 46.3575 84.5234C46.2214 84.2117 46.1481 83.8762 46.1419 83.5362V83.4517C46.1355 82.7498 46.406 82.0736 46.8947 81.5698C47.3835 81.066 48.0511 80.7751 48.7529 80.7602H48.7832C49.4735 80.7524 50.1387 81.0183 50.6334 81.4997C51.1281 81.9811 51.4121 82.6388 51.4232 83.3289C51.4355 84.0358 51.1699 84.7192 50.6837 85.2323C50.1974 85.7455 49.5293 86.0474 48.8228 86.0732L48.7819 86.0719ZM116.827 86.0046C116.126 86.0046 115.455 85.7264 114.96 85.2313C114.465 84.7362 114.187 84.0647 114.187 83.3646C114.187 83.2801 114.187 83.1956 114.198 83.1138C114.21 83.0319 114.185 82.9567 114.184 82.8762C114.172 82.1693 114.437 81.4859 114.924 80.9728C115.41 80.4596 116.078 80.1577 116.784 80.1319C117.128 80.1157 117.472 80.1692 117.795 80.2891C118.117 80.409 118.413 80.5929 118.662 80.8297C118.912 81.0665 119.112 81.3514 119.249 81.6672C119.386 81.9831 119.458 82.3233 119.46 82.6676V82.7996C119.46 82.8722 119.46 82.9461 119.46 83.0187C119.46 83.0913 119.468 83.1613 119.468 83.2339V83.3659C119.468 83.7126 119.399 84.0558 119.266 84.3761C119.134 84.6963 118.939 84.9872 118.694 85.2323C118.448 85.4773 118.157 85.6716 117.837 85.8041C117.517 85.9366 117.173 86.0047 116.827 86.0046ZM51.253 73.128C50.9125 73.1283 50.5753 73.0619 50.2603 72.9326C49.6135 72.669 49.0976 72.1598 48.8254 71.5165C48.5533 70.8733 48.5471 70.1484 48.8083 69.5006L48.8545 69.3845C48.9845 69.0629 49.1766 68.7701 49.4198 68.5228C49.6629 68.2754 49.9524 68.0784 50.2717 67.943C50.591 67.8076 50.9339 67.7363 51.2807 67.7334C51.6276 67.7304 51.9716 67.7958 52.2931 67.9259C52.6147 68.0559 52.9075 68.2479 53.1548 68.4911C53.4021 68.7343 53.5991 69.0238 53.7346 69.3431C53.87 69.6624 53.9413 70.0052 53.9442 70.3521C53.9471 70.6989 53.8817 71.0429 53.7517 71.3645L53.7002 71.4965C53.5002 71.9805 53.1606 72.3941 52.7249 72.6846C52.2891 72.9751 51.7767 73.1295 51.253 73.128ZM114.107 72.5195C113.587 72.5199 113.079 72.3668 112.646 72.0794C112.212 71.7919 111.874 71.383 111.672 70.9038C111.395 70.2559 111.383 69.5254 111.639 68.8689C111.894 68.2123 112.396 67.6819 113.038 67.3913C113.349 67.25 113.685 67.1719 114.027 67.1614C114.368 67.1509 114.709 67.2083 115.028 67.3302C115.347 67.4521 115.639 67.6361 115.886 67.8716C116.134 68.1071 116.332 68.3893 116.47 68.702C116.47 68.7113 116.531 68.8419 116.535 68.8512C116.807 69.4962 116.812 70.2229 116.548 70.8715C116.285 71.52 115.774 72.0373 115.129 72.3096C114.806 72.4471 114.459 72.518 114.107 72.5181V72.5195ZM58.5182 62.0519C57.9961 62.052 57.4856 61.8973 57.0513 61.6073C56.6171 61.3173 56.2786 60.9051 56.0787 60.4227C55.8787 59.9403 55.8263 59.4095 55.9281 58.8973C56.0299 58.3851 56.2813 57.9147 56.6504 57.5454L58.5182 59.4119L56.6874 57.5071C57.1674 56.9972 57.8302 56.6988 58.5302 56.6777C59.2301 56.6565 59.9098 56.9143 60.4197 57.3942C60.9296 57.8742 61.228 58.5371 61.2491 59.237C61.2703 59.937 61.0125 60.6166 60.5326 61.1265L60.3847 61.2783C59.8895 61.773 59.2182 62.0507 58.5182 62.0505V62.0519ZM106.63 61.5859C105.958 61.5873 105.312 61.3312 104.824 60.8705C104.809 60.8586 104.701 60.753 104.692 60.7385C104.192 60.2483 103.906 59.5796 103.899 58.8792C103.892 58.1789 104.163 57.5044 104.654 57.0042C105.144 56.5039 105.812 56.2188 106.513 56.2116C107.213 56.2045 107.888 56.4758 108.388 56.9659L106.54 58.8522L108.437 57.024C108.822 57.3862 109.09 57.8561 109.206 58.3725C109.321 58.889 109.279 59.4283 109.084 59.9203C108.889 60.4124 108.551 60.8345 108.114 61.132C107.676 61.4295 107.159 61.5885 106.63 61.5885V61.5859ZM69.465 54.5675C68.8565 54.5675 68.2666 54.3573 67.7952 53.9725C67.3238 53.5877 66.9999 53.0518 66.8781 52.4556C66.7564 51.8593 66.8444 51.2394 67.1272 50.7005C67.41 50.1617 67.8703 49.7371 68.4301 49.4987L68.4499 49.4907C69.0942 49.2187 69.8192 49.2085 70.4708 49.4624C71.1225 49.7163 71.6495 50.2142 71.94 50.8503C72.2246 51.4755 72.2495 52.188 72.0092 52.8315C71.7689 53.475 71.283 53.9968 70.6583 54.2823L70.4867 54.3576C70.1634 54.4944 69.8161 54.5658 69.465 54.5675ZM95.5535 54.3219C95.2327 54.3214 94.9146 54.2623 94.615 54.1477L94.4368 54.0777C94.1097 53.9514 93.8111 53.7613 93.5583 53.5183C93.3055 53.2754 93.1037 52.9845 92.9646 52.6627C92.8254 52.3409 92.7518 51.9946 92.7479 51.644C92.744 51.2935 92.8101 50.9456 92.9421 50.6209C93.0741 50.2961 93.2695 50.0008 93.5168 49.7524C93.7642 49.5039 94.0586 49.3072 94.3828 49.1737C94.7069 49.0403 95.0545 48.9727 95.4051 48.975C95.7556 48.9773 96.1023 49.0494 96.4247 49.1871L96.4946 49.2135C97.0725 49.4327 97.5552 49.8477 97.8585 50.3862C98.1619 50.9246 98.2667 51.5525 98.1547 52.1603C98.0427 52.7681 97.721 53.3173 97.2457 53.7123C96.7704 54.1074 96.1715 54.3231 95.5535 54.3219ZM82.4089 51.8549C81.7088 51.8549 81.0373 51.5767 80.5422 51.0816C80.0471 50.5865 79.7689 49.915 79.7689 49.2149C79.7689 48.5147 80.0471 47.8432 80.5422 47.3481C81.0373 46.853 81.7088 46.5749 82.4089 46.5749V49.2149L82.4657 46.5749H82.5264C83.2266 46.5628 83.9029 46.8293 84.4065 47.3159C84.9101 47.8024 85.1999 48.4691 85.2119 49.1693C85.224 49.8695 84.9575 50.5458 84.4709 51.0494C83.9843 51.5531 83.3177 51.8428 82.6175 51.8549H82.4089Z" fill="white"/>
<path d="M89.1462 132C88.4732 132 87.8258 131.742 87.3362 131.28C86.8467 130.819 86.552 130.187 86.5124 129.515C86.4728 128.844 86.6912 128.182 87.1231 127.666C87.555 127.15 88.1677 126.818 88.836 126.739C89.5315 126.638 90.2387 126.815 90.8048 127.231C91.3709 127.648 91.7505 128.27 91.8614 128.964C91.9152 129.305 91.9009 129.653 91.8194 129.989C91.7378 130.324 91.5906 130.64 91.3862 130.918C91.1819 131.197 90.9245 131.432 90.6288 131.61C90.3331 131.788 90.0051 131.906 89.6636 131.956L89.4617 131.984C89.3569 131.995 89.2516 132.001 89.1462 132ZM75.9964 131.933C75.8683 131.933 75.7403 131.923 75.6136 131.905L75.4816 131.885C75.1386 131.834 74.8091 131.716 74.5118 131.537C74.2146 131.359 73.9554 131.123 73.7491 130.844C73.5428 130.566 73.3934 130.249 73.3095 129.913C73.2256 129.576 73.2088 129.226 73.26 128.884C73.3112 128.541 73.4295 128.211 73.6081 127.914C73.7866 127.617 74.022 127.357 74.3007 127.151C74.5795 126.945 74.8961 126.795 75.2326 126.711C75.569 126.628 75.9187 126.611 76.2617 126.662C76.9612 126.763 77.5933 127.134 78.0216 127.696C78.45 128.258 78.6404 128.966 78.5519 129.668C78.472 130.29 78.1691 130.863 77.6992 131.28C77.2293 131.696 76.6243 131.928 75.9964 131.933ZM101.917 128.34C101.313 128.341 100.726 128.134 100.256 127.755C99.7851 127.376 99.459 126.847 99.3316 126.256C99.2043 125.665 99.2836 125.048 99.5562 124.509C99.8288 123.969 100.278 123.54 100.83 123.292C101.473 122.999 102.206 122.97 102.87 123.212C103.535 123.454 104.078 123.946 104.383 124.584C104.531 124.894 104.616 125.23 104.632 125.573C104.649 125.916 104.597 126.258 104.48 126.581C104.363 126.903 104.182 127.199 103.949 127.451C103.717 127.704 103.436 127.907 103.124 128.049L103.004 128.103C102.662 128.259 102.292 128.339 101.917 128.34ZM63.2504 128.14C62.8809 128.14 62.5158 128.061 62.1799 127.907L61.9964 127.824C61.4352 127.519 61.0043 127.02 60.7848 126.421C60.5654 125.821 60.5724 125.162 60.8045 124.567C61.0367 123.973 61.478 123.483 62.0457 123.191C62.6133 122.898 63.2681 122.823 63.8871 122.98C64.5062 123.136 65.0468 123.513 65.4075 124.04C65.7681 124.567 65.924 125.207 65.8458 125.841C65.7677 126.475 65.4608 127.058 64.9829 127.481C64.505 127.905 63.8889 128.139 63.2504 128.14ZM113.124 121.192C112.593 121.19 112.075 121.028 111.637 120.727C111.199 120.426 110.863 120 110.671 119.505C110.479 119.01 110.441 118.468 110.562 117.951C110.683 117.434 110.957 116.965 111.349 116.606L111.511 116.465C111.775 116.236 112.082 116.062 112.413 115.953C112.745 115.844 113.095 115.801 113.443 115.828C113.792 115.855 114.131 115.951 114.442 116.11C114.753 116.269 115.029 116.488 115.255 116.755C115.48 117.021 115.651 117.33 115.756 117.663C115.862 117.996 115.9 118.346 115.869 118.694C115.838 119.042 115.739 119.38 115.576 119.69C115.413 119.999 115.191 120.272 114.922 120.495L113.216 118.481L114.882 120.531C114.396 120.957 113.771 121.192 113.124 121.192ZM52.1255 120.895C51.4725 120.895 50.8428 120.652 50.358 120.215L52.1268 118.255L50.3197 120.179C49.8047 119.721 49.4892 119.08 49.4406 118.393C49.392 117.705 49.6143 117.026 50.0598 116.5C50.5054 115.974 51.1389 115.643 51.825 115.578C52.5112 115.513 53.1955 115.719 53.7319 116.152L53.8943 116.295C54.2906 116.652 54.5692 117.121 54.6934 117.641C54.8176 118.16 54.7816 118.704 54.59 119.202C54.3985 119.701 54.0604 120.129 53.6204 120.431C53.1804 120.733 52.6592 120.895 52.1255 120.895ZM121.862 111.207C121.386 111.206 120.919 111.077 120.511 110.832C120.103 110.587 119.768 110.237 119.543 109.817C119.317 109.398 119.21 108.925 119.231 108.45C119.252 107.974 119.401 107.513 119.663 107.115C120.048 106.527 120.648 106.112 121.335 105.96C122.021 105.807 122.74 105.929 123.338 106.3C123.629 106.479 123.88 106.715 124.079 106.992C124.278 107.27 124.42 107.584 124.497 107.917C124.573 108.25 124.583 108.595 124.526 108.931C124.468 109.268 124.344 109.59 124.162 109.878C124.162 109.891 124.076 110.01 124.068 110.026C123.827 110.389 123.5 110.687 123.116 110.893C122.732 111.099 122.303 111.207 121.868 111.207H121.862ZM43.4544 110.798C43.0146 110.799 42.5818 110.689 42.1963 110.477C41.8108 110.265 41.4853 109.959 41.25 109.588L41.2223 109.546C40.8467 108.955 40.7174 108.24 40.862 107.555C41.0066 106.87 41.4135 106.269 41.9958 105.88C42.2801 105.689 42.5993 105.557 42.935 105.49C43.2707 105.423 43.6163 105.424 43.9519 105.491C44.2875 105.558 44.6065 105.691 44.8906 105.882C45.1747 106.073 45.4183 106.318 45.6073 106.603C45.6166 106.618 45.6746 106.709 45.6852 106.723C45.9403 107.124 46.0832 107.585 46.0989 108.06C46.1147 108.534 46.0027 109.004 45.7748 109.42C45.5468 109.837 45.2112 110.184 44.8031 110.427C44.3949 110.669 43.9291 110.797 43.4544 110.798ZM127.43 99.1492C127.016 99.1494 126.607 99.052 126.237 98.8648C125.867 98.6776 125.546 98.4059 125.301 98.0716C125.055 97.7374 124.892 97.3501 124.824 96.941C124.756 96.532 124.786 96.1127 124.91 95.7172C125.117 95.046 125.578 94.482 126.194 94.1448C126.81 93.8077 127.533 93.7239 128.21 93.9114C128.54 94.0011 128.849 94.1553 129.119 94.3652C129.389 94.5751 129.615 94.8365 129.783 95.1342C129.952 95.4319 130.059 95.76 130.1 96.0996C130.14 96.4392 130.113 96.7834 130.02 97.1124L129.966 97.2959C129.798 97.8339 129.462 98.304 129.008 98.6375C128.553 98.971 128.004 99.1503 127.441 99.1492H127.43ZM37.9751 98.637C37.4161 98.643 36.8705 98.4655 36.422 98.1317C35.9736 97.7979 35.6469 97.3262 35.4922 96.789C35.4922 96.789 35.4526 96.657 35.4512 96.6465C35.3575 96.3127 35.3303 95.9637 35.3714 95.6195C35.4125 95.2752 35.521 94.9424 35.6907 94.6401C35.8604 94.3378 36.088 94.0718 36.3605 93.8574C36.633 93.6431 36.945 93.4845 37.2788 93.3907C37.6126 93.2969 37.9615 93.2698 38.3058 93.3109C38.65 93.352 38.9828 93.4605 39.2852 93.6302C39.5875 93.7999 39.8534 94.0275 40.0678 94.2999C40.2822 94.5724 40.4408 94.8845 40.5346 95.2182C40.7277 95.8968 40.6474 96.624 40.3109 97.244C39.9743 97.8641 39.4083 98.3276 38.7341 98.5354C38.4903 98.6029 38.2386 98.6371 37.9856 98.637H37.9751ZM129.36 86.0046C128.66 86.0046 127.988 85.7265 127.493 85.2314C126.998 84.7363 126.72 84.0648 126.72 83.3646C126.718 82.6576 126.993 81.978 127.487 81.472C127.981 80.9659 128.653 80.6738 129.36 80.6586C129.703 80.6514 130.044 80.7127 130.364 80.8387C130.683 80.9648 130.974 81.1532 131.22 81.3929C131.466 81.6326 131.661 81.9189 131.795 82.235C131.929 82.5511 131.999 82.8907 132 83.234V83.3659C132 84.0659 131.721 84.737 131.226 85.2319C130.731 85.7267 130.06 86.0046 129.36 86.0046ZM36.2525 85.4661C35.9094 85.4733 35.5683 85.4121 35.249 85.2861C34.9298 85.1601 34.6389 84.9718 34.3931 84.7322C34.1474 84.4927 33.9518 84.2066 33.8178 83.8906C33.6838 83.5747 33.614 83.2353 33.6125 82.8921V82.8063C33.6166 82.1061 33.8956 81.4357 34.3895 80.9394C34.8833 80.4431 35.5524 80.1607 36.2525 80.1531H36.2617C36.6064 80.1503 36.9482 80.2158 37.2674 80.3457C37.5866 80.4757 37.8769 80.6676 38.1216 80.9103C38.3663 81.153 38.5605 81.4418 38.6931 81.76C38.8256 82.0781 38.8938 82.4194 38.8938 82.764C38.895 83.4706 38.619 84.1494 38.1251 84.6546C37.6312 85.1599 36.9589 85.4512 36.2525 85.4661ZM127.699 73.5108C127.127 73.5105 126.57 73.3241 126.112 72.9795C125.655 72.635 125.322 72.1511 125.164 71.6008L125.118 71.4371C124.933 70.7614 125.025 70.0402 125.372 69.4321C125.72 68.824 126.294 68.3788 126.97 68.1945C127.646 68.0102 128.367 68.1018 128.975 68.4493C129.583 68.7967 130.028 69.3715 130.213 70.0471L130.238 70.1395C130.432 70.8117 130.351 71.5333 130.013 72.1458C129.675 72.7584 129.108 73.2118 128.436 73.4065C128.197 73.4764 127.949 73.5115 127.699 73.5108ZM38.2325 72.4007C37.9726 72.3999 37.7143 72.3612 37.4656 72.2859C36.7955 72.0828 36.2336 71.6219 35.9033 71.0045C35.5731 70.3871 35.5016 69.6639 35.7047 68.9938L35.7324 68.9001C35.9263 68.2272 36.3796 67.6589 36.9926 67.3203C37.2961 67.1526 37.6296 67.0464 37.9742 67.0076C38.3187 66.9688 38.6675 66.9983 39.0007 67.0943C39.3339 67.1903 39.6449 67.3511 39.9159 67.5673C40.187 67.7835 40.4128 68.051 40.5805 68.3545C40.7482 68.658 40.8544 68.9915 40.8932 69.3361C40.932 69.6806 40.9025 70.0295 40.8065 70.3626L40.7576 70.525C40.5937 71.0672 40.2596 71.5422 39.8049 71.88C39.3502 72.2178 38.7989 72.4003 38.2325 72.4007ZM122.38 61.3404C121.93 61.3405 121.488 61.2258 121.096 61.0073C120.703 60.7888 120.373 60.4736 120.136 60.0917C119.76 59.4918 119.634 58.7681 119.787 58.0767C119.94 57.3852 120.358 56.7815 120.952 56.3957C121.239 56.2085 121.561 56.0803 121.899 56.0188C122.236 55.9572 122.583 55.9635 122.918 56.0372C123.253 56.1109 123.57 56.2506 123.851 56.4481C124.132 56.6457 124.37 56.8971 124.553 57.1877L124.623 57.2999C124.871 57.6998 125.008 58.1588 125.019 58.6293C125.03 59.0999 124.915 59.5649 124.687 59.9762C124.458 60.3875 124.123 60.7301 123.717 60.9686C123.311 61.2071 122.849 61.3327 122.379 61.3325L122.38 61.3404ZM43.853 60.2989C43.385 60.2971 42.926 60.17 42.5237 59.9307C42.1214 59.6915 41.7906 59.3488 41.5656 58.9384C41.3406 58.528 41.2296 58.0648 41.2442 57.597C41.2588 57.1292 41.3985 56.6738 41.6486 56.2782L41.7278 56.1581C41.9169 55.8642 42.1624 55.6108 42.4501 55.4126C42.7378 55.2143 43.062 55.0751 43.4039 55.0031C43.7458 54.9311 44.0986 54.9276 44.4419 54.993C44.7851 55.0583 45.112 55.1912 45.4035 55.3838C45.695 55.5764 45.9454 55.825 46.1401 56.1151C46.3349 56.4053 46.4701 56.7312 46.5379 57.0739C46.6057 57.4167 46.6048 57.7695 46.5353 58.1119C46.4657 58.4544 46.3289 58.7796 46.1327 59.0687C45.8839 59.4461 45.5455 59.756 45.1477 59.9707C44.7499 60.1853 44.3051 60.2981 43.853 60.2989ZM113.834 51.1672C113.201 51.1683 112.589 50.9405 112.11 50.5257L111.969 50.4003C111.698 50.1722 111.476 49.892 111.316 49.5763C111.155 49.2607 111.06 48.916 111.036 48.5628C111.011 48.2096 111.058 47.8551 111.174 47.5204C111.289 47.1856 111.471 46.8776 111.708 46.6145C111.945 46.3513 112.232 46.1386 112.553 45.9888C112.874 45.839 113.221 45.7553 113.575 45.7426C113.929 45.7299 114.282 45.7886 114.612 45.915C114.943 46.0414 115.245 46.2331 115.5 46.4785L113.736 48.444L115.559 46.5327C115.968 46.8845 116.258 47.3529 116.393 47.8749C116.527 48.3968 116.498 48.9474 116.31 49.4526C116.123 49.9577 115.785 50.3933 115.342 50.7008C114.899 51.0082 114.373 51.1728 113.834 51.1725V51.1672ZM52.6891 50.3382C52.1556 50.3405 51.634 50.1797 51.1944 49.8773C50.7547 49.575 50.4179 49.1456 50.229 48.6466C50.04 48.1476 50.0081 47.6028 50.1373 47.0852C50.2665 46.5675 50.5507 46.1016 50.952 45.7499L51.0523 45.6654C51.3155 45.4321 51.6227 45.2538 51.9558 45.1408C52.2889 45.0279 52.6412 44.9827 52.9921 45.0078C53.3429 45.0329 53.6852 45.1279 53.9988 45.2871C54.3124 45.4464 54.591 45.6667 54.8183 45.9352C55.0456 46.2036 55.2169 46.5147 55.3223 46.8503C55.4276 47.1859 55.4649 47.5392 55.4318 47.8893C55.3987 48.2395 55.296 48.5795 55.1296 48.8895C54.9633 49.1994 54.7367 49.4729 54.4632 49.6941C53.9672 50.1128 53.3382 50.3412 52.6891 50.3382ZM102.771 43.8082C102.398 43.808 102.029 43.7279 101.689 43.5732L101.505 43.4874C100.888 43.1747 100.419 42.6323 100.198 41.9769C99.9763 41.3214 100.021 40.6054 100.322 39.9827C100.624 39.36 101.157 38.8805 101.809 38.6472C102.46 38.414 103.177 38.4456 103.805 38.7354L102.655 41.1114L103.862 38.7618C104.412 39.0103 104.861 39.4401 105.133 39.9795C105.405 40.5189 105.484 41.1353 105.356 41.7257C105.229 42.3162 104.902 42.8451 104.432 43.224C103.962 43.603 103.375 43.8092 102.771 43.8082ZM63.9791 43.2802C63.4621 43.2853 62.9549 43.1397 62.5194 42.8612C62.0838 42.5827 61.7388 42.1834 61.5265 41.712C61.3841 41.4032 61.3041 41.0692 61.291 40.7293C61.278 40.3894 61.3322 40.0503 61.4506 39.7314C61.5689 39.4126 61.7491 39.1202 61.9807 38.8711C62.2123 38.6221 62.4909 38.4212 62.8003 38.28L62.9864 38.1982C63.6322 37.9274 64.359 37.9242 65.0071 38.1893C65.6552 38.4545 66.1714 38.9662 66.4422 39.6119C66.713 40.2576 66.7162 40.9845 66.451 41.6326C66.1859 42.2807 65.6742 42.7969 65.0285 43.0677C64.6957 43.2051 64.3391 43.2755 63.9791 43.2749V43.2802ZM90.086 39.8904C89.9312 39.8902 89.7767 39.877 89.624 39.8508C88.9331 39.7315 88.3157 39.3478 87.9027 38.7811C87.4898 38.2144 87.3137 37.5091 87.4117 36.8148C87.4598 36.4781 87.5737 36.1541 87.747 35.8614C87.9203 35.5687 88.1495 35.313 88.4217 35.1089C88.6938 34.9048 89.0034 34.7563 89.333 34.6719C89.6625 34.5875 90.0054 34.5689 90.3421 34.617L90.5414 34.6487C91.1921 34.7627 91.7764 35.1165 92.179 35.6402C92.5816 36.1639 92.7732 36.8196 92.716 37.4777C92.6588 38.1358 92.357 38.7485 91.8701 39.195C91.3832 39.6414 90.7466 39.8891 90.086 39.8891V39.8904ZM76.6682 39.7254C76.322 39.7455 75.9752 39.6972 75.6476 39.5833C75.32 39.4694 75.018 39.292 74.759 39.0614C74.2358 38.5957 73.919 37.9411 73.8784 37.2418C73.8378 36.5425 74.0767 35.8558 74.5424 35.3326C75.0082 34.8094 75.6627 34.4926 76.362 34.452L76.6709 37.0749L76.4161 34.452C77.1088 34.3491 77.8139 34.5255 78.3765 34.9425C78.939 35.3595 79.3129 35.9829 79.4158 36.6756C79.5187 37.3682 79.3423 38.0734 78.9253 38.6359C78.5083 39.1985 77.8849 39.5723 77.1923 39.6753L76.9798 39.7017C76.8764 39.7143 76.7724 39.7205 76.6682 39.7201V39.7254Z" fill="white"/>
<path d="M86.0416 96.034C85.3536 96.0363 84.6896 95.7812 84.1802 95.3188C83.6707 94.8565 83.3526 94.2203 83.2883 93.5353C83.2241 92.8503 83.4183 92.1661 83.8329 91.6171C84.2474 91.068 84.8524 90.6938 85.5287 90.5681C86.2051 90.4424 86.9041 90.5742 87.4883 90.9376C88.0724 91.301 88.4996 91.8697 88.6858 92.532C88.8719 93.1943 88.8037 93.9023 88.4944 94.5168C88.1852 95.1314 87.6572 95.608 87.0144 95.8532L86.7504 95.9376C86.5195 96.0014 86.2811 96.0338 86.0416 96.034ZM74.1919 92.2218C73.7983 92.2229 73.4099 92.1322 73.0575 91.9569C72.7051 91.7816 72.3984 91.5266 72.1618 91.212L72.039 91.0444C71.8375 90.7623 71.6935 90.4432 71.6153 90.1055C71.5371 89.7677 71.5262 89.4179 71.5832 89.0759C71.6402 88.7339 71.764 88.4065 71.9475 88.1124C72.131 87.8182 72.3707 87.5631 72.6528 87.3616C72.9349 87.1601 73.254 87.0161 73.5917 86.9379C73.9295 86.8597 74.2793 86.8488 74.6213 86.9058C74.9633 86.9628 75.2907 87.0866 75.5848 87.2701C75.879 87.4536 76.1341 87.6933 76.3356 87.9754C76.6286 88.3721 76.8057 88.8423 76.8473 89.3336C76.8888 89.825 76.7932 90.3183 76.5709 90.7585C76.3487 91.1987 76.0086 91.5686 75.5886 91.827C75.1686 92.0853 74.6851 92.222 74.1919 92.2218ZM93.4639 86.006H93.4243C92.7244 85.9959 92.0571 85.7082 91.5692 85.2062C91.0813 84.7042 90.8127 84.029 90.8226 83.329C90.8226 83.2802 90.8226 83.2313 90.8226 83.1838C90.8226 83.1363 90.8226 83.1204 90.8226 83.0888C90.7996 82.3822 91.0549 81.6949 91.5336 81.1747C92.0123 80.6545 92.6761 80.3431 93.3821 80.3075C93.7248 80.2903 94.0674 80.3415 94.3901 80.4581C94.7128 80.5746 95.0091 80.7542 95.2616 80.9864C95.5142 81.2186 95.7181 81.4988 95.8613 81.8105C96.0046 82.1223 96.0844 82.4594 96.096 82.8023V82.9343C96.096 82.9898 96.096 83.0452 96.096 83.0993C96.096 83.1534 96.096 83.1878 96.096 83.2313V83.4016C96.0867 84.0935 95.806 84.7541 95.3145 85.2412C94.823 85.7283 94.1599 86.0029 93.4679 86.006H93.4639ZM74.052 79.728C73.5763 79.727 73.1098 79.5966 72.7026 79.3508C72.2954 79.1049 71.9627 78.7529 71.7402 78.3324C71.5178 77.9119 71.4139 77.4388 71.4398 76.9638C71.4657 76.4889 71.6204 76.0299 71.8872 75.636L71.9822 75.504C72.1838 75.2219 72.4389 74.9823 72.733 74.7987C73.0271 74.6152 73.3545 74.4914 73.6965 74.4344C74.0385 74.3774 74.3884 74.3883 74.7261 74.4665C75.0639 74.5448 75.3829 74.6887 75.665 74.8902C75.9472 75.0918 76.1868 75.3469 76.3704 75.641C76.5539 75.9351 76.6777 76.2625 76.7347 76.6045C76.7917 76.9465 76.7808 77.2964 76.7025 77.6341C76.6243 77.9719 76.4804 78.2909 76.2788 78.573C76.0276 78.9301 75.6941 79.2215 75.3065 79.4225C74.9189 79.6236 74.4886 79.7283 74.052 79.728ZM85.9584 75.6888C85.6947 75.6887 85.4326 75.6487 85.1809 75.57C84.5043 75.3672 83.9344 74.9067 83.5942 74.2877C83.2539 73.6687 83.1705 72.9407 83.362 72.2608C83.4555 71.931 83.6137 71.6231 83.8273 71.3549C84.0409 71.0868 84.3056 70.8637 84.6062 70.6988C84.9067 70.5338 85.237 70.4303 85.5779 70.3941C85.9188 70.3579 86.2635 70.3898 86.592 70.488L86.724 70.5303C87.3286 70.7158 87.8466 71.1123 88.1836 71.6475C88.5205 72.1827 88.6542 72.8211 88.5602 73.4465C88.4662 74.072 88.1508 74.6429 87.6713 75.0554C87.1919 75.4678 86.5803 75.6945 85.9478 75.6941L85.9584 75.6888Z" fill="white"/>
<path d="M78.3842 108.059C78.202 108.06 78.0201 108.041 77.8417 108.004L78.3816 105.419L77.785 107.992C77.1015 107.862 76.4969 107.468 76.1024 106.895C75.7079 106.322 75.5555 105.617 75.6783 104.932C75.8011 104.247 76.1891 103.639 76.7581 103.239C77.3271 102.839 78.031 102.679 78.7169 102.795L78.9215 102.835C79.561 102.968 80.1285 103.333 80.5141 103.861C80.8998 104.388 81.0763 105.039 81.0094 105.689C80.9426 106.339 80.6372 106.941 80.1523 107.379C79.6675 107.817 79.0375 108.059 78.3842 108.059ZM91.3348 106.83C90.7228 106.831 90.1295 106.62 89.6562 106.232C89.1829 105.845 88.859 105.304 88.7399 104.704C88.6208 104.104 88.7138 103.481 89.0032 102.942C89.2926 102.403 89.7603 101.981 90.3263 101.748C90.9789 101.477 91.7119 101.472 92.368 101.735C93.024 101.998 93.5507 102.508 93.8348 103.155C93.9728 103.47 94.0468 103.808 94.0524 104.152C94.058 104.495 93.9951 104.836 93.8674 105.155C93.7397 105.473 93.5498 105.763 93.3087 106.008C93.0676 106.252 92.7802 106.446 92.4633 106.578L92.3419 106.628C92.0228 106.761 91.6805 106.83 91.3348 106.83ZM66.8012 101.855C66.4545 101.856 66.1111 101.788 65.7907 101.655C65.4704 101.522 65.1795 101.327 64.9348 101.082L66.8012 99.2152L64.8608 101.008C64.3607 100.518 64.0758 99.8489 64.0688 99.1487C64.0617 98.4485 64.3331 97.7742 64.8232 97.2741C65.3133 96.774 65.982 96.4891 66.6822 96.482C67.3824 96.475 68.0567 96.7464 68.5568 97.2365L68.669 97.3487C69.0381 97.7179 69.2895 98.1882 69.3913 98.7003C69.4931 99.2123 69.4408 99.743 69.2411 100.225C69.0413 100.708 68.703 101.12 68.269 101.41C67.8349 101.7 67.3246 101.855 66.8026 101.855H66.8012ZM101.536 98.5552C101.059 98.5553 100.591 98.4264 100.182 98.1822C99.7726 97.9379 99.4371 97.5874 99.2109 97.1678C98.9848 96.7482 98.8764 96.2753 98.8974 95.7991C98.9183 95.3229 99.0678 94.8613 99.33 94.4632C99.3379 94.4513 99.4184 94.3312 99.4277 94.318C99.6208 94.0275 99.8696 93.7782 100.16 93.5844C100.45 93.3907 100.775 93.2563 101.118 93.1892C101.46 93.122 101.812 93.1233 102.154 93.1931C102.496 93.2629 102.821 93.3997 103.109 93.5957C103.398 93.7917 103.645 94.0429 103.836 94.3349C104.026 94.6269 104.158 94.9538 104.221 95.2967C104.285 95.6397 104.281 95.9919 104.207 96.333C104.134 96.6741 103.994 96.9973 103.796 97.284L101.612 95.8017L103.752 97.3593C103.511 97.7269 103.182 98.0286 102.795 98.237C102.408 98.4454 101.975 98.5539 101.536 98.5525V98.5552ZM60.5735 90.2062C59.9737 90.214 59.3902 90.0114 58.9245 89.6334C58.4588 89.2555 58.1403 88.7262 58.0246 88.1377L58.01 88.0665C57.8752 87.3767 58.0179 86.6615 58.4071 86.0763C58.7964 85.4911 59.4007 85.083 60.089 84.9407C60.4266 84.8706 60.7746 84.8681 61.1131 84.9333C61.4516 84.9984 61.7739 85.13 62.0613 85.3203C62.3487 85.5106 62.5956 85.756 62.7876 86.0422C62.9797 86.3285 63.1132 86.6499 63.1805 86.988C63.3202 87.6813 63.1822 88.4017 62.796 88.9942C62.4099 89.5867 61.8066 90.0039 61.116 90.156C60.9372 90.1904 60.7555 90.2072 60.5735 90.2062ZM105.423 86.0046H105.384C104.684 85.9942 104.016 85.7062 103.529 85.2039C103.041 84.7017 102.773 84.0263 102.783 83.3263C102.791 82.626 103.071 81.9561 103.563 81.4582C104.056 80.9604 104.723 80.6736 105.423 80.6586H105.442C105.783 80.6541 106.122 80.7173 106.439 80.8445C106.756 80.9718 107.045 81.1606 107.289 81.4C107.532 81.6395 107.726 81.9248 107.859 82.2396C107.991 82.5544 108.06 82.8923 108.062 83.2339V83.4042C108.051 84.0973 107.769 84.7584 107.275 85.245C106.781 85.7315 106.116 86.0043 105.423 86.0046ZM103.773 77.3784C103.247 77.3783 102.732 77.2208 102.296 76.9261C101.859 76.6314 101.521 76.2129 101.325 75.7244C101.056 75.0708 101.056 74.3378 101.323 73.6837C101.59 73.0296 102.104 72.5067 102.753 72.2278C103.068 72.092 103.407 72.0203 103.751 72.0169C104.094 72.0136 104.435 72.0786 104.753 72.2082C105.071 72.3379 105.36 72.5295 105.603 72.7719C105.846 73.0144 106.038 73.3028 106.169 73.6204L106.222 73.7524C106.384 74.1531 106.445 74.5875 106.399 75.0174C106.354 75.4473 106.204 75.8594 105.962 76.2177C105.72 76.576 105.394 76.8695 105.013 77.0723C104.631 77.2752 104.205 77.3812 103.773 77.381V77.3784ZM61.908 77.1791C61.4778 77.1774 61.0546 77.0705 60.6751 76.8679C60.2956 76.6652 59.9714 76.3729 59.7307 76.0164C59.4899 75.6599 59.34 75.2499 59.2938 74.8222C59.2477 74.3945 59.3068 73.962 59.466 73.5623L59.5584 73.3458C59.7699 72.926 60.0898 72.5703 60.4848 72.3154C60.8799 72.0605 61.3358 71.9158 61.8055 71.8961C62.2752 71.8765 62.7416 71.9826 63.1566 72.2035C63.5716 72.4244 63.92 72.7521 64.166 73.1528C64.4119 73.5535 64.5464 74.0125 64.5555 74.4826C64.5646 74.9526 64.4481 75.4165 64.2179 75.8264C63.9877 76.2363 63.6522 76.5774 63.2462 76.8142C62.8401 77.0511 62.3781 77.1752 61.908 77.1738V77.1791ZM95.5086 67.1603C94.9808 67.1607 94.4651 67.002 94.0289 66.7049C93.4438 66.3108 93.0363 65.7033 92.8937 65.0125C92.7511 64.3216 92.8847 63.6024 93.2659 63.0089C93.4507 62.7205 93.6909 62.4718 93.9727 62.2771C94.2545 62.0825 94.5722 61.9458 94.9073 61.8751C95.2423 61.8043 95.5882 61.8009 95.9246 61.865C96.261 61.9291 96.5813 62.0595 96.8669 62.2486L96.9989 62.3344C97.4664 62.6516 97.8198 63.1105 98.0072 63.6435C98.1946 64.1765 98.206 64.7556 98.0398 65.2956C97.8736 65.8356 97.5385 66.308 97.0838 66.6434C96.6292 66.9789 96.0789 67.1595 95.5139 67.159L95.5086 67.1603ZM70.2662 67.056C69.6995 67.0564 69.1476 66.8744 68.6923 66.537C68.237 66.1995 67.9024 65.7244 67.7379 65.1821C67.5735 64.6397 67.5879 64.0588 67.7791 63.5253C67.9703 62.9918 68.3282 62.5339 68.7997 62.2195L70.2636 64.416L68.8908 62.1575C69.4704 61.7642 70.1824 61.6172 70.8704 61.7489C71.5583 61.8806 72.1658 62.2802 72.5591 62.8597C72.9524 63.4393 73.0994 64.1514 72.9677 64.8393C72.836 65.5272 72.4364 66.1347 71.8568 66.528L71.7248 66.6125C71.2933 66.9015 70.7856 67.0558 70.2662 67.056ZM82.9712 63.2636H82.8392C82.1391 63.2636 81.4676 62.9855 80.9725 62.4904C80.4774 61.9953 80.1992 61.3238 80.1992 60.6236C80.1992 59.9235 80.4774 59.252 80.9725 58.7569C81.4676 58.2618 82.1391 57.9836 82.8392 57.9836H82.9712C83.6714 57.9836 84.3429 58.2618 84.838 58.7569C85.3331 59.252 85.6112 59.9235 85.6112 60.6236C85.6112 61.3238 85.3331 61.9953 84.838 62.4904C84.3429 62.9855 83.6714 63.2636 82.9712 63.2636Z" fill="white"/>
</g>
<defs>
<clipPath id="clip0_33_334">
<rect width="132" height="132" fill="white"/>
</clipPath>
</defs>
</svg>
