<svg width="149" height="318" viewBox="0 0 149 318" fill="none" xmlns="http://www.w3.org/2000/svg">
<path d="M-38.178 6.9483C-63.3908 6.94893 -88.0373 14.4259 -109.001 28.4339C-129.964 42.4418 -146.303 62.3514 -155.951 85.6452C-165.6 108.939 -168.124 134.571 -163.205 159.299C-158.286 184.027 -146.145 206.742 -128.317 224.57C-110.488 242.398 -87.774 254.539 -63.0457 259.458C-38.3173 264.377 -12.6856 261.853 10.6082 252.205C33.9019 242.557 53.8116 226.218 67.8195 205.254C81.8274 184.291 89.3044 159.644 89.305 134.431C89.305 117.69 86.0076 101.113 79.601 85.6457C73.1944 70.1787 63.804 56.1251 51.9661 44.2872C40.1283 32.4493 26.0746 23.059 10.6077 16.6524C-4.8593 10.2457 -21.4367 6.9483 -38.178 6.9483ZM-38.178 189.385C-49.0466 189.384 -59.671 186.161 -68.7077 180.122C-77.7443 174.083 -84.7874 165.5 -88.9462 155.459C-93.105 145.417 -94.1928 134.368 -92.0721 123.708C-89.9513 113.049 -84.7172 103.257 -77.0317 95.5722C-69.3462 87.8871 -59.5544 82.6536 -48.8945 80.5334C-38.2347 78.4133 -27.1855 79.5017 -17.1442 83.6611C-7.10298 87.8205 1.47942 94.8641 7.51765 103.901C13.5559 112.938 16.7788 123.563 16.7788 134.431C16.7788 141.648 15.3572 148.794 12.5954 155.462C9.8335 162.129 5.78535 168.188 0.682114 173.29C-4.42114 178.393 -10.4795 182.441 -17.1472 185.203C-23.8148 187.964 -30.9611 189.385 -38.178 189.385Z" fill="#C5C5FF"/>
<path d="M23.037 99.1238C25.7382 99.1238 27.9278 96.9341 27.9278 94.2329C27.9278 91.5318 25.7382 89.3421 23.037 89.3421C20.3359 89.3421 18.1462 91.5318 18.1462 94.2329C18.1462 96.9341 20.3359 99.1238 23.037 99.1238Z" fill="#FF4900"/>
<path d="M46.6453 116.999C49.3465 116.999 51.5362 114.809 51.5362 112.108C51.5362 109.407 49.3465 107.217 46.6453 107.217C43.9442 107.217 41.7545 109.407 41.7545 112.108C41.7545 114.809 43.9442 116.999 46.6453 116.999Z" fill="#FF4900"/>
<path d="M78.6838 108.905C81.385 108.905 83.5747 106.716 83.5747 104.015C83.5747 101.313 81.385 99.1238 78.6838 99.1238C75.9827 99.1238 73.793 101.313 73.793 104.015C73.793 106.716 75.9827 108.905 78.6838 108.905Z" fill="#FF4900"/>
<path d="M88.4623 133.188C91.1635 133.188 93.3532 130.998 93.3532 128.297C93.3532 125.596 91.1635 123.406 88.4623 123.406C85.7612 123.406 83.5715 125.596 83.5715 128.297C83.5715 130.998 85.7612 133.188 88.4623 133.188Z" fill="#FF4900"/>
<path d="M106 121.721C108.701 121.721 110.891 119.531 110.891 116.83C110.891 114.129 108.701 111.939 106 111.939C103.299 111.939 101.109 114.129 101.109 116.83C101.109 119.531 103.299 121.721 106 121.721Z" fill="#FF4900"/>
<path d="M121.178 142.966C123.879 142.966 126.069 140.777 126.069 138.076C126.069 135.374 123.879 133.185 121.178 133.185C118.477 133.185 116.287 135.374 116.287 138.076C116.287 140.777 118.477 142.966 121.178 142.966Z" fill="#FF4900"/>
<path d="M130.957 172.308C133.658 172.308 135.848 170.119 135.848 167.417C135.848 164.716 133.658 162.527 130.957 162.527C128.256 162.527 126.066 164.716 126.066 167.417C126.066 170.119 128.256 172.308 130.957 172.308Z" fill="#FF4900"/>
<path d="M144.109 192.206C146.81 192.206 149 190.016 149 187.315C149 184.614 146.81 182.424 144.109 182.424C141.408 182.424 139.218 184.614 139.218 187.315C139.218 190.016 141.408 192.206 144.109 192.206Z" fill="#FF4900"/>
<path d="M100.941 158.145C103.642 158.145 105.831 155.955 105.831 153.254C105.831 150.553 103.642 148.363 100.941 148.363C98.2395 148.363 96.0498 150.553 96.0498 153.254C96.0498 155.955 98.2395 158.145 100.941 158.145Z" fill="#FF4900"/>
<path d="M67.2168 137.907C69.9179 137.907 72.1076 135.717 72.1076 133.016C72.1076 130.315 69.9179 128.125 67.2168 128.125C64.5156 128.125 62.3259 130.315 62.3259 133.016C62.3259 135.717 64.5156 137.907 67.2168 137.907Z" fill="#FF4900"/>
<path d="M56.4238 99.1238C59.125 99.1238 61.3147 96.9341 61.3147 94.2329C61.3147 91.5318 59.125 89.3421 56.4238 89.3421C53.7227 89.3421 51.533 91.5318 51.533 94.2329C51.533 96.9341 53.7227 99.1238 56.4238 99.1238Z" fill="#FF4900"/>
<path d="M23.037 126.78C25.7382 126.78 27.9278 124.591 27.9278 121.889C27.9278 119.188 25.7382 116.999 23.037 116.999C20.3359 116.999 18.1462 119.188 18.1462 121.889C18.1462 124.591 20.3359 126.78 23.037 126.78Z" fill="#FF4900"/>
<path d="M23.037 148.026C25.7382 148.026 27.9278 145.836 27.9278 143.135C27.9278 140.434 25.7382 138.244 23.037 138.244C20.3359 138.244 18.1462 140.434 18.1462 143.135C18.1462 145.836 20.3359 148.026 23.037 148.026Z" fill="#FF4900"/>
<path d="M44.2826 154.096C46.9837 154.096 49.1734 151.907 49.1734 149.206C49.1734 146.504 46.9837 144.315 44.2826 144.315C41.5815 144.315 39.3918 146.504 39.3918 149.206C39.3918 151.907 41.5815 154.096 44.2826 154.096Z" fill="#FF4900"/>
<path d="M74.6357 160.167C77.3368 160.167 79.5265 157.977 79.5265 155.276C79.5265 152.575 77.3368 150.385 74.6357 150.385C71.9346 150.385 69.7449 152.575 69.7449 155.276C69.7449 157.977 71.9346 160.167 74.6357 160.167Z" fill="#FF4900"/>
<path d="M77.6726 178.379C80.3737 178.379 82.5634 176.189 82.5634 173.488C82.5634 170.787 80.3737 168.597 77.6726 168.597C74.9715 168.597 72.7818 170.787 72.7818 173.488C72.7818 176.189 74.9715 178.379 77.6726 178.379Z" fill="#FF4900"/>
<path d="M104.989 181.413C107.69 181.413 109.88 179.223 109.88 176.522C109.88 173.821 107.69 171.631 104.989 171.631C102.288 171.631 100.098 173.821 100.098 176.522C100.098 179.223 102.288 181.413 104.989 181.413Z" fill="#FF4900"/>
<path d="M89.8138 199.625C92.515 199.625 94.7047 197.435 94.7047 194.734C94.7047 192.033 92.515 189.843 89.8138 189.843C87.1127 189.843 84.923 192.033 84.923 194.734C84.923 197.435 87.1127 199.625 89.8138 199.625Z" fill="#FF4900"/>
<path d="M117.13 205.695C119.831 205.695 122.021 203.505 122.021 200.804C122.021 198.103 119.831 195.913 117.13 195.913C114.429 195.913 112.239 198.103 112.239 200.804C112.239 203.505 114.429 205.695 117.13 205.695Z" fill="#FF4900"/>
<path d="M135.342 217.836C138.043 217.836 140.233 215.647 140.233 212.946C140.233 210.244 138.043 208.055 135.342 208.055C132.641 208.055 130.451 210.244 130.451 212.946C130.451 215.647 132.641 217.836 135.342 217.836Z" fill="#FF4900"/>
<path d="M141.413 239.085C144.114 239.085 146.303 236.895 146.303 234.194C146.303 231.493 144.114 229.303 141.413 229.303C138.711 229.303 136.522 231.493 136.522 234.194C136.522 236.895 138.711 239.085 141.413 239.085Z" fill="#FF4900"/>
<path d="M108.023 229.978C110.724 229.978 112.913 227.788 112.913 225.087C112.913 222.386 110.724 220.196 108.023 220.196C105.321 220.196 103.132 222.386 103.132 225.087C103.132 227.788 105.321 229.978 108.023 229.978Z" fill="#FF4900"/>
<path d="M83.7432 220.873C86.4443 220.873 88.6341 218.684 88.6341 215.982C88.6341 213.281 86.4443 211.092 83.7432 211.092C81.0421 211.092 78.8524 213.281 78.8524 215.982C78.8524 218.684 81.0421 220.873 83.7432 220.873Z" fill="#FF4900"/>
<path d="M86.7769 242.119C89.4781 242.119 91.6678 239.929 91.6678 237.228C91.6678 234.527 89.4781 232.337 86.7769 232.337C84.0758 232.337 81.8861 234.527 81.8861 237.228C81.8861 239.929 84.0758 242.119 86.7769 242.119Z" fill="#FF4900"/>
<path d="M117.13 251.226C119.831 251.226 122.021 249.037 122.021 246.336C122.021 243.634 119.831 241.445 117.13 241.445C114.429 241.445 112.239 243.634 112.239 246.336C112.239 249.037 114.429 251.226 117.13 251.226Z" fill="#FF4900"/>
<path d="M117.13 275.506C119.831 275.506 122.021 273.316 122.021 270.615C122.021 267.914 119.831 265.724 117.13 265.724C114.429 265.724 112.239 267.914 112.239 270.615C112.239 273.316 114.429 275.506 117.13 275.506Z" fill="#FF4900"/>
<path d="M95.8813 266.401C98.5824 266.401 100.772 264.212 100.772 261.51C100.772 258.809 98.5824 256.62 95.8813 256.62C93.1801 256.62 90.9904 258.809 90.9904 261.51C90.9904 264.212 93.1801 266.401 95.8813 266.401Z" fill="#FF4900"/>
<path d="M62.4944 254.26C65.1956 254.26 67.3853 252.07 67.3853 249.369C67.3853 246.668 65.1956 244.478 62.4944 244.478C59.7933 244.478 57.6036 246.668 57.6036 249.369C57.6036 252.07 59.7933 254.26 62.4944 254.26Z" fill="#FF4900"/>
<path d="M71.602 278.543C74.3031 278.543 76.4928 276.353 76.4928 273.652C76.4928 270.951 74.3031 268.761 71.602 268.761C68.9009 268.761 66.7112 270.951 66.7112 273.652C66.7112 276.353 68.9009 278.543 71.602 278.543Z" fill="#FF4900"/>
<path d="M89.8138 302.825C92.515 302.825 94.7047 300.635 94.7047 297.934C94.7047 295.233 92.515 293.043 89.8138 293.043C87.1127 293.043 84.923 295.233 84.923 297.934C84.923 300.635 87.1127 302.825 89.8138 302.825Z" fill="#FF4900"/>
<path d="M56.4238 311.929C59.125 311.929 61.3147 309.74 61.3147 307.039C61.3147 304.337 59.125 302.148 56.4238 302.148C53.7227 302.148 51.533 304.337 51.533 307.039C51.533 309.74 53.7227 311.929 56.4238 311.929Z" fill="#FF4900"/>
<path d="M29.1076 318C31.8088 318 33.9985 315.81 33.9985 313.109C33.9985 310.408 31.8088 308.218 29.1076 308.218C26.4065 308.218 24.2168 310.408 24.2168 313.109C24.2168 315.81 26.4065 318 29.1076 318Z" fill="#FF4900"/>
<path d="M41.2489 296.754C43.95 296.754 46.1397 294.565 46.1397 291.864C46.1397 289.162 43.95 286.973 41.2489 286.973C38.5477 286.973 36.358 289.162 36.358 291.864C36.358 294.565 38.5477 296.754 41.2489 296.754Z" fill="#FF4900"/>
<path d="M47.3195 269.435C50.0206 269.435 52.2104 267.245 52.2104 264.544C52.2104 261.843 50.0206 259.653 47.3195 259.653C44.6184 259.653 42.4287 261.843 42.4287 264.544C42.4287 267.245 44.6184 269.435 47.3195 269.435Z" fill="#FF4900"/>
<path d="M23.037 260.331C25.7382 260.331 27.9278 258.141 27.9278 255.44C27.9278 252.739 25.7382 250.549 23.037 250.549C20.3359 250.549 18.1462 252.739 18.1462 255.44C18.1462 258.141 20.3359 260.331 23.037 260.331Z" fill="#FF4900"/>
<path d="M16.9664 287.647C19.6675 287.647 21.8572 285.457 21.8572 282.756C21.8572 280.055 19.6675 277.865 16.9664 277.865C14.2653 277.865 12.0756 280.055 12.0756 282.756C12.0756 285.457 14.2653 287.647 16.9664 287.647Z" fill="#FF4900"/>
<path d="M-1.24547 305.859C1.45566 305.859 3.64537 303.669 3.64537 300.968C3.64537 298.267 1.45566 296.077 -1.24547 296.077C-3.94661 296.077 -6.13631 298.267 -6.13631 300.968C-6.13631 303.669 -3.94661 305.859 -1.24547 305.859Z" fill="#FF4900"/>
<path d="M-4.28236 278.543C-1.58122 278.543 0.608479 276.353 0.608479 273.652C0.608479 270.951 -1.58122 268.761 -4.28236 268.761C-6.98349 268.761 -9.1732 270.951 -9.1732 273.652C-9.1732 276.353 -6.98349 278.543 -4.28236 278.543Z" fill="#FF4900"/>
<path d="M-4.28236 251.226C-1.58122 251.226 0.608479 249.037 0.608479 246.336C0.608479 243.634 -1.58122 241.445 -4.28236 241.445C-6.98349 241.445 -9.1732 243.634 -9.1732 246.336C-9.1732 249.037 -6.98349 251.226 -4.28236 251.226Z" fill="#FF4900"/>
<path d="M-1.24547 167.923C1.45566 167.923 3.64537 165.733 3.64537 163.032C3.64537 160.331 1.45566 158.141 -1.24547 158.141C-3.94661 158.141 -6.13631 160.331 -6.13631 163.032C-6.13631 165.733 -3.94661 167.923 -1.24547 167.923Z" fill="#FF4900"/>
<path d="M-3.60502 129.814C-0.903882 129.814 1.28582 127.624 1.28582 124.923C1.28582 122.222 -0.903882 120.032 -3.60502 120.032C-6.30615 120.032 -8.49586 122.222 -8.49586 124.923C-8.49586 127.624 -6.30615 129.814 -3.60502 129.814Z" fill="#FF4900"/>
<path d="M-1.24547 103.846C1.45566 103.846 3.64537 101.656 3.64537 98.9552C3.64537 96.2541 1.45566 94.0644 -1.24547 94.0644C-3.94661 94.0644 -6.13631 96.2541 -6.13631 98.9552C-6.13631 101.656 -3.94661 103.846 -1.24547 103.846Z" fill="#FF4900"/>
</svg>
