<svg width="139" height="408" viewBox="0 0 139 408" fill="none" xmlns="http://www.w3.org/2000/svg">
<g clip-path="url(#clip0_33_102)">
<path d="M204 281.736C188.625 281.736 173.596 277.177 160.812 268.635C148.028 260.094 138.065 247.953 132.181 233.748C126.297 219.544 124.758 203.914 127.757 188.834C130.757 173.755 138.161 159.904 149.032 149.032C159.904 138.161 173.755 130.757 188.834 127.757C203.914 124.758 219.544 126.297 233.748 132.181C247.953 138.065 260.093 148.028 268.635 160.812C277.177 173.596 281.736 188.625 281.736 204C281.714 224.61 273.516 244.369 258.943 258.943C244.369 273.516 224.61 281.714 204 281.736ZM204 134.424C190.239 134.424 176.787 138.504 165.345 146.149C153.904 153.795 144.986 164.661 139.72 177.374C134.454 190.088 133.076 204.077 135.761 217.574C138.445 231.07 145.072 243.467 154.802 253.198C164.533 262.928 176.93 269.555 190.426 272.239C203.923 274.924 217.912 273.546 230.626 268.28C243.339 263.014 254.205 254.096 261.85 242.654C269.496 231.213 273.576 217.761 273.576 204C273.556 185.554 266.219 167.868 253.175 154.825C240.131 141.781 222.446 134.444 204 134.424Z" fill="#FF4900"/>
<path d="M204 313.299C182.383 313.298 161.251 306.887 143.278 294.877C125.304 282.866 111.296 265.796 103.024 245.824C94.7518 225.852 92.5879 203.876 96.8057 182.674C101.023 161.473 111.433 141.998 126.719 126.712C142.005 111.427 161.481 101.018 182.682 96.8007C203.884 92.5837 225.86 94.7485 245.832 103.021C265.804 111.294 282.874 125.303 294.883 143.277C306.893 161.251 313.303 182.383 313.303 204C313.27 232.978 301.743 260.76 281.252 281.251C260.761 301.741 232.978 313.267 204 313.299ZM204 102.861C183.997 102.862 164.443 108.794 147.811 119.908C131.18 131.022 118.217 146.818 110.563 165.299C102.908 183.779 100.906 204.115 104.809 223.734C108.712 243.353 118.345 261.373 132.489 275.518C146.634 289.662 164.655 299.294 184.274 303.196C203.893 307.098 224.229 305.095 242.709 297.44C261.19 289.785 276.985 276.822 288.099 260.189C299.212 243.557 305.143 224.003 305.143 204C305.112 177.185 294.446 151.478 275.484 132.517C256.523 113.556 230.815 102.891 204 102.861Z" fill="#FF4900"/>
<path d="M204 344.866C176.139 344.866 148.904 336.604 125.739 321.126C102.574 305.647 84.5186 283.647 73.8568 257.907C63.1949 232.167 60.4053 203.844 65.8407 176.518C71.276 149.193 84.6922 124.093 104.393 104.393C124.093 84.6922 149.193 71.276 176.518 65.8406C203.844 60.4053 232.167 63.1949 257.907 73.8567C283.647 84.5185 305.647 102.574 321.126 125.739C336.604 148.904 344.866 176.139 344.866 204C344.824 241.347 329.969 277.152 303.561 303.561C277.153 329.969 241.347 344.824 204 344.866ZM204 71.2939C177.753 71.2939 152.096 79.077 130.273 93.6589C108.449 108.241 91.4398 128.967 81.3956 153.216C71.3514 177.464 68.7234 204.147 73.8439 229.89C78.9644 255.632 91.6034 279.278 110.163 297.837C128.722 316.397 152.368 329.036 178.11 334.156C203.853 339.277 230.536 336.649 254.784 326.604C279.033 316.56 299.759 299.551 314.341 277.728C328.923 255.904 336.706 230.247 336.706 204C336.667 168.816 322.673 135.084 297.794 110.206C272.916 85.3268 239.184 71.3328 204 71.2939Z" fill="#FF4900"/>
<path d="M204 376.433C169.896 376.433 136.558 366.32 108.201 347.373C79.8449 328.426 57.7437 301.495 44.6927 269.987C31.6416 238.479 28.2269 203.809 34.8802 170.36C41.5336 136.911 57.9562 106.187 82.0714 82.0714C106.187 57.9562 136.911 41.5336 170.36 34.8802C203.809 28.2269 238.479 31.6416 269.987 44.6927C301.495 57.7437 328.426 79.8449 347.373 108.201C366.32 136.558 376.433 169.896 376.433 204C376.381 249.716 358.198 293.545 325.871 325.871C293.545 358.198 249.716 376.381 204 376.433ZM204 39.727C171.51 39.727 139.749 49.3614 112.735 67.412C85.7202 85.4625 64.6649 111.118 52.2315 141.135C39.7981 171.152 36.5449 204.182 42.8834 236.048C49.2219 267.914 64.8674 297.185 87.8414 320.159C110.815 343.133 140.086 358.778 171.952 365.117C203.818 371.455 236.848 368.202 266.865 355.768C296.882 343.335 322.537 322.28 340.588 295.265C358.639 268.251 368.273 236.49 368.273 204C368.223 160.447 350.9 118.693 320.104 87.8963C289.307 57.0999 247.553 39.7766 204 39.727Z" fill="#FF4900"/>
<path d="M204 408C163.653 408 124.211 396.036 90.6638 373.62C57.1161 351.204 30.9689 319.344 15.5287 282.067C0.0883897 244.791 -3.95149 203.774 3.91989 164.202C11.7913 124.63 31.2204 88.2802 59.7503 59.7503C88.2802 31.2204 124.63 11.7913 164.202 3.91988C203.774 -3.95151 244.791 0.0883744 282.068 15.5287C319.344 30.9689 351.204 57.1161 373.62 90.6637C396.036 124.211 408 163.653 408 204C407.939 258.085 386.426 309.938 348.182 348.182C309.938 386.426 258.085 407.939 204 408ZM204 8.16008C165.267 8.16008 127.403 19.6459 95.1972 41.1651C62.9915 62.6842 37.8902 93.2703 23.0675 129.055C8.24486 164.84 4.36657 204.217 11.9231 242.207C19.4796 280.196 38.1316 315.091 65.5203 342.48C92.909 369.869 127.804 388.521 165.794 396.077C203.783 403.634 243.16 399.755 278.945 384.933C314.73 370.11 345.316 345.009 366.835 312.803C388.354 280.597 399.84 242.734 399.84 204C399.782 152.078 379.13 102.299 342.415 65.5847C305.701 28.8702 255.922 8.21839 204 8.16008Z" fill="#FF4900"/>
</g>
<defs>
<clipPath id="clip0_33_102">
<rect width="408" height="408" fill="white"/>
</clipPath>
</defs>
</svg>
