<svg width="100" height="100" viewBox="0 0 100 100" fill="none" xmlns="http://www.w3.org/2000/svg">
<path d="M76.3 71.448V71.233" stroke="#111111" stroke-width="6" stroke-linecap="round" stroke-linejoin="round"/>
<path d="M3 71.448C3 58.9828 7.95177 47.0282 16.766 38.214C25.5802 29.3998 37.5348 24.448 50 24.448C62.4652 24.448 74.4198 29.3998 83.234 38.214C92.0482 47.0282 97 58.9828 97 71.448C97 69.183 92.36 67.348 86.648 67.348C81.111 67.348 76.582 69.071 76.297 71.233C76.2685 64.2599 73.4711 57.5838 68.5202 52.6732C63.5694 47.7627 56.8706 45.02 49.8975 45.0485C42.9244 45.077 36.2483 47.8744 31.3377 52.8253C26.4272 57.7761 23.6845 64.4749 23.713 71.448C23.713 69.183 19.073 67.348 13.362 67.348C7.651 67.348 3 69.183 3 71.448Z" fill="#C5C5FF" stroke="#111111" stroke-width="6" stroke-linecap="round" stroke-linejoin="round"/>
<path d="M3 71.448C3 69.183 7.64 67.348 13.362 67.348C19.084 67.348 23.713 69.183 23.713 71.448C23.713 73.713 19.073 75.548 13.362 75.548C7.651 75.548 3 73.712 3 71.448Z" stroke="#111111" stroke-width="6" stroke-linecap="round" stroke-linejoin="round"/>
<path d="M76.287 71.448C76.2854 71.4001 76.2887 71.3522 76.297 71.305V71.233C76.582 69.071 81.111 67.348 86.648 67.348C92.36 67.348 97 69.183 97 71.448C97 73.713 92.36 75.548 86.648 75.548C80.936 75.548 76.287 73.712 76.287 71.448Z" stroke="#111111" stroke-width="6" stroke-linecap="round" stroke-linejoin="round"/>
</svg>
