<svg width="100" height="100" viewBox="0 0 100 100" fill="none" xmlns="http://www.w3.org/2000/svg">
<g clip-path="url(#clip0_33_311)">
<path d="M42.698 10.093L0 84.049H85.397L42.698 10.093Z" fill="#F5C115"/>
<path d="M59.519 26.7159C59.2094 26.716 58.903 26.6523 58.619 26.5289C58.5341 26.4922 58.4513 26.4508 58.371 26.4049C58.1132 26.2583 57.8868 26.0621 57.7051 25.8277C57.5233 25.5933 57.3898 25.3252 57.3121 25.0389C57.2343 24.7526 57.214 24.4538 57.2523 24.1596C57.2906 23.8655 57.3867 23.5818 57.535 23.3249C57.7353 22.978 58.0227 22.6894 58.3687 22.4877C58.7148 22.286 59.1075 22.1782 59.508 22.1749C60.0088 22.17 60.4972 22.3309 60.897 22.6327C61.2967 22.9344 61.5853 23.36 61.7178 23.843C61.8502 24.326 61.8191 24.8393 61.6292 25.3027C61.4393 25.7662 61.1013 26.1537 60.668 26.4049C60.3191 26.6081 59.9228 26.7153 59.519 26.7159Z" fill="#111111"/>
<path d="M26.0419 84.672C25.6442 84.6716 25.2536 84.5666 24.9093 84.3676C24.5649 84.1685 24.279 83.8824 24.0801 83.538C23.8812 83.1935 23.7764 82.8029 23.7762 82.4051C23.776 82.0074 23.8804 81.6166 24.0789 81.272L24.1259 81.19C24.4313 80.6795 24.925 80.3094 25.5007 80.1595C26.0764 80.0095 26.6879 80.0918 27.2035 80.3885C27.7191 80.6851 28.0975 81.1725 28.2571 81.7456C28.4168 82.3186 28.3449 82.9314 28.0569 83.452L28.0099 83.535C27.8111 83.881 27.5244 84.1684 27.1788 84.3681C26.8332 84.5677 26.4411 84.6726 26.0419 84.672ZM30.8209 76.394C30.4241 76.393 30.0345 76.2879 29.691 76.0891C29.3474 75.8904 29.0621 75.605 28.8634 75.2615C28.6647 74.918 28.5597 74.5283 28.5587 74.1315C28.5577 73.7346 28.6609 73.3445 28.8579 73L28.9049 72.917C29.2077 72.4009 29.7021 72.0253 30.2804 71.8721C30.8588 71.7189 31.4742 71.8004 31.9928 72.0989C32.5113 72.3974 32.8909 72.8887 33.0488 73.4658C33.2067 74.0429 33.1302 74.659 32.8359 75.18L32.7889 75.262C32.5894 75.607 32.3024 75.8933 31.9569 76.0921C31.6113 76.2908 31.2195 76.395 30.8209 76.394ZM35.5999 68.117C35.2021 68.1169 34.8113 68.0121 34.4668 67.8131C34.1223 67.6142 33.8362 67.328 33.6372 66.9835C33.4383 66.6389 33.3336 66.2481 33.3335 65.8503C33.3335 65.4524 33.4381 65.0616 33.6369 64.717L33.6839 64.634C33.9844 64.1127 34.4797 63.7321 35.0608 63.576C35.6419 63.4199 36.2612 63.501 36.7824 63.8015C37.3037 64.102 37.6843 64.5972 37.8404 65.1783C37.9965 65.7594 37.9154 66.3787 37.6149 66.9L37.5679 66.982C37.3688 67.3276 37.0819 67.6145 36.7364 67.8138C36.3908 68.0131 35.9988 68.1177 35.5999 68.117ZM40.3789 59.84C39.9805 59.8395 39.5891 59.7341 39.2444 59.5343C38.8996 59.3344 38.6136 59.0473 38.4151 58.7018C38.2166 58.3563 38.1126 57.9646 38.1136 57.5661C38.1147 57.1676 38.2207 56.7765 38.4209 56.432L38.4679 56.35C38.7739 55.8373 39.2697 55.4659 39.8477 55.3165C40.4258 55.167 41.0394 55.2515 41.5556 55.5516C42.0717 55.8517 42.4487 56.3433 42.6047 56.9196C42.7607 57.4959 42.6832 58.1105 42.3889 58.63L42.3409 58.712C42.1415 59.0555 41.8552 59.3405 41.5108 59.5385C41.1665 59.7364 40.7762 59.8404 40.3789 59.84ZM45.1579 51.563C44.7601 51.5627 44.3694 51.4579 44.0249 51.2589C43.6804 51.06 43.3943 50.7739 43.1954 50.4294C42.9964 50.0849 42.8915 49.6942 42.8912 49.2964C42.891 48.8986 42.9954 48.5077 43.1939 48.163L43.2419 48.08C43.5447 47.5639 44.0391 47.1883 44.6174 47.0351C45.1958 46.8819 45.8112 46.9634 46.3298 47.2619C46.8483 47.5604 47.2279 48.0517 47.3858 48.6288C47.5437 49.2059 47.4672 49.822 47.1729 50.343L47.1259 50.425C46.9271 50.7711 46.6404 51.0585 46.2948 51.2584C45.9493 51.4582 45.5571 51.5632 45.1579 51.563ZM49.9369 43.285C49.5391 43.2847 49.1484 43.1799 48.8039 42.9809C48.4594 42.782 48.1733 42.4959 47.9744 42.1514C47.7754 41.8069 47.6705 41.4162 47.6702 41.0184C47.67 40.6206 47.7744 40.2297 47.9729 39.885L48.0209 39.803C48.1667 39.5395 48.3634 39.3077 48.5996 39.1211C48.8359 38.9344 49.1069 38.7967 49.3969 38.7159C49.6869 38.6351 49.9901 38.6129 50.2889 38.6505C50.5876 38.6881 50.8758 38.7848 51.1367 38.9349C51.3977 39.0851 51.6261 39.2857 51.8088 39.5251C51.9914 39.7644 52.1245 40.0377 52.2004 40.3291C52.2763 40.6204 52.2934 40.924 52.2507 41.222C52.2081 41.52 52.1065 41.8066 51.9519 42.065L51.9049 42.147C51.7061 42.4931 51.4194 42.7805 51.0738 42.9804C50.7283 43.1802 50.3361 43.2852 49.9369 43.285ZM54.7159 35.008C54.3181 35.0077 53.9274 34.9029 53.5829 34.7039C53.2384 34.505 52.9523 34.2189 52.7534 33.8744C52.5544 33.5299 52.4495 33.1392 52.4492 32.7414C52.449 32.3436 52.5534 31.9527 52.7519 31.608L52.7999 31.526C52.9457 31.2625 53.1424 31.0307 53.3786 30.8441C53.6149 30.6574 53.8859 30.5197 54.1759 30.4389C54.4659 30.3581 54.7691 30.3359 55.0679 30.3735C55.3666 30.4111 55.6548 30.5078 55.9157 30.6579C56.1767 30.8081 56.4051 31.0087 56.5878 31.2481C56.7704 31.4874 56.9035 31.7607 56.9794 32.0521C57.0552 32.3434 57.0724 32.647 57.0297 32.945C56.9871 33.243 56.8855 33.5296 56.7309 33.788L56.6839 33.87C56.4851 34.2161 56.1984 34.5035 55.8528 34.7034C55.5073 34.9032 55.1151 35.0082 54.7159 35.008Z" fill="#111111"/>
<path d="M21.335 92.9069C20.9335 92.9075 20.5388 92.803 20.1902 92.6037C19.8416 92.4044 19.5512 92.1173 19.348 91.7709C19.0996 91.3394 19.0002 90.838 19.0652 90.3443C19.1301 89.8506 19.3558 89.392 19.7074 89.0394C20.059 88.6867 20.517 88.4597 21.0105 88.3933C21.504 88.3269 22.0057 88.4248 22.438 88.672C22.8703 88.9191 23.2092 89.3018 23.4023 89.7607C23.5954 90.2197 23.6321 90.7295 23.5066 91.2114C23.3811 91.6933 23.1004 92.1205 22.7079 92.4269C22.3154 92.7334 21.8329 92.9021 21.335 92.9069Z" fill="#111111"/>
<path d="M88.241 92.9071H88.146C87.5445 92.9071 86.9676 92.6681 86.5423 92.2428C86.117 91.8175 85.878 91.2406 85.878 90.6391C85.878 90.0376 86.117 89.4607 86.5423 89.0354C86.9676 88.61 87.5445 88.3711 88.146 88.3711H88.241C88.8425 88.3711 89.4194 88.61 89.8447 89.0354C90.2701 89.4607 90.509 90.0376 90.509 90.6391C90.509 91.2406 90.2701 91.8175 89.8447 92.2428C89.4194 92.6681 88.8425 92.9071 88.241 92.9071ZM78.683 92.9071H78.583C77.9815 92.9071 77.4046 92.6681 76.9793 92.2428C76.554 91.8175 76.315 91.2406 76.315 90.6391C76.315 90.0376 76.554 89.4607 76.9793 89.0354C77.4046 88.61 77.9815 88.3711 78.583 88.3711H78.683C79.2845 88.3711 79.8614 88.61 80.2867 89.0354C80.7121 89.4607 80.951 90.0376 80.951 90.6391C80.951 91.2406 80.7121 91.8175 80.2867 92.2428C79.8614 92.6681 79.2845 92.9071 78.683 92.9071ZM69.125 92.9071H69.03C68.4285 92.9071 67.8516 92.6681 67.4263 92.2428C67.001 91.8175 66.762 91.2406 66.762 90.6391C66.762 90.0376 67.001 89.4607 67.4263 89.0354C67.8516 88.61 68.4285 88.3711 69.03 88.3711H69.125C69.7265 88.3711 70.3034 88.61 70.7287 89.0354C71.1541 89.4607 71.393 90.0376 71.393 90.6391C71.393 91.2406 71.1541 91.8175 70.7287 92.2428C70.3034 92.6681 69.7265 92.9071 69.125 92.9071ZM59.567 92.9071H59.472C58.8705 92.9071 58.2936 92.6681 57.8683 92.2428C57.443 91.8175 57.204 91.2406 57.204 90.6391C57.204 90.0376 57.443 89.4607 57.8683 89.0354C58.2936 88.61 58.8705 88.3711 59.472 88.3711H59.567C60.1685 88.3711 60.7454 88.61 61.1707 89.0354C61.5961 89.4607 61.835 90.0376 61.835 90.6391C61.835 91.2406 61.5961 91.8175 61.1707 92.2428C60.7454 92.6681 60.1685 92.9071 59.567 92.9071ZM50.009 92.9071H49.914C49.3125 92.9071 48.7356 92.6681 48.3103 92.2428C47.885 91.8175 47.646 91.2406 47.646 90.6391C47.646 90.0376 47.885 89.4607 48.3103 89.0354C48.7356 88.61 49.3125 88.3711 49.914 88.3711H50.009C50.6105 88.3711 51.1874 88.61 51.6127 89.0354C52.0381 89.4607 52.277 90.0376 52.277 90.6391C52.277 91.2406 52.0381 91.8175 51.6127 92.2428C51.1874 92.6681 50.6105 92.9071 50.009 92.9071ZM40.451 92.9071H40.356C39.7545 92.9071 39.1776 92.6681 38.7523 92.2428C38.327 91.8175 38.088 91.2406 38.088 90.6391C38.088 90.0376 38.327 89.4607 38.7523 89.0354C39.1776 88.61 39.7545 88.3711 40.356 88.3711H40.451C41.0525 88.3711 41.6294 88.61 42.0547 89.0354C42.4801 89.4607 42.719 90.0376 42.719 90.6391C42.719 91.2406 42.4801 91.8175 42.0547 92.2428C41.6294 92.6681 41.0525 92.9071 40.451 92.9071ZM30.893 92.9071H30.793C30.1915 92.9071 29.6146 92.6681 29.1893 92.2428C28.764 91.8175 28.525 91.2406 28.525 90.6391C28.525 90.0376 28.764 89.4607 29.1893 89.0354C29.6146 88.61 30.1915 88.3711 30.793 88.3711H30.893C31.4945 88.3711 32.0714 88.61 32.4967 89.0354C32.9221 89.4607 33.161 90.0376 33.161 90.6391C33.161 91.2406 32.9221 91.8175 32.4967 92.2428C32.0714 92.6681 31.4945 92.9071 30.893 92.9071Z" fill="#111111"/>
<path d="M97.749 92.9071C97.2699 92.9092 96.8025 92.7599 96.4132 92.4807C96.024 92.2015 95.7328 91.8066 95.5812 91.3522C95.4296 90.8978 95.4253 90.4071 95.5689 89.9501C95.7125 89.4931 95.9967 89.0931 96.3809 88.8071C96.4512 88.7542 96.5246 88.7058 96.601 88.6621C96.856 88.5111 97.1385 88.412 97.432 88.3705C97.7255 88.329 98.0243 88.346 98.3112 88.4203C98.5982 88.4946 98.8676 88.6249 99.104 88.8037C99.3405 88.9825 99.5393 89.2063 99.689 89.4621C99.8903 89.8094 99.9976 90.2033 100 90.6047C100.002 91.0062 99.9001 91.4014 99.703 91.7511C99.5074 92.0984 99.2239 92.388 98.8809 92.5909C98.5379 92.7939 98.1475 92.9029 97.749 92.9071Z" fill="#111111"/>
<path d="M93 84.672C92.6011 84.6726 92.209 84.5678 91.8634 84.3684C91.5179 84.1689 91.2311 83.8818 91.032 83.536L90.985 83.453C90.6971 82.9325 90.6252 82.3196 90.7849 81.7466C90.9445 81.1736 91.3229 80.6862 91.8385 80.3895C92.3541 80.0928 92.9656 80.0106 93.5413 80.1605C94.117 80.3104 94.6107 80.6805 94.916 81.191L94.964 81.273C95.1623 81.6177 95.2665 82.0085 95.2662 82.4061C95.2658 82.8038 95.1609 83.1944 94.9619 83.5387C94.763 83.883 94.477 84.169 94.1326 84.3679C93.7883 84.5668 93.3977 84.6717 93 84.672ZM88.218 76.4C87.8191 76.4006 87.427 76.2959 87.0814 76.0964C86.7359 75.8969 86.4491 75.6098 86.25 75.264L86.203 75.181C85.9151 74.6605 85.8432 74.0476 86.0029 73.4746C86.1625 72.9016 86.5409 72.4142 87.0565 72.1175C87.5721 71.8208 88.1836 71.7386 88.7593 71.8885C89.335 72.0384 89.8287 72.4085 90.134 72.919L90.182 73.001C90.3806 73.3457 90.485 73.7366 90.4847 74.1344C90.4845 74.5322 90.3796 74.923 90.1806 75.2674C89.9817 75.6119 89.6956 75.898 89.3511 76.097C89.0066 76.2959 88.6159 76.4008 88.218 76.401V76.4ZM83.439 68.122C83.0401 68.1226 82.648 68.0179 82.3024 67.8184C81.9569 67.6189 81.6701 67.3318 81.471 66.986L81.424 66.904C81.1298 66.3831 81.0533 65.7669 81.2112 65.1899C81.3691 64.6128 81.7487 64.1215 82.2672 63.823C82.7857 63.5245 83.4012 63.4429 83.9796 63.5962C84.5579 63.7494 85.0523 64.1249 85.355 64.641L85.403 64.724C85.6016 65.0687 85.706 65.4596 85.7057 65.8574C85.7055 66.2552 85.6006 66.646 85.4016 66.9904C85.2027 67.3349 84.9166 67.621 84.5721 67.82C84.2276 68.0189 83.8369 68.1238 83.439 68.124V68.122ZM78.66 59.84C78.2632 59.8401 77.8732 59.7359 77.5293 59.538C77.1853 59.34 76.8993 59.0552 76.7 58.712L76.652 58.63C76.3578 58.1105 76.2803 57.4959 76.4363 56.9196C76.5923 56.3433 76.9693 55.8518 77.4854 55.5517C78.0015 55.2515 78.6152 55.167 79.1932 55.3165C79.7713 55.466 80.2671 55.8373 80.573 56.35L80.62 56.432C80.8204 56.7766 80.9264 57.168 80.9274 57.5666C80.9283 57.9653 80.8242 58.3571 80.6254 58.7027C80.4267 59.0483 80.1403 59.3354 79.7953 59.535C79.4503 59.7347 79.0587 59.8399 78.66 59.84ZM73.881 51.563C73.4821 51.5635 73.0901 51.4586 72.7447 51.259C72.3993 51.0593 72.1127 50.772 71.914 50.426L71.866 50.344C71.5659 49.8223 71.4854 49.2028 71.6421 48.6217C71.7988 48.0406 72.1799 47.5456 72.7015 47.2455C73.2232 46.9454 73.8427 46.8649 74.4238 47.0215C75.0049 47.1782 75.4999 47.5593 75.8 48.081L75.848 48.164C76.0466 48.5087 76.151 48.8996 76.1507 49.2974C76.1505 49.6952 76.0456 50.086 75.8466 50.4304C75.6477 50.7749 75.3616 51.061 75.0171 51.26C74.6726 51.4589 74.2819 51.5638 73.884 51.564L73.881 51.563ZM69.1 43.286C68.7009 43.2866 68.3088 43.1817 67.9632 42.9821C67.6176 42.7824 67.3309 42.495 67.132 42.149L67.084 42.067C66.7834 41.5452 66.7024 40.9253 66.8588 40.3438C67.0152 39.7622 67.3962 39.2666 67.918 38.966C68.4399 38.6654 69.0597 38.5844 69.6413 38.7408C70.2228 38.8972 70.7184 39.2782 71.019 39.8L71.066 39.883C71.2646 40.2277 71.3689 40.6184 71.3687 41.0162C71.3685 41.4139 71.2637 41.8046 71.0649 42.149C70.866 42.4935 70.5801 42.7795 70.2357 42.9786C69.8914 43.1776 69.5008 43.2826 69.103 43.283L69.1 43.286ZM64.321 35.008C63.9219 35.0086 63.5298 34.9037 63.1842 34.7041C62.8386 34.5044 62.5519 34.217 62.353 33.871L62.305 33.789C62.1565 33.5308 62.0603 33.2459 62.0219 32.9506C61.9835 32.6552 62.0036 32.3552 62.0811 32.0676C62.2377 31.4868 62.6186 30.992 63.14 30.692C63.6615 30.392 64.2807 30.3115 64.8615 30.4681C65.4423 30.6247 65.9371 31.0056 66.237 31.527L66.284 31.609C66.4825 31.9537 66.5869 32.3444 66.5867 32.7422C66.5865 33.1399 66.4817 33.5306 66.2829 33.875C66.084 34.2195 65.7981 34.5055 65.4537 34.7046C65.1094 34.9036 64.7188 35.0086 64.321 35.009V35.008Z" fill="#111111"/>
<path d="M59.519 43.4C59.2094 43.4001 58.903 43.3364 58.619 43.213C58.5339 43.1767 58.4511 43.1353 58.371 43.089C58.1132 42.9424 57.8868 42.7462 57.7051 42.5118C57.5233 42.2773 57.3898 42.0093 57.3121 41.723C57.2343 41.4367 57.214 41.1379 57.2523 40.8437C57.2906 40.5496 57.3867 40.2659 57.535 40.009C57.7353 39.6621 58.0227 39.3735 58.3687 39.1718C58.7148 38.9701 59.1075 38.8623 59.508 38.859C60.0088 38.854 60.4972 39.015 60.897 39.3167C61.2967 39.6185 61.5853 40.0441 61.7178 40.5271C61.8502 41.0101 61.8191 41.5234 61.6292 41.9868C61.4393 42.4502 61.1013 42.8378 60.668 43.089C60.3191 43.2921 59.9228 43.3994 59.519 43.4Z" fill="#111111"/>
<path d="M40 77.1769C39.6019 77.1775 39.2106 77.0731 38.8656 76.8744C38.5207 76.6756 38.2341 76.3895 38.0349 76.0448C37.8357 75.7001 37.7308 75.309 37.7308 74.9109C37.7308 74.5127 37.8358 74.1216 38.035 73.7769L38.083 73.6929C38.2286 73.4298 38.4252 73.1982 38.6612 73.0117C38.8971 72.8252 39.1679 72.6875 39.4576 72.6066C39.7473 72.5258 40.0502 72.5033 40.3486 72.5406C40.6471 72.5779 40.9351 72.6742 41.196 72.8239C41.4569 72.9736 41.6854 73.1736 41.8683 73.4125C42.0511 73.6513 42.1846 73.9241 42.261 74.215C42.3374 74.5059 42.3552 74.8091 42.3133 75.107C42.2714 75.4048 42.1707 75.6914 42.017 75.9499L41.969 76.0339C41.7709 76.3813 41.4844 76.6701 41.1385 76.8708C40.7927 77.0716 40.3999 77.1772 40 77.1769ZM44.873 68.7369C44.4752 68.7366 44.0845 68.6317 43.7401 68.4327C43.3956 68.2337 43.1096 67.9477 42.9105 67.6033C42.7115 67.2589 42.6065 66.8682 42.606 66.4705C42.6056 66.0727 42.7097 65.6818 42.908 65.3369L42.956 65.2529C43.1016 64.9898 43.2982 64.7582 43.5342 64.5717C43.7701 64.3852 44.0409 64.2475 44.3306 64.1666C44.6203 64.0858 44.9232 64.0633 45.2216 64.1006C45.5201 64.1379 45.8081 64.2342 46.069 64.3839C46.3299 64.5336 46.5584 64.7336 46.7413 64.9725C46.9241 65.2113 47.0576 65.4841 47.134 65.775C47.2104 66.0659 47.2282 66.3691 47.1863 66.667C47.1444 66.9648 47.0437 67.2514 46.89 67.5099L46.842 67.5939C46.6439 67.9411 46.3575 68.2297 46.0119 68.4304C45.6663 68.6312 45.2727 68.7369 44.873 68.7369ZM49.748 60.2999C49.3498 60.2995 48.9587 60.1943 48.6141 59.9948C48.2695 59.7952 47.9835 59.5085 47.7848 59.1634C47.5861 58.8183 47.4818 58.4269 47.4824 58.0287C47.483 57.6305 47.5884 57.2395 47.788 56.8949L47.837 56.8119C48.1386 56.2917 48.6344 55.9126 49.2155 55.758C49.7966 55.6033 50.4153 55.6859 50.9355 55.9874C51.4557 56.289 51.8348 56.7849 51.9895 57.3659C52.1441 57.947 52.0615 58.5657 51.76 59.0859L51.711 59.1699C51.5118 59.514 51.2255 59.7996 50.8809 59.9979C50.5363 60.1963 50.1456 60.3004 49.748 60.2999ZM54.621 51.8589C54.2229 51.8583 53.8319 51.753 53.4874 51.5534C53.143 51.3538 52.8571 51.067 52.6585 50.722C52.46 50.3769 52.3558 49.9856 52.3564 49.5875C52.357 49.1894 52.4624 48.7984 52.662 48.4539L52.71 48.3709C53.0115 47.8507 53.5074 47.4716 54.0885 47.317C54.6696 47.1623 55.2883 47.2449 55.8085 47.5464C56.3287 47.848 56.7078 48.3439 56.8625 48.9249C57.0171 49.506 56.9346 50.1247 56.633 50.6449L56.585 50.7289C56.3848 51.072 56.098 51.3565 55.7534 51.554C55.4087 51.7514 55.0182 51.8548 54.621 51.8539V51.8589Z" fill="#111111"/>
<path d="M35.2 85.574C34.7984 85.5745 34.4037 85.47 34.0551 85.2707C33.7065 85.0714 33.4162 84.7843 33.213 84.438C33.0428 84.1465 32.9398 83.8208 32.9114 83.4844C32.883 83.1481 32.9299 82.8097 33.0488 82.4938C33.1677 82.178 33.3555 81.8926 33.5986 81.6584C33.8417 81.4243 34.134 81.2473 34.4541 81.1404C34.7742 81.0334 35.1142 80.9992 35.4492 81.0403C35.7842 81.0813 36.1058 81.1965 36.3907 81.3775C36.6756 81.5585 36.9165 81.8007 37.0959 82.0866C37.2754 82.3725 37.3888 82.6947 37.428 83.03C37.4401 83.1215 37.4461 83.2137 37.446 83.306C37.4485 83.6027 37.3923 83.8969 37.2805 84.1718C37.1688 84.4466 37.0038 84.6967 36.7951 84.9075C36.5863 85.1183 36.3379 85.2857 36.0641 85.4001C35.7904 85.5145 35.4967 85.5736 35.2 85.574Z" fill="#111111"/>
<path d="M74.188 85.5741H74.088C73.4949 85.5616 72.9302 85.3173 72.5151 84.8934C72.1001 84.4695 71.8676 83.8998 71.8676 83.3066C71.8676 82.7133 72.1001 82.1437 72.5151 81.7198C72.9302 81.2959 73.4949 81.0515 74.088 81.0391H74.188C74.4898 81.0327 74.7898 81.0867 75.0704 81.1978C75.3511 81.3089 75.6067 81.4749 75.8224 81.6861C76.0381 81.8973 76.2094 82.1494 76.3264 82.4277C76.4434 82.7059 76.5036 83.0047 76.5036 83.3066C76.5036 83.6084 76.4434 83.9072 76.3264 84.1855C76.2094 84.4637 76.0381 84.7159 75.8224 84.927C75.6067 85.1382 75.3511 85.3042 75.0704 85.4153C74.7898 85.5264 74.4898 85.5804 74.188 85.5741ZM64.441 85.5741H64.341C63.7479 85.5616 63.1832 85.3173 62.7681 84.8934C62.3531 84.4695 62.1206 83.8998 62.1206 83.3066C62.1206 82.7133 62.3531 82.1437 62.7681 81.7198C63.1832 81.2959 63.7479 81.0515 64.341 81.0391H64.441C64.7428 81.0327 65.0428 81.0867 65.3234 81.1978C65.6041 81.3089 65.8597 81.4749 66.0754 81.6861C66.2911 81.8973 66.4624 82.1494 66.5794 82.4277C66.6964 82.7059 66.7566 83.0047 66.7566 83.3066C66.7566 83.6084 66.6964 83.9072 66.5794 84.1855C66.4624 84.4637 66.2911 84.7159 66.0754 84.927C65.8597 85.1382 65.6041 85.3042 65.3234 85.4153C65.0428 85.5264 64.7428 85.5804 64.441 85.5741ZM54.694 85.5741H54.594C54.2922 85.5804 53.9922 85.5264 53.7116 85.4153C53.4309 85.3042 53.1752 85.1382 52.9596 84.927C52.7439 84.7159 52.5726 84.4637 52.4556 84.1855C52.3386 83.9072 52.2784 83.6084 52.2784 83.3066C52.2784 83.0047 52.3386 82.7059 52.4556 82.4277C52.5726 82.1494 52.7439 81.8973 52.9596 81.6861C53.1752 81.4749 53.4309 81.3089 53.7116 81.1978C53.9922 81.0867 54.2922 81.0327 54.594 81.0391H54.694C54.9958 81.0327 55.2958 81.0867 55.5764 81.1978C55.8571 81.3089 56.1127 81.4749 56.3284 81.6861C56.5441 81.8973 56.7154 82.1494 56.8324 82.4277C56.9494 82.7059 57.0096 83.0047 57.0096 83.3066C57.0096 83.6084 56.9494 83.9072 56.8324 84.1855C56.7154 84.4637 56.5441 84.7159 56.3284 84.927C56.1127 85.1382 55.8571 85.3042 55.5764 85.4153C55.2958 85.5264 54.9958 85.5804 54.694 85.5741ZM44.947 85.5741H44.847C44.5452 85.5804 44.2452 85.5264 43.9646 85.4153C43.6839 85.3042 43.4282 85.1382 43.2126 84.927C42.9969 84.7159 42.8256 84.4637 42.7086 84.1855C42.5916 83.9072 42.5314 83.6084 42.5314 83.3066C42.5314 83.0047 42.5916 82.7059 42.7086 82.4277C42.8256 82.1494 42.9969 81.8973 43.2126 81.6861C43.4282 81.4749 43.6839 81.3089 43.9646 81.1978C44.2452 81.0867 44.5452 81.0327 44.847 81.0391H44.947C45.2488 81.0327 45.5488 81.0867 45.8294 81.1978C46.1101 81.3089 46.3657 81.4749 46.5814 81.6861C46.7971 81.8973 46.9684 82.1494 47.0854 82.4277C47.2024 82.7059 47.2626 83.0047 47.2626 83.3066C47.2626 83.6084 47.2024 83.9072 47.0854 84.1855C46.9684 84.4637 46.7971 84.7159 46.5814 84.927C46.3657 85.1382 46.1101 85.3042 45.8294 85.4153C45.5488 85.5264 45.2488 85.5804 44.947 85.5741Z" fill="#111111"/>
<path d="M83.884 85.574C83.4049 85.576 82.9375 85.4268 82.5482 85.1476C82.159 84.8684 81.8678 84.4734 81.7162 84.019C81.5646 83.5646 81.5603 83.074 81.7039 82.617C81.8475 82.16 82.1317 81.76 82.516 81.474C82.5858 81.4211 82.659 81.3726 82.735 81.329C82.9901 81.1781 83.2725 81.0791 83.566 81.0377C83.8594 80.9963 84.1582 81.0132 84.4451 81.0876C84.732 81.1619 85.0015 81.2922 85.2379 81.4709C85.4743 81.6496 85.6732 81.8732 85.823 82.129C86.0249 82.4761 86.1325 82.87 86.1349 83.2716C86.1374 83.6732 86.0347 84.0684 85.837 84.418C85.6416 84.7652 85.3583 85.0549 85.0155 85.2578C84.6726 85.4608 84.2824 85.5698 83.884 85.574Z" fill="#111111"/>
<path d="M79.0379 77.1771C78.6402 77.1778 78.2492 77.0738 77.9044 76.8754C77.5596 76.6771 77.2732 76.3913 77.0739 76.0471L77.0259 75.9641C76.8766 75.7065 76.7794 75.422 76.7399 75.1268C76.7005 74.8317 76.7196 74.5317 76.7961 74.2439C76.8726 73.9561 77.0051 73.6863 77.1859 73.4497C77.3667 73.2131 77.5924 73.0144 77.8499 72.8651C78.1075 72.7157 78.392 72.6185 78.6872 72.5791C78.9823 72.5396 79.2823 72.5587 79.5701 72.6352C79.8579 72.7118 80.1277 72.8442 80.3643 73.025C80.6009 73.2058 80.7996 73.4315 80.9489 73.6891L80.9969 73.7721C81.1972 74.1164 81.3031 74.5075 81.304 74.9059C81.3049 75.3042 81.2008 75.6958 81.0021 76.0411C80.8035 76.3864 80.5173 76.6732 80.1725 76.8726C79.8276 77.0721 79.4363 77.1771 79.0379 77.1771ZM74.1639 68.7371C73.7661 68.7377 73.375 68.6336 73.0302 68.435C72.6854 68.2364 72.3991 67.9505 72.1999 67.6061L72.1509 67.5231C71.8561 67.0031 71.7785 66.3877 71.9349 65.8108C72.0913 65.2339 72.4692 64.7421 72.9863 64.4423C73.5034 64.1425 74.118 64.0589 74.6964 64.2098C75.2748 64.3607 75.7702 64.7338 76.0749 65.2481L76.1229 65.3321C76.3226 65.6766 76.428 66.0676 76.4285 66.4659C76.4291 66.8641 76.3248 67.2554 76.1261 67.6005C75.9275 67.9456 75.6415 68.2324 75.2968 68.4319C74.9522 68.6314 74.5612 68.7366 74.1629 68.7371H74.1639ZM69.2909 60.3001C68.8915 60.3005 68.499 60.1954 68.1532 59.9954C67.8075 59.7954 67.5207 59.5076 67.3219 59.1611L67.2729 59.0761C66.9846 58.5551 66.9128 57.9416 67.0729 57.3681C67.233 56.7945 67.6122 56.307 68.1287 56.0107C68.6452 55.7143 69.2575 55.633 69.8334 55.7843C70.4094 55.9355 70.9027 56.3072 71.2069 56.8191L71.2549 56.9041C71.4535 57.2488 71.5579 57.6397 71.5576 58.0375C71.5574 58.4353 71.4525 58.826 71.2535 59.1705C71.0546 59.515 70.7685 59.801 70.424 60C70.0795 60.199 69.6888 60.3038 69.2909 60.3041V60.3001ZM64.4169 51.8591C64.0175 51.8597 63.6249 51.7547 63.2791 51.5547C62.9333 51.3546 62.6465 51.0667 62.4479 50.7201L62.3999 50.6361C62.2463 50.3775 62.1455 50.091 62.1036 49.7931C62.0618 49.4953 62.0795 49.1921 62.1559 48.9011C62.2323 48.6102 62.3658 48.3374 62.5487 48.0986C62.7315 47.8597 62.96 47.6597 63.2209 47.51C63.4818 47.3603 63.7699 47.264 64.0683 47.2267C64.3668 47.1894 64.6697 47.2119 64.9594 47.2928C65.2491 47.3736 65.5198 47.5113 65.7558 47.6978C65.9918 47.8843 66.1883 48.1159 66.3339 48.3791L66.3819 48.4631C66.5812 48.8078 66.6861 49.1988 66.6861 49.597C66.6861 49.9951 66.5812 50.3862 66.382 50.7309C66.1828 51.0756 65.8963 51.3618 65.5513 51.5605C65.2063 51.7593 64.8151 51.8636 64.4169 51.8631V51.8591Z" fill="#111111"/>
<path d="M59.519 59.5071C59.2062 59.5071 58.8969 59.4417 58.611 59.3151C58.5353 59.283 58.4615 59.2466 58.39 59.2061C58.1306 59.0622 57.9022 58.8684 57.7181 58.6358C57.534 58.4032 57.3978 58.1365 57.3173 57.851C57.2367 57.5655 57.2136 57.2669 57.249 56.9724C57.2845 56.6779 57.378 56.3933 57.524 56.1351C57.7232 55.7833 58.0113 55.4901 58.3595 55.2848C58.7077 55.0794 59.1038 54.9692 59.508 54.9651C60.1103 54.9636 60.6885 55.2015 61.1154 55.6264C61.5424 56.0512 61.783 56.6283 61.7845 57.2306C61.7859 57.8329 61.5481 58.4111 61.1232 58.838C60.6983 59.265 60.1213 59.5056 59.519 59.5071Z" fill="#111111"/>
<path d="M54.2829 68.546C53.8854 68.5452 53.4951 68.4399 53.1512 68.2407C52.8072 68.0414 52.5217 67.7552 52.3232 67.4108C52.1248 67.0664 52.0204 66.6758 52.0205 66.2783C52.0206 65.8808 52.1253 65.4903 52.3239 65.146L52.3749 65.057C52.5185 64.7891 52.7145 64.5528 52.9512 64.3621C53.188 64.1714 53.4606 64.0302 53.753 63.947C54.0454 63.8638 54.3515 63.8402 54.6531 63.8776C54.9548 63.915 55.2459 64.0127 55.5091 64.1648C55.7722 64.317 56.0021 64.5205 56.1851 64.7632C56.3681 65.006 56.5004 65.283 56.5742 65.5779C56.6479 65.8728 56.6617 66.1795 56.6146 66.4798C56.5675 66.7801 56.4605 67.0679 56.2999 67.326L56.2479 67.415C56.0485 67.7595 55.7619 68.0453 55.417 68.2438C55.0721 68.4424 54.6809 68.5466 54.2829 68.546Z" fill="#111111"/>
<path d="M49.149 77.521C48.7499 77.5216 48.3574 77.4187 48.01 77.2222C47.6626 77.0257 47.3721 76.7424 47.167 76.4C46.964 76.0595 46.8539 75.6717 46.8476 75.2753C46.8413 74.8789 46.939 74.4878 47.131 74.141C47.3658 73.7194 47.7286 73.3834 48.1669 73.1815C48.6052 72.9796 49.0964 72.9224 49.5694 73.018C50.0424 73.1136 50.4727 73.3572 50.7982 73.7135C51.1237 74.0697 51.3275 74.5203 51.38 75C51.3893 75.0843 51.3939 75.1691 51.394 75.254C51.3965 75.5505 51.3404 75.8447 51.2287 76.1194C51.117 76.3941 50.9521 76.6441 50.7434 76.8548C50.5348 77.0655 50.2864 77.2329 50.0128 77.3472C49.7392 77.4615 49.4456 77.5206 49.149 77.521Z" fill="#111111"/>
<path d="M59.571 77.5211H59.471C59.1692 77.5274 58.8692 77.4735 58.5886 77.3624C58.3079 77.2513 58.0523 77.0853 57.8366 76.8741C57.6209 76.6629 57.4496 76.4108 57.3326 76.1325C57.2156 75.8543 57.1554 75.5554 57.1554 75.2536C57.1554 74.9518 57.2156 74.6529 57.3326 74.3747C57.4496 74.0964 57.6209 73.8443 57.8366 73.6331C58.0523 73.4219 58.3079 73.2559 58.5886 73.1448C58.8692 73.0337 59.1692 72.9798 59.471 72.9861H59.571C60.1641 72.9986 60.7288 73.2429 61.1439 73.6668C61.5589 74.0907 61.7914 74.6603 61.7914 75.2536C61.7914 75.8469 61.5589 76.4165 61.1439 76.8404C60.7288 77.2643 60.1641 77.5086 59.571 77.5211Z" fill="#111111"/>
<path d="M69.935 77.5209C69.4576 77.5249 68.991 77.3787 68.6013 77.1028C68.2116 76.827 67.9186 76.4355 67.7637 75.9839C67.6089 75.5322 67.6 75.0433 67.7385 74.5864C67.8769 74.1295 68.1556 73.7277 68.535 73.4379C68.7902 73.2396 69.085 73.0983 69.3994 73.0236C69.7139 72.9489 70.0407 72.9425 70.3579 73.0049C70.675 73.0672 70.9751 73.1969 71.2378 73.3851C71.5006 73.5733 71.7199 73.8157 71.881 74.0959C72.079 74.443 72.1831 74.8358 72.1831 75.2354C72.1831 75.635 72.079 76.0278 71.881 76.3749C71.6848 76.7191 71.402 77.006 71.0606 77.2071C70.7192 77.4081 70.3312 77.5163 69.935 77.5209Z" fill="#111111"/>
<path d="M64.755 68.545C64.3571 68.5457 63.9661 68.4415 63.6213 68.243C63.2765 68.0444 62.9901 67.7585 62.791 67.414L62.739 67.325C62.5897 67.0674 62.4927 66.7829 62.4534 66.4877C62.4141 66.1925 62.4334 65.8925 62.51 65.6048C62.5867 65.3171 62.7192 65.0473 62.9002 64.8108C63.0811 64.5743 63.3068 64.3758 63.5645 64.2265C63.8221 64.0773 64.1067 63.9803 64.4018 63.941C64.697 63.9017 64.997 63.9209 65.2847 63.9976C65.5724 64.0742 65.8422 64.2068 66.0787 64.3877C66.3152 64.5687 66.5137 64.7944 66.663 65.052L66.715 65.141C66.9137 65.4854 67.0183 65.876 67.0184 66.2736C67.0185 66.6712 66.914 67.0618 66.7154 67.4062C66.5169 67.7507 66.2312 68.0369 65.8871 68.2361C65.543 68.4352 65.1526 68.5404 64.755 68.541V68.545Z" fill="#111111"/>
</g>
<defs>
<clipPath id="clip0_33_311">
<rect width="100" height="100" fill="white"/>
</clipPath>
</defs>
</svg>
