<svg width="517" height="31" viewBox="0 0 517 31" fill="none" xmlns="http://www.w3.org/2000/svg">
<path d="M4.92445 0.0813584C7.82158 -0.127064 11.6192 0.0957899 14.5054 0.40167C15.4099 0.496538 14.9519 0.920604 15.5763 1.00518C16.7975 1.17007 17.9352 0.962087 19.1421 1.1585C19.542 1.22567 19.0442 1.89739 19.4635 1.95245C21.7616 2.24931 23.9357 2.07821 26.2637 2.221C37.7306 2.92548 49.0023 3.17764 60.6096 3.48369C64.4368 3.58403 69.0892 4.19364 73.0424 3.92705C73.5038 3.89533 73.2287 3.30572 73.3165 3.25713C74.6936 2.5132 74.2357 3.70348 75.1348 3.86162C78.7035 4.48603 82.6718 4.54034 86.1062 4.31279C87.5673 4.21426 86.1024 3.04316 87.5735 3.70049C87.6757 3.7449 87.305 4.37101 87.7057 4.43779C88.6144 4.58798 90.3384 4.47607 91.0426 4.52568C92.3999 4.62445 92.6245 4.61816 93.9083 4.62529C95.6632 4.64049 97.7506 4.95173 99.6336 4.80986C100.035 4.77772 99.5034 4.13588 100.144 4.02666C100.786 3.91761 102.483 3.97204 103.055 4.12334C103.628 4.27472 103.384 4.77919 103.485 4.89482C104.319 5.87079 106.282 4.51907 106.534 4.48564C111.14 3.91605 115.09 4.68608 119.413 4.68388C122.695 4.68058 126.204 4.42637 129.327 4.46123C133.048 4.50524 136.201 4.85305 139.815 4.79326C140.197 4.78769 139.75 4.03304 140.216 4.02471C145.165 3.93689 150.081 4.01915 155.009 4.52861C155.503 4.58037 154.866 5.24295 155.36 5.33427C158.383 5.87879 163.167 7.18686 164.963 4.30205C167.011 4.4147 169.497 4.53108 171.329 5.11259C172.51 5.48686 171.363 6.20867 172.814 5.90068C173.141 5.83205 172.716 5.19992 173.207 5.14482C175.273 4.91341 177.531 5.11889 179.575 4.79228C179.991 4.72436 179.877 4.15795 179.995 4.05596C180.985 3.22993 182.633 4.5954 182.993 4.69463C185.729 5.43452 187.727 5.14336 190.276 5.16142C190.867 5.16593 190.168 4.40511 190.737 4.38213C193.689 4.27309 196.748 4.33848 199.638 4.67607C200.281 4.75299 199.69 5.40107 199.997 5.47099C201.352 5.77139 201.652 4.54734 202.951 4.81181C203.225 4.866 203.071 5.4208 203.121 5.48173C203.903 6.43822 204.582 5.08294 204.783 5.05302C207.328 4.64418 208.954 6.05902 211.412 5.85868C211.706 5.83329 211.043 5.13129 211.87 5.10283C217.376 4.90904 223.2 5.10188 228.651 5.66337C229.499 5.74973 228.894 6.27707 228.947 6.34208C229.816 7.35782 230.379 5.99685 230.655 5.9456C232.835 5.57665 234.871 6.71799 236.353 5.09697C245.585 5.65951 254.775 4.74923 263.932 6.20146C264.048 6.21828 263.84 6.88856 264.072 6.91923C266.869 7.29558 266.331 6.25385 268.182 4.97978C268.648 4.65986 270.066 6.19808 270.192 6.31083C270.649 6.72633 270.175 7.72352 270.328 7.80399C271.594 8.43586 271.388 5.13807 273.097 5.13701C273.15 5.1425 272.926 5.7495 273.069 5.80986C273.515 5.99934 273.956 5.75814 274.392 5.96708C275.39 6.45057 275.746 8.05301 277.27 7.1204C277.463 6.99936 277.168 5.12872 278.694 5.21708C279.302 5.2539 281.994 5.22184 282.749 5.34306C283.502 5.46414 282.985 6.06695 283.039 6.09306C285.069 6.89017 284.299 7.22054 285.316 8.40067C286.334 9.57634 286.052 6.77225 286.466 6.45927C286.882 6.14718 288.37 6.80485 288.736 7.03348C289.102 7.26221 288.646 7.64526 288.971 7.77469C291.127 8.62036 289.917 6.38284 290.628 5.93779C292.302 4.88398 293.607 6.9635 295.14 7.16727C295.555 7.2223 295.216 6.74868 295.586 6.70438C297.049 6.53523 297.929 7.1841 299.593 6.58915C299.866 6.4922 301.211 5.24193 302.082 6.15946C302.206 6.29177 301.855 6.80998 302.479 6.92606C303.41 7.10027 305.088 7.21354 306.09 7.04032C306.829 6.91216 305.982 6.05827 306.912 6.32353C307.326 6.44197 306.559 6.9415 307.336 7.12235C308.109 7.30315 310.085 7.2812 310.837 7.26395C311.587 7.24632 311.176 6.59861 311.237 6.55497C311.604 6.30501 313.045 5.99268 313.172 5.99345C319.592 5.91438 325.513 7.00618 331.764 6.64481C332.254 6.61739 331.928 5.93436 332.002 5.92314C333.682 5.63696 332.358 7.45298 333.531 8.06083C333.361 6.67476 334.054 6.92573 335.237 6.77372C335.807 6.69934 335.496 6.16265 335.548 6.10771C336.394 5.29253 336.983 6.34544 337.134 6.56083C337.694 7.35316 338.303 6.41697 338.684 6.94657C339.065 7.47222 338.189 8.25147 339.323 8.24149C339.641 7.74532 338.799 6.44871 339.66 6.23857C342.91 5.44369 348.977 6.46101 351.59 6.56669C354.198 6.67228 355.041 6.58073 356.56 6.76005C359.305 7.08427 358.299 6.12226 360.004 5.68193C361.713 5.24164 360.882 7.60863 361.128 8.11747C361.369 8.62607 361.633 8.10252 361.933 8.38211C362.232 8.66165 361.584 9.00762 362.288 9.11258C362.991 9.21744 364.916 8.3126 365.165 7.78055C365.692 6.65337 364.825 5.47035 366.688 5.88603C366.795 5.9107 366.447 6.53308 366.857 6.59599C370.115 7.07513 373.498 7.10483 376.752 7.5286C377.199 7.58784 376.799 8.28023 377.059 8.32254C379.771 8.76541 378.802 7.59796 380.288 6.30107C379.954 8.02695 380.776 9.08286 382.834 9.09305C384.071 9.09978 383.858 8.346 384.658 7.81473C384.898 7.65458 385.774 8.17215 385.932 7.81766C386.455 6.65888 385.631 5.36169 387.753 5.87822C387.846 5.90276 387.549 6.53706 387.871 6.57548C389.95 6.82692 390.199 5.61485 392.446 5.46806C394.208 5.35288 397.341 6.09199 399.347 6.2122C399.305 8.1526 401.2 7.70827 401.968 6.3704C403.27 6.42517 404.676 6.34954 405.934 6.53446C406.367 6.59751 406.083 7.15931 406.138 7.22001C406.975 8.17225 407.541 6.87065 407.822 6.81962C410.867 6.32359 413.348 7.31009 416.255 6.34599C416.358 6.31126 416.525 4.9634 417.302 5.94755C417.352 6.01539 416.392 6.62864 417.76 6.67606C419.127 6.72359 421.705 7.44614 423.603 6.82157C424.063 6.67121 425.225 5.57702 426.157 6.43192C426.282 6.54801 426.146 6.93458 426.325 7.1497C426.905 7.83513 427.221 6.47278 427.903 7.63016C428.584 8.7875 430.002 9.65426 431.916 8.85574C431.977 8.83253 432.43 7.75274 433.032 7.76981C433.994 7.79799 435.358 8.02294 436.362 8.0159C436.842 8.01215 436.534 7.34165 436.618 7.32938C439.849 6.95366 442.148 7.5514 445.609 7.81083C446.244 7.85971 448.067 6.94538 449.295 7.66825C450.644 8.45956 449.258 11.7513 452.358 10.9671C453.608 10.6534 455.191 6.47722 457.438 8.6409C461.796 8.10476 465.827 9.21212 470.197 8.44657C470.393 8.41265 471.015 7.24711 471.477 7.26298C472.162 7.28878 472.539 7.83353 473.029 7.86942C475.081 8.03351 476.959 7.56743 478.937 7.63993C479.689 7.66627 479.426 8.22954 480.322 8.26102C481.217 8.29198 481.814 7.55026 483.028 7.90848C483.944 8.18153 484.86 9.69758 486.077 9.8743C486.123 8.37888 486.958 8.40968 488.443 8.01493C488.729 7.93834 488.423 7.41785 488.558 7.35477C489.107 7.08651 489.616 7.51788 490.138 7.22587C490.265 7.15573 490.27 6.64504 490.374 6.55888C491.257 5.80678 492.71 6.95554 492.96 7.15555C493.917 7.91517 494.364 7.25095 495.098 7.55008C495.83 7.84918 494.735 8.22307 495.591 8.40457C497.365 8.77999 499.644 8.69751 501.446 8.72098C502.165 8.72719 501.675 8.04549 501.777 8.03055C503.264 7.85765 504.767 8.58279 505.592 7.22489C506.622 10.7359 506.488 6.88434 508.613 7.58719C508.781 7.64404 508.993 9.30437 508.351 9.54813C507.708 9.79165 506.734 9.27265 505.842 9.65262C505.631 9.74179 504.422 11.2976 504.257 11.3919C502.964 12.1284 502.781 9.64729 502.712 9.51102C501.937 8.04037 500.459 9.71649 500.07 9.8323C498.289 10.363 496.776 10.0141 495.287 10.3928C494.313 10.6377 494.218 12.2629 493.453 12.2132C490.91 12.0487 490.023 9.78151 487.627 11.7473C487.113 12.1666 487.624 13.9429 485.783 12.5462C485.667 12.4581 484.301 11.1803 483.511 11.9885C483.412 12.0905 483.415 12.6081 483.284 12.6516C482.408 12.9329 481.823 12.5205 480.868 12.718C479.913 12.9156 478.765 13.21 477.675 13.0344C477.018 12.9294 476.175 11.9649 475.861 11.7288C474.973 11.0485 474.021 12.1639 473.47 11.3401C472.916 10.5122 474 9.25493 472.546 8.72C472.492 10.065 472.368 11.4455 472.281 12.7981C469.093 12.7508 465.956 12.3158 462.757 12.3753C462.361 12.384 462.766 13.107 462.341 13.135C460.548 13.2499 458.981 12.7344 457.121 12.9397C455.681 13.1014 454.102 13.867 452.597 14.0598C451.677 12.5208 449.443 13.0433 447.82 12.9026C447.251 12.854 447.289 12.443 446.885 12.3089C445.36 11.8129 446.075 13.1729 445.656 13.387C443.862 14.3004 443.709 11.2221 441.594 11.2981C441.482 11.3011 440.112 12.942 439.923 13.0442C438.725 13.7105 439.725 12.4731 438.975 12.3518C437.605 12.1303 436.653 11.7384 435.046 12.219C434.577 12.3614 433.453 13.3841 432.543 12.593C432.424 12.4894 432.49 11.9471 432.393 11.9153C430.649 11.3858 430.603 13.0901 429.607 13.6673C428.61 14.2443 427.07 13.0679 426.757 12.7288C425.937 11.8516 427.385 12.3539 427.429 12.2678C427.951 11.2435 426.828 11.4198 425.97 11.3333C425.846 9.66225 424.646 9.76255 425.081 11.2503C425.13 11.4128 425.798 11.2569 425.97 11.3333C425.217 12.9728 423.898 13.1827 422.442 11.6507C421.76 10.9326 422.404 10.0954 420.333 10.4016C419.393 10.5399 419.757 11.6905 418.927 12.0042C417.032 12.7199 414.57 11.6466 412.616 11.8157C411.907 11.8771 412.598 12.5069 412.113 12.5706C410.827 12.7415 409.693 12.2689 408.402 12.511C408.285 12.5337 408.57 13.193 408.169 13.2014C405.124 13.278 402.473 12.8557 399.294 12.844C397.758 12.8387 395.012 13.2023 393.421 13.1292C390.663 13.0064 387.27 12.0476 384.915 12.2805C383.378 12.4296 383.715 13.0891 383.057 13.5383C381.786 14.4093 379.538 12.8492 379.235 12.6077C379.225 12.5997 380.548 12.4442 379.842 12.1057C379.432 11.4004 379.25 12.6046 379.235 12.6077C379.036 12.4516 376.395 12.3019 375.87 12.428C375.585 12.4969 375.745 13.1217 375.596 13.1458C372.064 13.7049 368.526 13.8637 364.944 13.5715C364.881 13.5589 364.976 12.8601 364.828 12.8391C362.754 12.5284 361.426 13.3833 359.716 13.8909C358.006 14.3982 356.65 14.2283 355.637 13.0286C354.347 13.1796 352.496 12.6492 351.431 12.3274C350.365 12.0056 350.217 13.3659 350.123 13.3928C347.2 14.2536 345.51 13.475 342.477 13.3538C341.035 13.2938 338.175 13.4912 336.613 13.6399C335.38 13.7597 334.636 13.4409 333.499 13.6448C333.345 13.672 333.501 14.2777 333.454 14.301C332.185 15.0257 332.795 13.545 332.533 13.2805C331.583 12.3188 330.996 11.8066 329.371 12.2591C328.997 12.3627 327.905 14.4947 327.222 14.6194C326.333 14.7776 326.669 14.0134 325.739 14.1985C325.659 14.2136 325.676 14.6851 325.102 14.6643C322.437 14.574 319.532 14.2997 316.763 14.3469C316.385 14.3516 316.87 15.0994 316.323 15.1184C313.759 15.2071 310.948 15.1794 308.45 14.8294C307.836 14.7408 308.221 14.2172 308.087 14.0618C307.268 13.1211 306.106 14.4879 305.914 14.5139C301.34 15.1707 297.84 13.9338 293.178 14.5227C292.924 14.5573 290.97 16.0225 290.099 14.7659C290.039 14.6823 289.177 13.3966 288.415 14.2756C288.367 14.3306 288.905 14.9925 287.967 14.9251C287.03 14.8577 285.521 15.2997 284.232 14.5725C283.824 14.3434 282.859 13.0609 281.642 14.0833C281.563 14.1546 279.684 16.4662 279.013 14.8714C278.905 14.6088 279.018 12.9211 277.566 13.7864C277.288 13.9542 277.792 14.3306 277.061 14.5657C275.941 14.928 274.456 14.4759 273.079 15.2278C272.839 15.3609 271.816 16.5064 270.996 15.637C270.868 15.5008 271.112 14.9373 270.679 14.8743C268.619 14.5718 266.463 14.9487 264.372 14.5589C263.631 14.4219 264.01 13.511 263.238 13.2669C262.465 13.0228 260.91 12.7881 260.102 13.2044C259.294 13.6208 260.176 15.0726 258.966 15.1887C253.703 15.6933 248.489 14.8416 243.234 14.7171C242.454 14.6984 243.1 15.2179 241.952 15.2278C237.717 15.2664 230.405 15.7535 226.73 14.6497C223.786 13.7656 227.491 13.0925 225.241 12.7327C224.155 12.5611 222.981 14.2489 222.719 14.302C220.158 14.8418 218.379 14.0941 216.074 14.3235C215.598 14.3711 216.065 15.0552 215.66 15.0881C214.277 15.2068 212.823 14.9014 211.501 14.9573C210.908 14.9839 211.017 15.5064 210.471 15.4661C209.166 15.3756 208.011 15.156 206.738 14.6663C206.622 14.6216 207.404 13.9717 206.438 13.9475C204.875 13.9102 202.934 13.4272 201.135 13.926C200.601 14.0761 200.58 15.2702 199.433 14.4456C199.192 14.2733 199.499 12.8394 198.163 14.0784C197.938 14.2843 195.693 15.9554 194.591 14.8782C194.3 14.5947 193.559 13.4213 192.917 13.6057C192.83 13.6352 193.178 14.2766 192.647 14.3391C190.772 14.5485 188.808 14.48 186.882 14.6809C186.368 14.7358 187.133 15.3996 186.367 15.4602C184.259 15.628 181.628 15.459 179.567 15.2512C178.807 15.1734 179.332 14.6236 179.277 14.5637C178.388 13.5905 177.862 14.9041 177.567 14.9807C175.732 15.4394 174.334 14.8223 172.643 14.9856C172.176 15.029 172.507 15.6553 172.414 15.7112C171.45 16.2569 172.168 15.1321 171.558 15.0081C169.849 14.657 167.943 14.7073 166.215 14.7874C165.58 14.8177 166.294 15.5439 165.724 15.5628C162.352 15.6879 158.846 15.6184 155.555 15.218C154.936 15.1413 155.326 14.5821 155.196 14.4544C154.306 13.5607 153.002 14.7797 152.702 14.8958C151.337 15.4259 150.807 14.9314 149.601 15.0237C143.713 15.4833 136.443 15.1557 130.885 14.9534C123.642 14.693 118.022 14.1609 111.116 14.2991C110.677 14.3072 111.119 15.0511 110.741 15.0676C105.856 15.247 101.046 14.9563 96.1506 15.1712C95.749 15.1875 96.328 15.8927 95.6832 15.9426C94.3607 16.0499 92.6855 16.0116 91.3483 15.7864C90.6962 15.6779 91.5709 15.0727 90.9145 14.9758C89.3859 14.7489 87.7473 14.6987 86.1772 14.8118C85.509 14.8614 86.5172 15.5828 85.6487 15.5911C79.7327 15.6626 73.9225 15.7869 67.9442 14.8528C67.5344 14.7886 67.1747 13.3226 66.3033 13.6038C66.2377 14.0106 66.2413 14.4892 66.2126 14.9241C57.6004 15.1583 49.0762 14.6501 40.4399 14.5715C40.0757 14.5684 40.705 15.3452 40.0001 15.343C35.9199 15.3315 31.9578 15.5467 27.7843 14.7747C27.3702 14.6992 27.5826 13.3327 26.3623 13.5393C26.1471 13.577 24.3091 13.7593 23.8339 14.0559C23.7694 14.1007 24.1047 14.7385 23.5125 14.7571C20.0707 14.854 16.464 14.7083 13.0282 14.3186C12.4737 14.2545 13.0642 13.5753 12.6693 13.5237C9.86775 13.1631 6.82047 13.6795 4.14346 13.0628C2.35157 12.6475 3.01498 11.4734 2.06279 10.3177C1.92811 10.1546 0.818514 10.1288 0.761133 9.45633C0.61382 7.76545 1.15127 5.91394 0.930743 4.11162C0.884151 3.72341 -0.601884 4.14154 0.277944 3.20342C0.339409 3.14063 1.41679 2.82928 1.68215 2.51104C1.8669 2.29101 1.53397 1.60715 1.91093 1.3255C2.28785 1.0441 2.70204 1.61735 3.32697 1.28643C3.95162 0.951418 3.67696 0.17345 4.92445 0.0813584ZM346.634 10.8889C345.648 10.2356 345.502 12.6284 346.569 12.0559C346.621 12.0254 346.685 10.921 346.634 10.8889ZM465.974 10.511C464.685 9.45564 463.802 11.0075 464.712 11.8225C465.622 12.6367 466.367 10.8309 465.974 10.511ZM479.346 9.74051C477.839 8.90839 477.601 12.3014 479.215 11.6155C479.309 11.5767 479.434 9.78882 479.346 9.74051ZM6.47855 9.98855C6.46493 9.95678 5.66731 9.92581 5.64825 9.9573C5.22353 10.7172 6.81845 10.7786 6.47855 9.98855ZM492.615 8.90164C492.144 8.44266 490.79 8.9725 491.374 9.54324C491.845 10.0024 493.2 9.47259 492.615 8.90164ZM295.181 8.33524C295.166 8.29958 294.594 8.26748 294.605 8.46903C294.644 9.11818 295.44 8.93497 295.181 8.33524ZM515.167 8.86258C511.835 8.73486 509.815 5.93206 513.443 6.24833C514.1 6.30555 512.027 7.14212 512.863 7.39481C514.394 7.85517 515.41 6.09535 516.971 7.03837C517.254 7.21097 515.357 8.87609 515.161 8.86649C515.163 8.86518 515.165 8.86388 515.167 8.86258ZM346.066 8.01493C346.047 7.98329 345.255 7.95329 345.236 7.98465C344.807 8.74429 346.402 8.80517 346.066 8.01493ZM261.814 6.85575C261.77 6.78833 259.933 6.72527 259.873 6.78739C258.915 8.02959 262.629 8.16076 261.814 6.85575ZM399.379 6.26396C400.242 5.49976 401.276 5.40978 401.964 6.36942C401.106 6.31848 400.242 6.31098 399.379 6.26396Z" fill="#FF4900"/>
<path d="M476.556 30.0261C474.199 30.2338 471.068 30.0093 468.691 29.7018C467.954 29.6065 468.329 29.1827 467.811 29.0977C466.742 28.9321 465.91 29.1395 464.872 28.9423C464.533 28.8748 464.956 28.2034 464.6 28.1481C462.749 27.8498 460.948 28.0193 459.018 27.8747C449.558 27.1612 440.363 26.897 430.795 26.5756C427.659 26.4703 423.807 25.8541 420.584 26.1148C420.206 26.1458 420.43 26.7358 420.358 26.7843C419.225 27.5262 419.603 26.3366 418.86 26.177C415.929 25.5472 412.64 25.4865 409.849 25.7084C408.645 25.8045 409.851 26.978 408.637 26.3182C408.553 26.2736 408.861 25.6481 408.53 25.5807C407.77 25.4289 406.36 25.5379 405.788 25.4871C404.679 25.386 404.494 25.3919 403.434 25.3825C401.965 25.3641 400.286 25.0492 398.732 25.1875C398.401 25.2189 398.838 25.8618 398.31 25.9698C397.785 26.0777 396.363 26.02 395.904 25.8676C395.439 25.7152 395.638 25.2112 395.556 25.0954C394.882 24.1178 393.27 25.4658 393.06 25.4987C389.243 26.0593 386.011 25.2813 382.476 25.2745C379.774 25.2709 376.897 25.5176 374.326 25.4758C371.389 25.4261 368.975 25.1044 366.151 25.1149C365.995 25.1155 365.839 25.117 365.683 25.1196C365.364 25.124 365.735 25.88 365.346 25.8869C361.26 25.9591 357.19 25.8292 353.14 25.2308C352.737 25.1702 353.274 24.5193 352.869 24.4189C350.381 23.8219 346.491 22.3945 344.915 25.225C343.232 25.0552 341.186 24.8618 339.703 24.2216C338.747 23.8094 339.719 23.1255 338.513 23.3859C338.24 23.4437 338.566 24.0893 338.159 24.1282C336.455 24.2917 334.607 24.0101 332.917 24.2683C332.57 24.3222 332.64 24.8919 332.54 24.9899C331.709 25.7828 330.392 24.3634 330.113 24.2531C327.886 23.4241 326.262 23.6532 324.161 23.5586C323.681 23.5367 324.221 24.3176 323.758 24.3238C321.328 24.3453 318.836 24.197 316.482 23.7879C315.958 23.6951 316.462 23.062 316.212 22.9845C315.096 22.6505 314.826 23.8672 313.773 23.5727C313.55 23.5122 313.692 22.9612 313.653 22.8991C313.04 21.925 312.418 23.2639 312.267 23.2898C310.19 23.6429 308.904 22.1955 306.849 22.348C306.609 22.3679 307.127 23.082 306.463 23.0952C302.257 23.1794 297.833 22.9427 293.621 22.4033C293.321 22.3638 293.019 22.3226 292.717 22.2797C292.029 22.1835 292.529 21.6633 292.486 21.5976C291.792 20.5719 291.304 21.9265 291.074 21.9746C289.277 22.3195 287.616 21.159 286.384 22.7667C278.819 22.1225 271.271 22.9874 263.739 21.5017C263.642 21.4844 263.818 20.8149 263.625 20.7834C261.342 20.3973 261.776 21.441 260.247 22.709C259.86 23.0274 258.698 21.4849 258.599 21.3719C258.227 20.955 258.618 19.9592 258.493 19.8783C257.458 19.2428 257.617 22.5411 256.211 22.5375C256.167 22.5318 256.354 21.9254 256.236 21.8647C255.869 21.674 255.504 21.914 255.144 21.704C254.324 21.2179 254.044 19.6146 252.789 20.5435C252.63 20.6641 252.868 22.5354 251.612 22.4435C251.105 22.4052 248.903 22.4316 248.282 22.3089C247.662 22.1863 248.089 21.5845 248.045 21.5583C246.376 20.7572 247.01 20.4283 246.173 19.2463C245.342 18.0687 245.567 20.8733 245.227 21.1856C244.886 21.4969 243.665 20.8366 243.364 20.6074C243.064 20.378 243.44 19.9958 243.173 19.8658C241.399 19.0165 242.391 21.2561 241.805 21.7C240.428 22.7511 239.363 20.6696 238.101 20.4636C237.759 20.408 238.037 20.8821 237.733 20.9259C236.527 21.093 235.81 20.4429 234.44 21.0357C234.216 21.1323 233.108 22.3808 232.393 21.4622C232.292 21.3297 232.58 20.8119 232.068 20.6951C231.304 20.5197 229.925 20.4045 229.101 20.5765C228.493 20.7038 229.189 21.5587 228.424 21.2923C228.085 21.1734 228.715 20.6748 228.077 20.493C227.442 20.3113 225.817 20.331 225.2 20.3474C224.583 20.3642 224.92 21.0124 224.87 21.056C224.568 21.3055 223.385 21.6163 223.28 21.6153C218.004 21.6873 213.135 20.589 207.997 20.9418C207.594 20.9685 207.861 21.652 207.8 21.6631C206.419 21.9469 207.51 20.1328 206.548 19.5233C206.684 20.9096 206.12 20.6576 205.148 20.8079C204.676 20.8814 204.932 21.4186 204.889 21.4734C204.189 22.2873 203.707 21.2335 203.582 21.0178C203.123 20.2246 202.621 21.1598 202.31 20.6296C201.999 20.1033 202.718 19.3255 201.789 19.3336C201.528 19.8292 202.214 21.1273 201.51 21.3359C198.826 22.1255 193.846 21.0957 191.703 20.9832C189.542 20.8709 188.882 20.9601 187.618 20.7763C185.352 20.4437 186.179 21.4088 184.784 21.8436C183.389 22.2781 184.07 19.9139 183.872 19.4043C183.674 18.8948 183.453 19.4174 183.206 19.1367C182.96 18.8561 183.497 18.5125 182.916 18.405C182.332 18.2977 180.757 19.1951 180.554 19.7261C180.116 20.8511 180.832 22.0378 179.285 21.6143C179.197 21.5892 179.488 20.9683 179.149 20.9036C176.473 20.4106 173.714 20.3641 171.016 19.92C170.649 19.858 170.983 19.1681 170.769 19.1242C168.563 18.6641 169.349 19.8376 168.101 21.1241C168.397 19.4006 167.706 18.3392 166.044 18.3133C165.034 18.2968 165.185 19.052 164.52 19.5765C164.318 19.7347 163.606 19.2095 163.474 19.5625C163.083 20.5969 163.563 21.7524 162.441 21.5949C162.305 21.5766 162.146 21.5407 161.962 21.485C161.884 21.4595 162.14 20.8282 161.871 20.7866C160.129 20.5144 159.989 21.7249 158.086 21.8464C156.649 21.9424 154.106 21.1654 152.422 21.0163C152.481 19.0767 150.956 19.4949 150.271 20.8201C149.206 20.7457 148.038 20.7984 147.016 20.5918C146.668 20.5214 146.909 19.9646 146.866 19.903C146.223 18.9369 145.691 20.2269 145.466 20.2729C142.95 20.7119 140.951 19.6733 138.528 20.564C138.441 20.596 138.251 21.9389 137.644 20.9349C137.606 20.8658 138.408 20.278 137.296 20.1948C136.159 20.1109 134.082 19.3142 132.497 19.8735C132.1 20.0079 131.107 21.0612 130.374 20.1721C130.278 20.0516 130.406 19.6704 130.271 19.4489C129.831 18.7427 129.491 20.0907 128.999 18.9085C128.48 17.7249 127.386 16.8035 125.77 17.5165C125.718 17.537 125.283 18.5951 124.796 18.5515C124.003 18.4802 122.903 18.1941 122.078 18.1565C121.684 18.139 121.9 18.8222 121.831 18.8307C119.161 19.0641 117.319 18.3749 114.486 18.0168C114.335 17.9973 114.096 18.0578 113.802 18.1342C113.126 18.319 112.159 18.5982 111.452 18.069C110.374 17.251 111.584 13.9848 109.009 14.7122C107.973 15.0042 106.588 19.1542 104.783 16.9624C101.193 17.4438 97.8972 16.3038 94.2892 17.0424C94.1291 17.0751 93.6134 18.2369 93.233 18.2185C92.6672 18.1888 92.3606 17.6421 91.9612 17.6037C90.2669 17.429 88.7342 17.8872 87.1029 17.8076C86.4843 17.7786 86.7061 17.2162 85.9701 17.1817C85.2322 17.1479 84.7404 17.8877 83.7448 17.5262C82.9863 17.2506 82.2486 15.7322 81.2427 15.5528C81.1968 17.0481 80.5195 17.0154 79.2932 17.4074C79.0574 17.4835 79.3089 18.0045 79.1973 18.0673C78.7443 18.3346 78.3311 17.9024 77.9009 18.1935C77.7964 18.2635 77.7905 18.7741 77.705 18.8601C76.9733 19.6108 75.789 18.4601 75.5815 18.2598C74.7922 17.499 74.4293 18.1627 73.8257 17.8628C73.2234 17.563 74.1252 17.1902 73.421 17.0078C71.963 16.6306 70.0921 16.7115 68.6079 16.6871C68.0186 16.6806 68.4203 17.3625 68.3359 17.3774C67.1158 17.5496 65.8793 16.824 65.2018 18.1816C64.354 14.6704 64.4658 18.5219 62.7186 17.8187C62.5809 17.7619 62.406 16.1015 62.9348 15.8578C63.4645 15.6144 64.2606 16.1336 64.9965 15.7538C65.1706 15.6647 66.1648 14.1092 66.2999 14.0151C67.363 13.2789 67.5134 15.7602 67.5692 15.8965C68.205 17.3675 69.4213 15.6921 69.7416 15.5766C71.2018 15.047 72.4464 15.3971 73.6735 15.0198C74.4754 14.776 74.5524 13.1509 75.1827 13.2016C77.2759 13.3692 77.9969 15.6378 79.9747 13.6766C80.3988 13.2583 79.9807 11.4808 81.4927 12.8816C81.5901 12.9699 82.7056 14.2509 83.3597 13.4448C83.4419 13.3432 83.441 12.8255 83.5491 12.7823C84.2758 12.5034 84.7431 12.9175 85.5376 12.723C86.3256 12.5285 87.2698 12.238 88.1676 12.4178C88.7037 12.5254 89.3975 13.4934 89.6549 13.731C90.3804 14.415 91.1708 13.3043 91.62 14.1308C92.0702 14.9615 91.1745 16.2132 92.3615 16.7556C92.4144 15.4109 92.5229 14.0311 92.6045 12.679C95.2317 12.7436 97.8152 13.2 100.453 13.1703C100.779 13.1653 100.454 12.4385 100.804 12.4145C102.289 12.317 103.569 12.8493 105.113 12.6682C106.292 12.525 107.634 11.783 108.873 11.6159C109.615 13.1702 111.469 12.6897 112.813 12.87C113.293 12.9326 113.247 13.3425 113.578 13.4868C113.726 13.5506 113.847 13.5873 113.948 13.6019C114.718 13.7115 114.322 12.6207 114.638 12.4426C116.168 11.5826 116.182 14.6628 117.934 14.6627C118.02 14.6631 119.24 13.0771 119.4 12.983C120.432 12.3666 119.539 13.5615 120.153 13.7136C121.278 13.9924 122.04 14.4262 123.386 14.0185C123.778 13.8973 124.759 12.927 125.455 13.7569C125.547 13.8656 125.463 14.4043 125.541 14.4402C126.936 15.0453 127.062 13.3447 127.903 12.8098C128.738 12.2748 129.926 13.5089 130.173 13.8595C130.81 14.7669 129.636 14.21 129.602 14.2942C129.126 15.2971 130.066 15.1656 130.747 15.2826C130.768 16.9565 131.771 16.8998 131.475 15.3978C131.439 15.2337 130.881 15.3651 130.747 15.2826C131.436 13.6724 132.527 13.5097 133.635 15.0862C134.17 15.8252 133.606 16.643 135.312 16.3991C136.095 16.2887 135.822 15.1277 136.512 14.8376C138.074 14.1752 140.079 15.3091 141.659 15.1818C142.246 15.136 141.691 14.4912 142.095 14.4382C143.141 14.2947 144.088 14.7905 145.122 14.5722C145.218 14.5516 145.001 13.8872 145.327 13.8862C147.821 13.8662 149.987 14.3305 152.578 14.3862C153.867 14.4136 156.107 14.0842 157.395 14.175C159.01 14.2849 160.829 14.8168 162.516 15.0403C163.167 15.1311 163.792 15.1704 164.355 15.1088C165.624 14.9727 165.366 14.3105 165.907 13.8665C166.927 13.0056 168.777 14.5816 169.033 14.8251C169.039 14.8332 167.938 14.9793 168.522 15.3228C168.857 16.031 169.02 14.8281 169.033 14.8251C169.197 14.9827 171.335 15.1492 171.78 15.0261C172.017 14.9589 171.889 14.3332 172.013 14.31C174.907 13.7716 177.805 13.6296 180.761 13.936C180.812 13.9489 180.732 14.6474 180.852 14.6689C182.53 14.9877 183.667 14.1376 185.052 13.6356C186.446 13.1339 187.572 13.3079 188.404 14.5105C189.451 14.3631 190.97 14.8984 191.852 15.2229C192.738 15.5474 192.851 14.1873 192.93 14.1606C195.317 13.3067 196.726 14.0889 199.206 14.2157C200.399 14.2784 202.737 14.0859 204.025 13.9396C205.042 13.8217 205.654 14.1416 206.584 13.9394C206.71 13.9124 206.584 13.3064 206.622 13.2832C207.664 12.5603 207.162 14.0402 207.376 14.305C208.154 15.268 208.637 15.781 209.977 15.3308C210.284 15.2277 211.182 13.097 211.743 12.9732C212.473 12.8161 212.196 13.5799 212.961 13.3959C213.027 13.3809 213.014 12.9094 213.487 12.9309C215.676 13.0244 218.066 13.302 220.338 13.2579C220.649 13.2536 220.252 12.5053 220.701 12.4869C222.809 12.4011 225.118 12.4319 227.172 12.7847C227.677 12.874 227.359 13.3971 227.469 13.5527C228.141 14.4943 229.098 13.1289 229.256 13.1031C233.017 12.4517 235.888 13.693 239.728 13.1111C239.938 13.0769 241.538 11.6147 242.258 12.8727C242.307 12.9564 243.015 14.2435 243.644 13.3658C243.683 13.3109 243.242 12.6481 244.013 12.7172C244.786 12.7861 246.017 12.3468 247.083 13.0765C247.419 13.3064 248.211 14.5907 249.212 13.571C249.278 13.4997 250.82 11.1921 251.375 12.7886C251.463 13.0513 251.366 14.7388 252.565 13.8769C252.794 13.7097 252.38 13.3321 252.982 13.0988C253.905 12.7391 255.114 13.1949 256.259 12.4468C256.458 12.3143 257.304 11.1716 257.973 12.0434C258.078 12.18 257.876 12.7427 258.231 12.807C259.908 13.1154 261.716 12.7456 263.413 13.1428C264.021 13.2824 263.707 14.1919 264.345 14.4389C264.984 14.6857 266.263 14.9265 266.924 14.5135C267.587 14.1004 266.871 12.645 267.863 12.5339C272.205 12.0517 276.502 12.9308 280.824 13.0924C281.469 13.1166 280.941 12.5924 281.886 12.5909C285.137 12.5827 290.61 12.2185 293.762 13.1046C293.998 13.169 294.221 13.24 294.429 13.3181C296.862 14.2406 293.779 14.865 295.635 15.2543C296.528 15.4403 297.488 13.7687 297.726 13.7197C299.873 13.2172 301.309 13.9923 303.212 13.8018C303.599 13.7622 303.234 13.0704 303.564 13.0443C304.702 12.9492 305.927 13.2815 306.986 13.2501C307.483 13.235 307.406 12.7106 307.861 12.7617C308.956 12.8781 309.855 13.1201 310.925 13.6376C311.02 13.6847 310.353 14.3176 311.155 14.3626C312.426 14.4329 314.046 14.9607 315.517 14.505C315.969 14.3682 316.027 13.1751 316.948 14.028C317.139 14.2063 316.846 15.6315 317.972 14.4271C318.183 14.2274 320.064 12.6156 320.955 13.7237C321.188 14.0152 321.762 15.2087 322.289 15.0425C322.361 15.0156 322.1 14.3647 322.534 14.3172C324.106 14.1625 325.716 14.29 327.304 14.1496C327.734 14.1111 327.122 13.4234 327.762 13.3872C329.486 13.2854 331.676 13.5422 333.348 13.8183C333.973 13.9216 333.517 14.4533 333.56 14.5149C334.254 15.5172 334.732 14.222 334.978 14.1554C336.51 13.7588 337.625 14.4218 339.015 14.3137C339.399 14.2856 339.153 13.6489 339.231 13.5962C340.041 13.0821 339.41 14.1828 339.903 14.3264C341.286 14.7321 342.842 14.7407 344.253 14.7104C344.77 14.6982 344.216 13.9521 344.679 13.9495C347.426 13.9205 350.266 14.0738 352.929 14.5341C353.437 14.6221 353.104 15.1741 353.207 15.3041C353.897 16.2135 354.997 15.0159 355.242 14.9042C356.34 14.3943 356.795 14.8963 357.757 14.8185C360.366 14.6072 363.302 14.6156 366.18 14.6926C368.636 14.7575 370.984 14.8823 373.065 14.9802C379.033 15.2568 383.62 15.8006 389.313 15.6763C389.671 15.6691 389.312 14.9243 389.62 14.9085C393.645 14.7389 397.61 15.0387 401.601 14.8326C401.928 14.817 401.454 14.1107 401.986 14.0619C403.088 13.9571 404.471 13.9984 405.562 14.2259C406.094 14.3355 405.379 14.9392 405.915 15.0372C407.144 15.2667 408.524 15.3197 409.812 15.2093C410.361 15.1608 409.535 14.4378 410.247 14.4309C415.101 14.3691 419.876 14.2539 424.794 15.1965C425.13 15.2612 425.424 16.7277 426.134 16.4478C426.188 16.041 426.186 15.5625 426.21 15.1276C433.256 14.9054 440.315 15.4241 447.387 15.5114C447.681 15.5149 447.173 14.7375 447.743 14.7404C451.139 14.756 454.309 14.5444 457.786 15.3198C458.127 15.3957 457.927 16.762 458.945 16.5563C459.133 16.5188 460.653 16.3379 461.028 16.0416C461.08 15.9969 460.812 15.3589 461.287 15.3407C464.144 15.2463 467.09 15.3942 469.909 15.7856C470.375 15.8501 469.879 16.529 470.209 16.5808C472.497 16.9427 474.994 16.4276 477.215 17.0449C478.617 17.4606 478.187 18.6346 478.91 19.7904C478.938 19.872 479.246 19.9193 479.485 20.0302C479.608 20.0857 479.713 20.157 479.796 20.2566C479.911 20.3561 479.981 20.4838 479.994 20.6519C480.134 22.3428 479.621 24.1943 479.835 25.9966C479.943 26.3849 481.044 25.9668 480.381 26.9049C480.299 26.9362 480.176 27.0298 479.861 27.1552C479.608 27.2807 479.358 27.438 479.231 27.5971C479.064 27.8171 479.37 28.501 479.021 28.7826C478.753 29.064 478.39 28.4907 477.868 28.8214C477.382 29.1563 477.598 29.9344 476.556 30.0261ZM195.787 16.6723C196.601 17.3277 196.727 14.9353 195.843 15.5055C195.801 15.5359 195.745 16.6402 195.787 16.6723ZM97.7794 15.007C98.84 16.0725 99.5722 14.5285 98.8359 13.7058C98.0935 12.884 97.4595 14.6841 97.7794 15.007ZM86.7761 15.7056C88.0147 16.5431 88.2278 13.151 86.8904 13.831C86.8136 13.8695 86.7043 15.6569 86.7761 15.7056ZM475.269 20.1185C475.287 20.1502 475.97 20.1815 475.98 20.15C476.342 19.3902 474.982 19.3283 475.269 20.1185ZM75.8682 16.5141C76.2552 16.9737 77.3642 16.4458 76.887 15.8743C76.5035 15.4144 75.3872 15.9424 75.8682 16.5141ZM238.069 19.2956C238.081 19.3313 238.552 19.3642 238.543 19.1626C238.512 18.5134 237.857 18.6955 238.069 19.2956ZM57.3332 16.5429C60.0726 16.6707 61.7292 19.4736 58.7498 19.1572C58.2098 19.1 59.9135 18.2635 59.2263 18.0108C57.9678 17.5503 57.1345 19.3102 55.8499 18.3671C55.6175 18.1945 57.1774 16.5294 57.3381 16.539C57.3365 16.5403 57.3348 16.5416 57.3332 16.5429ZM196.249 19.5475C196.266 19.5792 196.92 19.6108 196.933 19.5795C197.288 18.8208 195.975 18.7566 196.249 19.5475ZM265.491 20.8553C265.528 20.9229 267.031 20.9932 267.079 20.9314C267.87 19.693 264.83 19.5471 265.491 20.8553ZM152.397 20.9641C151.677 21.7163 150.84 21.7914 150.275 20.8211C151 20.8854 151.689 20.9051 152.397 20.9641Z" fill="#FF4900"/>
</svg>
