<svg width="188" height="188" viewBox="0 0 188 188" fill="none" xmlns="http://www.w3.org/2000/svg">
<g clip-path="url(#clip0_33_354)">
<path d="M80.2722 18.9749L0 158.012H160.546L80.2722 18.9749Z" fill="#F5C115"/>
<path d="M111.896 50.226C111.314 50.2261 110.738 50.1065 110.204 49.8745C110.044 49.8055 109.888 49.7276 109.737 49.6413C109.253 49.3657 108.827 48.9969 108.485 48.5562C108.144 48.1154 107.893 47.6114 107.747 47.0732C107.6 46.535 107.562 45.9732 107.634 45.4202C107.706 44.8672 107.887 44.3338 108.166 43.8509C108.542 43.1988 109.083 42.6563 109.733 42.2771C110.384 41.8978 111.122 41.6951 111.875 41.6889C112.817 41.6796 113.735 41.9822 114.486 42.5495C115.238 43.1168 115.78 43.9169 116.029 44.8249C116.278 45.733 116.22 46.6979 115.863 47.5692C115.506 48.4405 114.87 49.1691 114.056 49.6413C113.4 50.0232 112.655 50.2249 111.896 50.226Z" fill="white"/>
<path d="M48.959 159.183C48.2112 159.183 47.4768 158.985 46.8295 158.611C46.1821 158.237 45.6445 157.699 45.2707 157.052C44.8968 156.404 44.6998 155.669 44.6994 154.922C44.6991 154.174 44.8953 153.439 45.2685 152.791L45.3569 152.637C45.931 151.678 46.8591 150.982 47.9414 150.7C49.0236 150.418 50.1733 150.573 51.1426 151.13C52.1119 151.688 52.8233 152.604 53.1234 153.682C53.4236 154.759 53.2884 155.911 52.7472 156.89L52.6588 157.046C52.285 157.696 51.7459 158.237 51.0962 158.612C50.4466 158.987 49.7093 159.185 48.959 159.183ZM57.9435 143.621C57.1974 143.619 56.4649 143.421 55.8191 143.048C55.1733 142.674 54.6368 142.138 54.2633 141.492C53.8898 140.846 53.6922 140.113 53.6904 139.367C53.6886 138.621 53.8826 137.888 54.253 137.24L54.3414 137.084C54.9105 136.114 55.8399 135.408 56.9273 135.12C58.0146 134.832 59.1717 134.985 60.1465 135.546C61.1213 136.107 61.8349 137.031 62.1318 138.116C62.4287 139.201 62.2849 140.359 61.7317 141.338L61.6433 141.493C61.2681 142.141 60.7286 142.68 60.079 143.053C59.4294 143.427 58.6928 143.623 57.9435 143.621ZM66.928 128.06C66.18 128.06 65.4453 127.863 64.7976 127.489C64.1499 127.115 63.6121 126.577 63.2381 125.929C62.8641 125.281 62.6672 124.547 62.6671 123.799C62.667 123.051 62.8637 122.316 63.2376 121.668L63.3259 121.512C63.8908 120.532 64.8219 119.817 65.9144 119.523C67.0068 119.229 68.1711 119.382 69.1511 119.947C70.1311 120.512 70.8466 121.443 71.1401 122.535C71.4336 123.628 71.2811 124.792 70.7162 125.772L70.6278 125.926C70.2534 126.576 69.7141 127.115 69.0645 127.49C68.4149 127.865 67.6779 128.061 66.928 128.06ZM75.9125 112.499C75.1634 112.498 74.4277 112.3 73.7795 111.924C73.1314 111.549 72.5936 111.009 72.2204 110.36C71.8472 109.71 71.6518 108.974 71.6537 108.224C71.6556 107.475 71.8549 106.74 72.2315 106.092L72.3198 105.938C72.895 104.974 73.8271 104.276 74.9138 103.995C76.0006 103.714 77.1542 103.873 78.1246 104.437C79.0949 105.001 79.8036 105.925 80.0969 107.009C80.3902 108.092 80.2445 109.248 79.6913 110.224L79.6011 110.379C79.226 111.024 78.6879 111.56 78.0405 111.932C77.3931 112.305 76.6593 112.5 75.9125 112.499ZM84.897 96.9385C84.1491 96.9381 83.4145 96.7409 82.7669 96.3669C82.1193 95.9928 81.5814 95.455 81.2074 94.8074C80.8333 94.1598 80.6361 93.4252 80.6356 92.6773C80.6352 91.9294 80.8314 91.1946 81.2047 90.5465L81.295 90.3905C81.8641 89.4202 82.7935 88.7142 83.8808 88.4261C84.9681 88.1381 86.1252 88.2913 87.1001 88.8525C88.0749 89.4137 88.7885 90.3374 89.0854 91.4223C89.3823 92.5072 89.2385 93.6655 88.6852 94.6449L88.5969 94.7991C88.223 95.4497 87.684 95.9902 87.0344 96.3658C86.3847 96.7415 85.6475 96.939 84.897 96.9385ZM93.8815 81.3759C93.1337 81.3754 92.399 81.1783 91.7514 80.8042C91.1038 80.4302 90.566 79.8924 90.1919 79.2448C89.8178 78.5972 89.6206 77.8625 89.6202 77.1147C89.6197 76.3668 89.8159 75.6319 90.1892 74.9839L90.2795 74.8297C90.5534 74.3344 90.9233 73.8986 91.3674 73.5477C91.8115 73.1969 92.321 72.9379 92.8663 72.786C93.4115 72.6341 93.9816 72.5923 94.5431 72.663C95.1047 72.7337 95.6466 72.9155 96.1372 73.1978C96.6278 73.4801 97.0572 73.8572 97.4005 74.3072C97.7439 74.7572 97.9941 75.2711 98.1368 75.8188C98.2794 76.3665 98.3116 76.9372 98.2314 77.4975C98.1512 78.0578 97.9603 78.5965 97.6698 79.0823L97.5814 79.2364C97.2075 79.8871 96.6685 80.4275 96.0189 80.8032C95.3693 81.1788 94.632 81.3764 93.8815 81.3759ZM102.866 65.8151C102.118 65.8147 101.384 65.6175 100.736 65.2435C100.088 64.8694 99.5505 64.3316 99.1764 63.684C98.8023 63.0364 98.6051 62.3018 98.6047 61.5539C98.6042 60.806 98.8005 60.0712 99.1737 59.4231L99.264 59.2689C99.5379 58.7736 99.9078 58.3379 100.352 57.987C100.796 57.6361 101.306 57.3772 101.851 57.2253C102.396 57.0734 102.966 57.0315 103.528 57.1022C104.089 57.1729 104.631 57.3547 105.122 57.637C105.612 57.9193 106.042 58.2965 106.385 58.7465C106.728 59.1965 106.979 59.7103 107.121 60.258C107.264 60.8058 107.296 61.3764 107.216 61.9367C107.136 62.497 106.945 63.0358 106.654 63.5215L106.566 63.6757C106.192 64.3263 105.653 64.8668 105.003 65.2424C104.354 65.6181 103.616 65.8156 102.866 65.8151Z" fill="white"/>
<path d="M40.1098 174.665C39.3549 174.666 38.6129 174.47 37.9575 174.095C37.3021 173.72 36.7563 173.18 36.3742 172.529C35.9072 171.718 35.7204 170.775 35.8425 169.847C35.9646 168.919 36.389 168.057 37.05 167.394C37.711 166.731 38.5719 166.304 39.4997 166.179C40.4275 166.055 41.3706 166.239 42.1834 166.703C42.9961 167.168 43.6332 167.887 43.9963 168.75C44.3594 169.613 44.4284 170.572 44.1924 171.477C43.9565 172.383 43.4288 173.186 42.6909 173.763C41.953 174.339 41.0459 174.656 40.1098 174.665Z" fill="white"/>
<path d="M165.893 174.665H165.715C164.584 174.665 163.499 174.216 162.7 173.416C161.9 172.617 161.451 171.532 161.451 170.401C161.451 169.27 161.9 168.186 162.7 167.386C163.499 166.587 164.584 166.137 165.715 166.137H165.893C167.024 166.137 168.108 166.587 168.908 167.386C169.708 168.186 170.157 169.27 170.157 170.401C170.157 171.532 169.708 172.617 168.908 173.416C168.108 174.216 167.024 174.665 165.893 174.665ZM147.924 174.665H147.736C146.605 174.665 145.521 174.216 144.721 173.416C143.921 172.617 143.472 171.532 143.472 170.401C143.472 169.27 143.921 168.186 144.721 167.386C145.521 166.587 146.605 166.137 147.736 166.137H147.924C149.055 166.137 150.139 166.587 150.939 167.386C151.739 168.186 152.188 169.27 152.188 170.401C152.188 171.532 151.739 172.617 150.939 173.416C150.139 174.216 149.055 174.665 147.924 174.665ZM129.955 174.665H129.776C128.646 174.665 127.561 174.216 126.761 173.416C125.962 172.617 125.513 171.532 125.513 170.401C125.513 169.27 125.962 168.186 126.761 167.386C127.561 166.587 128.646 166.137 129.776 166.137H129.955C131.086 166.137 132.17 166.587 132.97 167.386C133.77 168.186 134.219 169.27 134.219 170.401C134.219 171.532 133.77 172.617 132.97 173.416C132.17 174.216 131.086 174.665 129.955 174.665ZM111.986 174.665H111.807C110.677 174.665 109.592 174.216 108.792 173.416C107.993 172.617 107.544 171.532 107.544 170.401C107.544 169.27 107.993 168.186 108.792 167.386C109.592 166.587 110.677 166.137 111.807 166.137H111.986C113.117 166.137 114.201 166.587 115.001 167.386C115.801 168.186 116.25 169.27 116.25 170.401C116.25 171.532 115.801 172.617 115.001 173.416C114.201 174.216 113.117 174.665 111.986 174.665ZM94.0169 174.665H93.8383C92.7075 174.665 91.623 174.216 90.8233 173.416C90.0237 172.617 89.5745 171.532 89.5745 170.401C89.5745 169.27 90.0237 168.186 90.8233 167.386C91.623 166.587 92.7075 166.137 93.8383 166.137H94.0169C95.1478 166.137 96.2323 166.587 97.0319 167.386C97.8315 168.186 98.2808 169.27 98.2808 170.401C98.2808 171.532 97.8315 172.617 97.0319 173.416C96.2323 174.216 95.1478 174.665 94.0169 174.665ZM76.0479 174.665H75.8693C74.7385 174.665 73.6539 174.216 72.8543 173.416C72.0547 172.617 71.6055 171.532 71.6055 170.401C71.6055 169.27 72.0547 168.186 72.8543 167.386C73.6539 166.587 74.7385 166.137 75.8693 166.137H76.0479C77.1787 166.137 78.2633 166.587 79.0629 167.386C79.8625 168.186 80.3117 169.27 80.3117 170.401C80.3117 171.532 79.8625 172.617 79.0629 173.416C78.2633 174.216 77.1787 174.665 76.0479 174.665ZM58.0789 174.665H57.8909C56.76 174.665 55.6755 174.216 54.8759 173.416C54.0762 172.617 53.627 171.532 53.627 170.401C53.627 169.27 54.0762 168.186 54.8759 167.386C55.6755 166.587 56.76 166.137 57.8909 166.137H58.0789C59.2097 166.137 60.2942 166.587 61.0938 167.386C61.8935 168.186 62.3427 169.27 62.3427 170.401C62.3427 171.532 61.8935 172.617 61.0938 173.416C60.2942 174.216 59.2097 174.665 58.0789 174.665Z" fill="white"/>
<path d="M183.768 174.665C182.868 174.669 181.989 174.388 181.257 173.864C180.525 173.339 179.978 172.596 179.693 171.742C179.408 170.888 179.4 169.965 179.67 169.106C179.94 168.247 180.474 167.495 181.196 166.957C181.328 166.858 181.466 166.767 181.61 166.685C182.089 166.401 182.62 166.214 183.172 166.136C183.724 166.058 184.286 166.09 184.825 166.23C185.365 166.37 185.871 166.615 186.316 166.951C186.76 167.287 187.134 167.708 187.415 168.189C187.794 168.841 187.996 169.582 188 170.337C188.005 171.091 187.812 171.834 187.442 172.492C187.074 173.145 186.541 173.689 185.896 174.071C185.251 174.452 184.517 174.657 183.768 174.665Z" fill="white"/>
<path d="M174.84 159.183C174.09 159.185 173.353 158.988 172.703 158.613C172.054 158.238 171.514 157.698 171.14 157.048L171.052 156.892C170.511 155.913 170.375 154.761 170.675 153.684C170.976 152.606 171.687 151.69 172.656 151.132C173.626 150.575 174.775 150.42 175.858 150.702C176.94 150.984 177.868 151.679 178.442 152.639L178.532 152.793C178.905 153.441 179.101 154.176 179.1 154.924C179.1 155.671 178.902 156.405 178.528 157.053C178.154 157.7 177.617 158.238 176.969 158.612C176.322 158.986 175.588 159.183 174.84 159.183ZM165.85 143.632C165.1 143.633 164.363 143.436 163.713 143.061C163.063 142.686 162.524 142.146 162.15 141.496L162.062 141.34C161.52 140.362 161.385 139.21 161.685 138.132C161.985 137.055 162.697 136.139 163.666 135.581C164.635 135.023 165.785 134.869 166.867 135.15C167.95 135.432 168.878 136.128 169.452 137.088L169.542 137.242C169.915 137.89 170.112 138.625 170.111 139.373C170.111 140.121 169.914 140.855 169.54 141.503C169.165 142.15 168.628 142.688 167.98 143.062C167.332 143.436 166.598 143.634 165.85 143.634V143.632ZM156.865 128.069C156.115 128.071 155.378 127.874 154.728 127.499C154.079 127.124 153.54 126.584 153.165 125.934L153.077 125.78C152.524 124.8 152.38 123.642 152.677 122.557C152.974 121.472 153.687 120.548 154.662 119.987C155.637 119.426 156.794 119.273 157.882 119.561C158.969 119.849 159.898 120.555 160.467 121.525L160.558 121.681C160.931 122.329 161.127 123.064 161.127 123.812C161.126 124.56 160.929 125.294 160.555 125.942C160.181 126.59 159.643 127.128 158.995 127.502C158.348 127.876 157.613 128.073 156.865 128.073V128.069ZM147.881 112.499C147.135 112.499 146.402 112.304 145.755 111.931C145.108 111.559 144.571 111.024 144.196 110.379L144.106 110.224C143.553 109.248 143.407 108.092 143.7 107.009C143.993 105.925 144.702 105.001 145.672 104.437C146.643 103.873 147.797 103.714 148.883 103.995C149.97 104.276 150.902 104.974 151.477 105.938L151.566 106.092C151.942 106.74 152.142 107.476 152.143 108.225C152.145 108.975 151.949 109.711 151.576 110.361C151.202 111.011 150.664 111.551 150.015 111.926C149.366 112.301 148.63 112.499 147.881 112.499ZM138.896 96.9385C138.146 96.9395 137.409 96.7423 136.76 96.3669C136.111 95.9916 135.572 95.4514 135.198 94.8009L135.108 94.6468C134.544 93.666 134.392 92.5013 134.687 91.4089C134.982 90.3165 135.698 89.3858 136.679 88.8216C137.66 88.2574 138.824 88.106 139.917 88.4005C141.009 88.6951 141.94 89.4116 142.504 90.3924L142.594 90.5484C142.968 91.1965 143.164 91.9313 143.163 92.6792C143.163 93.4271 142.966 94.1617 142.592 94.8093C142.218 95.4569 141.68 95.9947 141.032 96.3688C140.384 96.7428 139.65 96.94 138.902 96.9404L138.896 96.9385ZM129.908 81.3778C129.158 81.3788 128.42 81.1817 127.771 80.8064C127.121 80.431 126.582 79.8907 126.208 79.2402L126.118 79.086C125.553 78.105 125.4 76.9397 125.694 75.8464C125.989 74.7531 126.705 73.8213 127.686 73.2562C128.667 72.691 129.832 72.5387 130.926 72.8327C132.019 73.1267 132.951 73.8431 133.516 74.8241L133.604 74.9801C133.977 75.628 134.174 76.3627 134.173 77.1104C134.173 77.8582 133.976 78.5927 133.602 79.2402C133.228 79.8878 132.69 80.4256 132.043 80.7998C131.396 81.174 130.661 81.3714 129.914 81.3721L129.908 81.3778ZM120.923 65.8151C120.173 65.8162 119.436 65.6191 118.786 65.2437C118.136 64.8684 117.597 64.3281 117.224 63.6775L117.133 63.5234C116.854 63.038 116.673 62.5024 116.601 61.9471C116.529 61.3918 116.567 60.8278 116.712 60.2871C117.007 59.1952 117.723 58.265 118.703 57.701C119.683 57.1371 120.848 56.9857 121.939 57.2801C123.031 57.5745 123.962 58.2906 124.526 59.2708L124.614 59.425C124.987 60.0729 125.183 60.8076 125.183 61.5553C125.183 62.3031 124.986 63.0375 124.612 63.6851C124.238 64.3326 123.7 64.8705 123.053 65.2447C122.406 65.6189 121.671 65.8162 120.923 65.817V65.8151Z" fill="white"/>
<path d="M111.896 81.592C111.314 81.5921 110.738 81.4724 110.204 81.2404C110.044 81.1722 109.888 81.0943 109.737 81.0073C109.253 80.7317 108.827 80.3629 108.485 79.9221C108.144 79.4814 107.893 78.9774 107.747 78.4392C107.6 77.901 107.562 77.3392 107.634 76.7862C107.706 76.2331 107.887 75.6998 108.166 75.2169C108.542 74.5647 109.083 74.0222 109.733 73.643C110.384 73.2638 111.122 73.0611 111.875 73.0549C112.817 73.0456 113.735 73.3481 114.486 73.9154C115.238 74.4827 115.78 75.2828 116.029 76.1909C116.278 77.0989 116.22 78.0639 115.863 78.9352C115.506 79.8064 114.87 80.535 114.056 81.0073C113.4 81.3892 112.655 81.5909 111.896 81.592Z" fill="white"/>
<path d="M75.2 145.093C74.4515 145.094 73.7159 144.898 73.0674 144.524C72.4188 144.15 71.8802 143.612 71.5056 142.964C71.1311 142.316 70.9339 141.581 70.934 140.833C70.934 140.084 71.1312 139.349 71.5058 138.701L71.596 138.543C71.8698 138.048 72.2393 137.613 72.683 137.262C73.1266 136.912 73.6356 136.653 74.1802 136.501C74.7248 136.349 75.2943 136.306 75.8554 136.377C76.4165 136.447 76.9581 136.628 77.4485 136.909C77.939 137.19 78.3686 137.567 78.7124 138.016C79.0561 138.465 79.3071 138.978 79.4507 139.524C79.5943 140.071 79.6277 140.641 79.549 141.201C79.4702 141.761 79.2809 142.3 78.9919 142.786L78.9017 142.944C78.5293 143.597 77.9906 144.14 77.3405 144.517C76.6903 144.895 75.9518 145.093 75.2 145.093ZM84.3612 129.226C83.6134 129.225 82.8789 129.028 82.2314 128.654C81.5838 128.28 81.046 127.742 80.6718 127.094C80.2976 126.447 80.1002 125.712 80.0993 124.965C80.0985 124.217 80.2943 123.482 80.667 122.834L80.7573 122.676C81.0311 122.181 81.4005 121.746 81.8442 121.395C82.2878 121.044 82.7968 120.786 83.3414 120.633C83.8861 120.481 84.4555 120.439 85.0166 120.509C85.5777 120.579 86.1193 120.76 86.6098 121.042C87.1003 121.323 87.5299 121.699 87.8736 122.148C88.2173 122.597 88.4683 123.11 88.6119 123.657C88.7556 124.204 88.789 124.774 88.7102 125.334C88.6315 125.894 88.4421 126.433 88.1532 126.919L88.0629 127.077C87.6906 127.729 87.1521 128.272 86.5024 128.649C85.8526 129.027 85.1127 129.226 84.3612 129.226ZM93.5262 113.364C92.7776 113.363 92.0424 113.165 91.3945 112.79C90.7466 112.415 90.2089 111.876 89.8354 111.227C89.4619 110.579 89.2659 109.843 89.2669 109.094C89.268 108.346 89.4661 107.61 89.8414 106.963L89.9336 106.807C90.5005 105.829 91.4327 105.116 92.5251 104.825C93.6175 104.534 94.7807 104.69 95.7587 105.257C96.7367 105.823 97.4495 106.756 97.7402 107.848C98.0309 108.941 97.8757 110.104 97.3088 111.082L97.2167 111.24C96.8421 111.887 96.3039 112.423 95.6561 112.796C95.0083 113.169 94.2737 113.365 93.5262 113.364ZM102.687 97.495C101.939 97.4939 101.204 97.2957 100.556 96.9205C99.9088 96.5453 99.3713 96.0062 98.9981 95.3575C98.6248 94.7087 98.4289 93.9731 98.43 93.2247C98.4312 92.4762 98.6293 91.7412 99.0045 91.0936L99.0948 90.9376C99.6617 89.9595 100.594 89.2468 101.686 88.9561C102.779 88.6654 103.942 88.8206 104.92 89.3875C105.898 89.9544 106.611 90.8866 106.901 91.9791C107.192 93.0715 107.037 94.2347 106.47 95.2127L106.38 95.3706C106.003 96.0156 105.464 96.5504 104.816 96.9216C104.168 97.2928 103.434 97.4873 102.687 97.4856V97.495Z" fill="white"/>
<path d="M66.176 160.879C65.4211 160.88 64.6791 160.684 64.0237 160.309C63.3683 159.934 62.8225 159.395 62.4404 158.744C62.1205 158.196 61.9268 157.583 61.8734 156.951C61.82 156.319 61.9083 155.682 62.1318 155.089C62.3553 154.495 62.7084 153.958 63.1655 153.518C63.6225 153.078 64.1719 152.745 64.7737 152.544C65.3756 152.343 66.0147 152.279 66.6445 152.356C67.2743 152.433 67.879 152.65 68.4146 152.99C68.9501 153.33 69.4031 153.786 69.7404 154.323C70.0777 154.86 70.291 155.466 70.3646 156.097C70.3874 156.269 70.3987 156.442 70.3985 156.615C70.4032 157.173 70.2975 157.726 70.0875 158.243C69.8774 158.76 69.5673 159.23 69.1748 159.626C68.7823 160.023 68.3153 160.337 67.8006 160.552C67.2859 160.767 66.7338 160.878 66.176 160.879Z" fill="white"/>
<path d="M139.473 160.879H139.285C138.17 160.856 137.109 160.396 136.328 159.599C135.548 158.802 135.111 157.731 135.111 156.616C135.111 155.501 135.548 154.43 136.328 153.633C137.109 152.836 138.17 152.377 139.285 152.353H139.473C140.041 152.341 140.605 152.443 141.132 152.652C141.66 152.861 142.141 153.173 142.546 153.57C142.952 153.967 143.274 154.441 143.494 154.964C143.714 155.487 143.827 156.049 143.827 156.616C143.827 157.184 143.714 157.745 143.494 158.268C143.274 158.792 142.952 159.266 142.546 159.663C142.141 160.06 141.66 160.372 141.132 160.581C140.605 160.789 140.041 160.891 139.473 160.879ZM121.149 160.879H120.961C119.846 160.856 118.784 160.396 118.004 159.599C117.224 158.802 116.787 157.731 116.787 156.616C116.787 155.501 117.224 154.43 118.004 153.633C118.784 152.836 119.846 152.377 120.961 152.353H121.149C121.716 152.341 122.28 152.443 122.808 152.652C123.336 152.861 123.816 153.173 124.222 153.57C124.627 153.967 124.949 154.441 125.169 154.964C125.389 155.487 125.502 156.049 125.502 156.616C125.502 157.184 125.389 157.745 125.169 158.268C124.949 158.792 124.627 159.266 124.222 159.663C123.816 160.06 123.336 160.372 122.808 160.581C122.28 160.789 121.716 160.891 121.149 160.879ZM102.825 160.879H102.637C102.069 160.891 101.505 160.789 100.978 160.581C100.45 160.372 99.9695 160.06 99.564 159.663C99.1586 159.266 98.8364 158.792 98.6165 158.268C98.3966 157.745 98.2833 157.184 98.2833 156.616C98.2833 156.049 98.3966 155.487 98.6165 154.964C98.8364 154.441 99.1586 153.967 99.564 153.57C99.9695 153.173 100.45 152.861 100.978 152.652C101.505 152.443 102.069 152.341 102.637 152.353H102.825C103.392 152.341 103.956 152.443 104.484 152.652C105.011 152.861 105.492 153.173 105.897 153.57C106.303 153.967 106.625 154.441 106.845 154.964C107.065 155.487 107.178 156.049 107.178 156.616C107.178 157.184 107.065 157.745 106.845 158.268C106.625 158.792 106.303 159.266 105.897 159.663C105.492 160.06 105.011 160.372 104.484 160.581C103.956 160.789 103.392 160.891 102.825 160.879ZM84.5003 160.879H84.3124C83.745 160.891 83.181 160.789 82.6534 160.581C82.1257 160.372 81.6451 160.06 81.2397 159.663C80.8342 159.266 80.5121 158.792 80.2922 158.268C80.0723 157.745 79.959 157.184 79.959 156.616C79.959 156.049 80.0723 155.487 80.2922 154.964C80.5121 154.441 80.8342 153.967 81.2397 153.57C81.6451 153.173 82.1257 152.861 82.6534 152.652C83.181 152.443 83.745 152.341 84.3124 152.353H84.5003C85.0677 152.341 85.6317 152.443 86.1593 152.652C86.687 152.861 87.1676 153.173 87.573 153.57C87.9785 153.967 88.3006 154.441 88.5205 154.964C88.7404 155.487 88.8537 156.049 88.8537 156.616C88.8537 157.184 88.7404 157.745 88.5205 158.268C88.3006 158.792 87.9785 159.266 87.573 159.663C87.1676 160.06 86.687 160.372 86.1593 160.581C85.6317 160.789 85.0677 160.891 84.5003 160.879Z" fill="white"/>
<path d="M157.702 160.879C156.801 160.883 155.923 160.602 155.191 160.077C154.459 159.553 153.912 158.81 153.627 157.956C153.341 157.101 153.333 156.179 153.603 155.32C153.873 154.461 154.408 153.709 155.13 153.171C155.261 153.072 155.399 152.981 155.542 152.898C156.021 152.615 156.552 152.429 157.104 152.351C157.656 152.273 158.218 152.305 158.757 152.445C159.296 152.584 159.803 152.829 160.247 153.165C160.692 153.501 161.066 153.922 161.347 154.402C161.727 155.055 161.929 155.796 161.934 156.551C161.938 157.306 161.745 158.049 161.374 158.706C161.006 159.359 160.474 159.903 159.829 160.285C159.185 160.666 158.451 160.871 157.702 160.879Z" fill="white"/>
<path d="M148.591 145.093C147.844 145.094 147.109 144.899 146.46 144.526C145.812 144.153 145.274 143.616 144.899 142.968L144.809 142.812C144.528 142.328 144.345 141.793 144.271 141.238C144.197 140.683 144.233 140.119 144.377 139.578C144.521 139.037 144.77 138.53 145.11 138.085C145.45 137.64 145.874 137.267 146.358 136.986C146.842 136.705 147.377 136.523 147.932 136.448C148.487 136.374 149.051 136.41 149.592 136.554C150.133 136.698 150.64 136.947 151.085 137.287C151.53 137.627 151.903 138.051 152.184 138.535L152.274 138.691C152.651 139.339 152.85 140.074 152.852 140.823C152.853 141.572 152.658 142.308 152.284 142.957C151.911 143.606 151.373 144.145 150.724 144.52C150.076 144.895 149.34 145.093 148.591 145.093ZM139.428 129.225C138.68 129.227 137.945 129.031 137.297 128.658C136.649 128.284 136.11 127.747 135.736 127.099L135.644 126.943C135.09 125.966 134.944 124.809 135.238 123.724C135.532 122.64 136.242 121.715 137.214 121.151C138.187 120.588 139.342 120.431 140.429 120.714C141.517 120.998 142.448 121.699 143.021 122.666L143.111 122.824C143.487 123.472 143.685 124.207 143.686 124.956C143.687 125.704 143.491 126.44 143.117 127.089C142.744 127.738 142.206 128.277 141.558 128.652C140.91 129.027 140.175 129.225 139.426 129.225H139.428ZM130.267 113.364C129.516 113.365 128.778 113.167 128.128 112.791C127.478 112.415 126.939 111.874 126.565 111.223L126.473 111.063C125.931 110.083 125.796 108.93 126.097 107.852C126.398 106.774 127.111 105.857 128.082 105.3C129.053 104.743 130.204 104.59 131.287 104.874C132.37 105.159 133.297 105.857 133.869 106.82L133.959 106.979C134.333 107.628 134.529 108.362 134.528 109.11C134.528 109.858 134.331 110.593 133.957 111.24C133.583 111.888 133.045 112.426 132.397 112.8C131.75 113.174 131.015 113.371 130.267 113.371V113.364ZM121.104 97.4949C120.353 97.4961 119.615 97.2987 118.965 96.9226C118.315 96.5465 117.776 96.0052 117.402 95.3535L117.312 95.1956C117.023 94.7095 116.834 94.1708 116.755 93.6109C116.676 93.0509 116.71 92.4809 116.853 91.934C116.997 91.3871 117.248 90.8742 117.592 90.4252C117.935 89.9762 118.365 89.6 118.855 89.3186C119.346 89.0372 119.887 88.8562 120.449 88.7861C121.01 88.716 121.579 88.7582 122.124 88.9102C122.668 89.0623 123.177 89.3211 123.621 89.6717C124.065 90.0223 124.434 90.4577 124.708 90.9525L124.798 91.1104C125.173 91.7584 125.37 92.4937 125.37 93.2422C125.37 93.9906 125.173 94.7259 124.798 95.374C124.424 96.022 123.885 96.5599 123.237 96.9336C122.588 97.3072 121.852 97.5034 121.104 97.5024V97.4949Z" fill="white"/>
<path d="M111.896 111.873C111.308 111.873 110.726 111.75 110.189 111.512C110.046 111.452 109.908 111.383 109.773 111.307C109.286 111.037 108.856 110.672 108.51 110.235C108.164 109.798 107.908 109.296 107.756 108.76C107.605 108.223 107.562 107.662 107.628 107.108C107.695 106.554 107.871 106.019 108.145 105.534C108.52 104.873 109.061 104.321 109.716 103.935C110.371 103.549 111.115 103.342 111.875 103.334C113.007 103.331 114.094 103.779 114.897 104.577C115.7 105.376 116.152 106.461 116.155 107.593C116.158 108.726 115.71 109.813 114.912 110.615C114.113 111.418 113.028 111.87 111.896 111.873Z" fill="white"/>
<path d="M102.052 128.866C101.305 128.865 100.571 128.667 99.9243 128.292C99.2776 127.918 98.7408 127.38 98.3678 126.732C97.9947 126.085 97.7984 125.35 97.7986 124.603C97.7989 123.856 97.9956 123.122 98.3691 122.474L98.465 122.307C98.7349 121.803 99.1034 121.359 99.5484 121.001C99.9935 120.642 100.506 120.377 101.056 120.22C101.605 120.064 102.181 120.019 102.748 120.09C103.315 120.16 103.862 120.344 104.357 120.63C104.852 120.916 105.284 121.298 105.628 121.755C105.972 122.211 106.221 122.732 106.36 123.286C106.498 123.841 106.524 124.417 106.435 124.982C106.347 125.547 106.146 126.088 105.844 126.573L105.746 126.74C105.371 127.388 104.833 127.925 104.184 128.298C103.536 128.672 102.8 128.868 102.052 128.866Z" fill="white"/>
<path d="M92.4001 145.74C91.6497 145.741 90.9119 145.547 90.2588 145.178C89.6056 144.808 89.0595 144.276 88.6739 143.632C88.2923 142.992 88.0852 142.263 88.0734 141.518C88.0615 140.772 88.2452 140.037 88.6063 139.385C89.0477 138.593 89.7297 137.961 90.5537 137.581C91.3778 137.202 92.3011 137.094 93.1904 137.274C94.0796 137.454 94.8886 137.912 95.5005 138.581C96.1125 139.251 96.4955 140.098 96.5944 141C96.6117 141.159 96.6205 141.318 96.6207 141.478C96.6254 142.035 96.5198 142.588 96.3098 143.105C96.0999 143.621 95.7899 144.091 95.3976 144.487C95.0052 144.883 94.5384 145.198 94.024 145.413C93.5095 145.628 92.9576 145.739 92.4001 145.74Z" fill="white"/>
<path d="M111.993 145.739H111.805C111.238 145.751 110.674 145.65 110.146 145.441C109.619 145.232 109.138 144.92 108.733 144.523C108.327 144.126 108.005 143.652 107.785 143.129C107.565 142.606 107.452 142.044 107.452 141.476C107.452 140.909 107.565 140.347 107.785 139.824C108.005 139.301 108.327 138.827 108.733 138.43C109.138 138.033 109.619 137.721 110.146 137.512C110.674 137.303 111.238 137.202 111.805 137.214H111.993C113.109 137.237 114.17 137.696 114.95 138.493C115.731 139.29 116.168 140.361 116.168 141.476C116.168 142.592 115.731 143.663 114.95 144.46C114.17 145.257 113.109 145.716 111.993 145.739Z" fill="white"/>
<path d="M131.478 145.739C130.58 145.747 129.703 145.472 128.97 144.953C128.238 144.435 127.687 143.699 127.396 142.85C127.105 142.001 127.088 141.082 127.348 140.223C127.609 139.364 128.132 138.608 128.846 138.063C129.326 137.691 129.88 137.425 130.471 137.284C131.062 137.144 131.677 137.132 132.273 137.249C132.869 137.367 133.433 137.61 133.927 137.964C134.421 138.318 134.833 138.774 135.136 139.3C135.509 139.953 135.704 140.691 135.704 141.443C135.704 142.194 135.509 142.932 135.136 143.585C134.768 144.232 134.236 144.771 133.594 145.149C132.952 145.527 132.223 145.731 131.478 145.739Z" fill="white"/>
<path d="M121.739 128.865C120.991 128.866 120.256 128.67 119.608 128.297C118.96 127.923 118.421 127.386 118.047 126.738L117.949 126.571C117.669 126.087 117.486 125.552 117.412 124.997C117.339 124.442 117.375 123.878 117.519 123.337C117.663 122.796 117.912 122.289 118.252 121.844C118.592 121.4 119.017 121.026 119.501 120.746C119.986 120.465 120.521 120.283 121.075 120.209C121.63 120.135 122.194 120.171 122.735 120.315C123.276 120.459 123.783 120.709 124.228 121.049C124.673 121.389 125.046 121.813 125.326 122.298L125.424 122.465C125.798 123.112 125.995 123.847 125.995 124.594C125.995 125.342 125.798 126.076 125.425 126.724C125.052 127.371 124.515 127.909 123.868 128.284C123.221 128.658 122.487 128.856 121.739 128.857V128.865Z" fill="white"/>
</g>
<defs>
<clipPath id="clip0_33_354">
<rect width="188" height="188" fill="white"/>
</clipPath>
</defs>
</svg>
