<svg width="272" height="272" viewBox="0 0 272 272" fill="none" xmlns="http://www.w3.org/2000/svg">
<path d="M137.313 7.56198C111.912 7.30551 87.0046 14.5868 65.7412 28.4851C44.4779 42.3834 27.8131 62.2746 17.8541 85.6435C7.89499 109.013 5.08889 134.81 9.79055 159.773C14.4922 184.737 26.4905 207.746 44.2683 225.891C62.0462 244.036 84.8051 256.502 109.667 261.713C134.53 266.924 160.379 264.646 183.947 255.167C207.514 245.688 227.742 229.433 242.072 208.458C256.402 187.483 264.191 162.73 264.454 137.329C264.629 120.459 261.479 103.721 255.184 88.0686C248.889 72.4166 239.572 58.1581 227.765 46.1075C215.959 34.057 201.894 24.4505 186.374 17.8367C170.853 11.223 154.182 7.7316 137.313 7.56198ZM135.384 194.026C123.907 193.907 112.723 190.388 103.247 183.913C93.7706 177.439 86.427 168.299 82.1448 157.651C77.8626 147.003 76.8342 135.323 79.1897 124.091C81.5451 112.858 87.1785 102.576 95.3776 94.5445C103.577 86.5133 113.973 81.0938 125.252 78.9713C136.532 76.8488 148.187 78.1186 158.744 82.6202C169.302 87.1218 178.287 94.6529 184.565 104.261C190.842 113.87 194.129 125.124 194.01 136.6C193.932 144.221 192.354 151.751 189.365 158.761C186.376 165.771 182.036 172.124 176.592 177.457C171.148 182.789 164.706 186.997 157.636 189.84C150.565 192.683 143.004 194.106 135.384 194.026Z" fill="#FF4900" stroke="#111111" stroke-width="6" stroke-linecap="round" stroke-linejoin="round"/>
<path d="M220.641 203.805L203.711 194.637" stroke="#111111" stroke-width="4" stroke-linecap="round" stroke-linejoin="round"/>
<path d="M149.74 240.356L158.975 226.51" stroke="#111111" stroke-width="4" stroke-linecap="round" stroke-linejoin="round"/>
<path d="M130.302 224.23L121.529 207.313" stroke="#111111" stroke-width="4" stroke-linecap="round" stroke-linejoin="round"/>
<path d="M108.593 238.204L96.1112 249.257" stroke="#111111" stroke-width="4" stroke-linecap="round" stroke-linejoin="round"/>
<path d="M199.738 224.277L183.674 238.502" stroke="#111111" stroke-width="4" stroke-linecap="round" stroke-linejoin="round"/>
<path d="M100.103 215.72L82.7719 221.333" stroke="#111111" stroke-width="4" stroke-linecap="round" stroke-linejoin="round"/>
<path d="M33.2517 164.806L55.1026 168.096" stroke="#111111" stroke-width="4" stroke-linecap="round" stroke-linejoin="round"/>
<path d="M27.6424 93.3623L40.1541 111.001" stroke="#111111" stroke-width="4" stroke-linecap="round" stroke-linejoin="round"/>
<path d="M65.9938 115.245L56.6193 131.705" stroke="#111111" stroke-width="4" stroke-linecap="round" stroke-linejoin="round"/>
<path d="M35.9678 135.102L20.1216 143.301" stroke="#111111" stroke-width="4" stroke-linecap="round" stroke-linejoin="round"/>
<path d="M77.4651 179.119L68.6906 195.274" stroke="#111111" stroke-width="4" stroke-linecap="round" stroke-linejoin="round"/>
<path d="M184.701 211.976L179.909 194.487" stroke="#111111" stroke-width="4" stroke-linecap="round" stroke-linejoin="round"/>
<path d="M211.459 169.577L208.356 149.547" stroke="#111111" stroke-width="4" stroke-linecap="round" stroke-linejoin="round"/>
<path d="M248.729 131.463L229.096 134.22" stroke="#111111" stroke-width="4" stroke-linecap="round" stroke-linejoin="round"/>
<path d="M239.892 175.19L231.623 160.293" stroke="#111111" stroke-width="4" stroke-linecap="round" stroke-linejoin="round"/>
<path d="M45.2467 200.82L44.9767 226.921" stroke="#111111" stroke-width="4" stroke-linecap="round" stroke-linejoin="round"/>
<path d="M51.3589 68.1953L68.2887 77.3632" stroke="#111111" stroke-width="4" stroke-linecap="round" stroke-linejoin="round"/>
<path d="M122.26 31.6436L113.025 45.4895" stroke="#111111" stroke-width="4" stroke-linecap="round" stroke-linejoin="round"/>
<path d="M141.698 47.7695L150.471 64.6869" stroke="#111111" stroke-width="4" stroke-linecap="round" stroke-linejoin="round"/>
<path d="M163.407 33.7958L175.889 22.7429" stroke="#111111" stroke-width="4" stroke-linecap="round" stroke-linejoin="round"/>
<path d="M72.262 47.7228L88.3258 33.4979" stroke="#111111" stroke-width="4" stroke-linecap="round" stroke-linejoin="round"/>
<path d="M171.897 56.2799L189.228 50.6675" stroke="#111111" stroke-width="4" stroke-linecap="round" stroke-linejoin="round"/>
<path d="M238.748 107.194L216.897 103.904" stroke="#111111" stroke-width="4" stroke-linecap="round" stroke-linejoin="round"/>
<path d="M194.535 92.881L203.309 76.726" stroke="#111111" stroke-width="4" stroke-linecap="round" stroke-linejoin="round"/>
<path d="M87.2993 60.0239L92.0911 77.513" stroke="#111111" stroke-width="4" stroke-linecap="round" stroke-linejoin="round"/>
<path d="M226.753 71.1796L227.023 45.0793" stroke="#111111" stroke-width="4" stroke-linecap="round" stroke-linejoin="round"/>
</svg>
