<svg width="100" height="100" viewBox="0 0 100 100" fill="none" xmlns="http://www.w3.org/2000/svg">
<g clip-path="url(#clip0_33_132)">
<path d="M42.6982 10.093L0.000244141 84.049H85.3972L42.6982 10.093Z" fill="#F5C115"/>
<path d="M59.5193 26.716C59.2096 26.7161 58.9033 26.6525 58.6193 26.529C58.5344 26.4923 58.4516 26.4509 58.3713 26.405C58.1134 26.2584 57.8871 26.0623 57.7053 25.8278C57.5236 25.5934 57.39 25.3253 57.3123 25.039C57.2346 24.7527 57.2143 24.4539 57.2526 24.1598C57.2908 23.8656 57.3869 23.5819 57.5353 23.325C57.7355 22.9782 58.0229 22.6896 58.369 22.4879C58.715 22.2862 59.1077 22.1783 59.5083 22.175C60.0091 22.1701 60.4975 22.331 60.8972 22.6328C61.2969 22.9345 61.5856 23.3601 61.718 23.8431C61.8505 24.3261 61.8193 24.8394 61.6294 25.3028C61.4395 25.7663 61.1016 26.1538 60.6683 26.405C60.3194 26.6082 59.923 26.7155 59.5193 26.716Z" fill="#111111"/>
<path d="M26.0422 84.672C25.6445 84.6716 25.2538 84.5666 24.9095 84.3676C24.5652 84.1685 24.2792 83.8824 24.0803 83.538C23.8815 83.1935 23.7767 82.8029 23.7765 82.4051C23.7763 82.0074 23.8807 81.6166 24.0792 81.272L24.1262 81.19C24.4316 80.6795 24.9253 80.3094 25.5009 80.1595C26.0766 80.0095 26.6881 80.0918 27.2037 80.3885C27.7193 80.6851 28.0977 81.1725 28.2573 81.7456C28.417 82.3186 28.3451 82.9314 28.0572 83.452L28.0102 83.535C27.8113 83.881 27.5246 84.1684 27.1791 84.3681C26.8335 84.5677 26.4413 84.6726 26.0422 84.672ZM30.8212 76.394C30.4243 76.393 30.0347 76.2879 29.6912 76.0891C29.3477 75.8904 29.0623 75.605 28.8637 75.2615C28.665 74.918 28.5599 74.5283 28.5589 74.1315C28.558 73.7346 28.6612 73.3445 28.8582 73L28.9052 72.917C29.2079 72.4009 29.7023 72.0253 30.2807 71.8721C30.859 71.7189 31.4745 71.8004 31.993 72.0989C32.5115 72.3974 32.8911 72.8887 33.049 73.4658C33.207 74.0429 33.1305 74.659 32.8362 75.18L32.7892 75.262C32.5896 75.607 32.3026 75.8933 31.9571 76.0921C31.6116 76.2908 31.2198 76.395 30.8212 76.394ZM35.6002 68.117C35.2023 68.1169 34.8115 68.0121 34.467 67.8131C34.1225 67.6142 33.8364 67.328 33.6375 66.9835C33.4386 66.6389 33.3338 66.2481 33.3338 65.8503C33.3337 65.4524 33.4384 65.0616 33.6372 64.717L33.6842 64.634C33.9847 64.1127 34.4799 63.7321 35.061 63.576C35.6421 63.4199 36.2614 63.501 36.7827 63.8015C37.304 64.102 37.6845 64.5972 37.8407 65.1783C37.9968 65.7594 37.9157 66.3787 37.6152 66.9L37.5682 66.982C37.369 67.3276 37.0822 67.6145 36.7366 67.8138C36.3911 68.0131 35.9991 68.1177 35.6002 68.117ZM40.3792 59.84C39.9807 59.8395 39.5894 59.7341 39.2446 59.5343C38.8999 59.3344 38.6138 59.0473 38.4153 58.7018C38.2168 58.3563 38.1128 57.9646 38.1139 57.5661C38.1149 57.1676 38.2209 56.7765 38.4212 56.432L38.4682 56.35C38.7742 55.8373 39.2699 55.4659 39.848 55.3165C40.426 55.167 41.0397 55.2515 41.5558 55.5516C42.0719 55.8517 42.4489 56.3433 42.6049 56.9196C42.761 57.4959 42.6834 58.1105 42.3892 58.63L42.3412 58.712C42.1417 59.0555 41.8554 59.3405 41.5111 59.5385C41.1667 59.7364 40.7764 59.8404 40.3792 59.84ZM45.1582 51.563C44.7604 51.5627 44.3696 51.4579 44.0251 51.2589C43.6807 51.06 43.3946 50.7739 43.1956 50.4294C42.9966 50.0849 42.8917 49.6942 42.8915 49.2964C42.8912 48.8986 42.9956 48.5077 43.1942 48.163L43.2422 48.08C43.5449 47.5639 44.0393 47.1883 44.6177 47.0351C45.196 46.8819 45.8115 46.9634 46.33 47.2619C46.8485 47.5604 47.2281 48.0517 47.386 48.6288C47.544 49.2059 47.4675 49.822 47.1732 50.343L47.1262 50.425C46.9273 50.7711 46.6406 51.0585 46.2951 51.2584C45.9495 51.4582 45.5574 51.5632 45.1582 51.563ZM49.9372 43.285C49.5394 43.2847 49.1486 43.1799 48.8041 42.9809C48.4597 42.782 48.1736 42.4959 47.9746 42.1514C47.7756 41.8069 47.6707 41.4162 47.6705 41.0184C47.6702 40.6206 47.7746 40.2297 47.9732 39.885L48.0212 39.803C48.1669 39.5395 48.3636 39.3077 48.5999 39.1211C48.8361 38.9344 49.1071 38.7967 49.3972 38.7159C49.6872 38.6351 49.9904 38.6129 50.2891 38.6505C50.5878 38.6881 50.876 38.7848 51.137 38.9349C51.3979 39.0851 51.6264 39.2857 51.809 39.5251C51.9916 39.7644 52.1247 40.0377 52.2006 40.3291C52.2765 40.6204 52.2936 40.924 52.251 41.222C52.2083 41.52 52.1067 41.8066 51.9522 42.065L51.9052 42.147C51.7063 42.4931 51.4196 42.7805 51.0741 42.9804C50.7285 43.1802 50.3364 43.2852 49.9372 43.285ZM54.7162 35.008C54.3184 35.0077 53.9276 34.9029 53.5831 34.7039C53.2387 34.505 52.9526 34.2189 52.7536 33.8744C52.5546 33.5299 52.4497 33.1392 52.4495 32.7414C52.4492 32.3436 52.5536 31.9527 52.7522 31.608L52.8002 31.526C52.9459 31.2625 53.1426 31.0307 53.3789 30.8441C53.6151 30.6574 53.8861 30.5197 54.1762 30.4389C54.4662 30.3581 54.7694 30.3359 55.0681 30.3735C55.3668 30.4111 55.655 30.5078 55.916 30.6579C56.1769 30.8081 56.4054 31.0087 56.588 31.2481C56.7706 31.4874 56.9037 31.7607 56.9796 32.0521C57.0555 32.3434 57.0726 32.647 57.03 32.945C56.9873 33.243 56.8857 33.5296 56.7312 33.788L56.6842 33.87C56.4853 34.2161 56.1986 34.5035 55.8531 34.7034C55.5075 34.9032 55.1154 35.0082 54.7162 35.008Z" fill="#111111"/>
<path d="M21.3352 92.9069C20.9337 92.9075 20.539 92.803 20.1904 92.6037C19.8418 92.4044 19.5515 92.1173 19.3482 91.7709C19.0998 91.3394 19.0004 90.838 19.0654 90.3443C19.1304 89.8506 19.3561 89.392 19.7077 89.0394C20.0593 88.6867 20.5172 88.4597 21.0107 88.3933C21.5042 88.3269 22.0059 88.4248 22.4382 88.672C22.8705 88.9191 23.2094 89.3018 23.4025 89.7607C23.5957 90.2197 23.6323 90.7295 23.5068 91.2114C23.3813 91.6933 23.1007 92.1205 22.7082 92.4269C22.3157 92.7334 21.8332 92.9021 21.3352 92.9069Z" fill="#111111"/>
<path d="M88.2413 92.907H88.1463C87.5448 92.907 86.9679 92.668 86.5425 92.2427C86.1172 91.8174 85.8783 91.2405 85.8783 90.639C85.8783 90.0375 86.1172 89.4606 86.5425 89.0352C86.9679 88.6099 87.5448 88.371 88.1463 88.371H88.2413C88.8428 88.371 89.4197 88.6099 89.845 89.0352C90.2703 89.4606 90.5093 90.0375 90.5093 90.639C90.5093 91.2405 90.2703 91.8174 89.845 92.2427C89.4197 92.668 88.8428 92.907 88.2413 92.907ZM78.6833 92.907H78.5833C77.9818 92.907 77.4049 92.668 76.9795 92.2427C76.5542 91.8174 76.3153 91.2405 76.3153 90.639C76.3153 90.0375 76.5542 89.4606 76.9795 89.0352C77.4049 88.6099 77.9818 88.371 78.5833 88.371H78.6833C79.2848 88.371 79.8617 88.6099 80.287 89.0352C80.7123 89.4606 80.9513 90.0375 80.9513 90.639C80.9513 91.2405 80.7123 91.8174 80.287 92.2427C79.8617 92.668 79.2848 92.907 78.6833 92.907ZM69.1253 92.907H69.0303C68.4288 92.907 67.8519 92.668 67.4266 92.2427C67.0012 91.8174 66.7623 91.2405 66.7623 90.639C66.7623 90.0375 67.0012 89.4606 67.4266 89.0352C67.8519 88.6099 68.4288 88.371 69.0303 88.371H69.1253C69.7268 88.371 70.3037 88.6099 70.729 89.0352C71.1543 89.4606 71.3933 90.0375 71.3933 90.639C71.3933 91.2405 71.1543 91.8174 70.729 92.2427C70.3037 92.668 69.7268 92.907 69.1253 92.907ZM59.5673 92.907H59.4723C58.8708 92.907 58.2939 92.668 57.8686 92.2427C57.4432 91.8174 57.2043 91.2405 57.2043 90.639C57.2043 90.0375 57.4432 89.4606 57.8686 89.0352C58.2939 88.6099 58.8708 88.371 59.4723 88.371H59.5673C60.1688 88.371 60.7457 88.6099 61.171 89.0352C61.5963 89.4606 61.8353 90.0375 61.8353 90.639C61.8353 91.2405 61.5963 91.8174 61.171 92.2427C60.7457 92.668 60.1688 92.907 59.5673 92.907ZM50.0093 92.907H49.9143C49.3128 92.907 48.7359 92.668 48.3106 92.2427C47.8852 91.8174 47.6463 91.2405 47.6463 90.639C47.6463 90.0375 47.8852 89.4606 48.3106 89.0352C48.7359 88.6099 49.3128 88.371 49.9143 88.371H50.0093C50.6108 88.371 51.1877 88.6099 51.613 89.0352C52.0383 89.4606 52.2773 90.0375 52.2773 90.639C52.2773 91.2405 52.0383 91.8174 51.613 92.2427C51.1877 92.668 50.6108 92.907 50.0093 92.907ZM40.4513 92.907H40.3563C39.7548 92.907 39.1779 92.668 38.7526 92.2427C38.3272 91.8174 38.0883 91.2405 38.0883 90.639C38.0883 90.0375 38.3272 89.4606 38.7526 89.0352C39.1779 88.6099 39.7548 88.371 40.3563 88.371H40.4513C41.0528 88.371 41.6297 88.6099 42.055 89.0352C42.4803 89.4606 42.7193 90.0375 42.7193 90.639C42.7193 91.2405 42.4803 91.8174 42.055 92.2427C41.6297 92.668 41.0528 92.907 40.4513 92.907ZM30.8933 92.907H30.7933C30.1918 92.907 29.6149 92.668 29.1896 92.2427C28.7642 91.8174 28.5253 91.2405 28.5253 90.639C28.5253 90.0375 28.7642 89.4606 29.1896 89.0352C29.6149 88.6099 30.1918 88.371 30.7933 88.371H30.8933C31.4948 88.371 32.0717 88.6099 32.497 89.0352C32.9223 89.4606 33.1613 90.0375 33.1613 90.639C33.1613 91.2405 32.9223 91.8174 32.497 92.2427C32.0717 92.668 31.4948 92.907 30.8933 92.907Z" fill="#111111"/>
<path d="M97.7492 92.907C97.2702 92.909 96.8027 92.7598 96.4135 92.4806C96.0242 92.2014 95.733 91.8065 95.5814 91.3521C95.4298 90.8977 95.4255 90.407 95.5691 89.95C95.7127 89.493 95.9969 89.093 96.3812 88.807C96.4514 88.7541 96.5249 88.7056 96.6012 88.662C96.8563 88.511 97.1387 88.4119 97.4322 88.3704C97.7257 88.3289 98.0245 88.3458 98.3115 88.4202C98.5984 88.4945 98.8678 88.6248 99.1043 88.8036C99.3407 88.9824 99.5395 89.2061 99.6892 89.462C99.8906 89.8093 99.9978 90.2032 100 90.6046C100.003 91.0061 99.9003 91.4012 99.7032 91.751C99.5076 92.0982 99.2241 92.3879 98.8811 92.5908C98.5381 92.7937 98.1477 92.9028 97.7492 92.907Z" fill="#111111"/>
<path d="M93.0003 84.672C92.6013 84.6726 92.2092 84.5678 91.8637 84.3684C91.5181 84.1689 91.2313 83.8818 91.0323 83.536L90.9853 83.453C90.6974 82.9325 90.6255 82.3196 90.7851 81.7466C90.9448 81.1736 91.3232 80.6862 91.8388 80.3895C92.3544 80.0928 92.9659 80.0106 93.5415 80.1605C94.1172 80.3104 94.6109 80.6805 94.9163 81.191L94.9643 81.273C95.1626 81.6177 95.2668 82.0085 95.2664 82.4061C95.266 82.8038 95.1611 83.1944 94.9622 83.5387C94.7632 83.883 94.4772 84.169 94.1329 84.3679C93.7885 84.5668 93.3979 84.6717 93.0003 84.672ZM88.2183 76.4C87.8193 76.4006 87.4272 76.2959 87.0817 76.0964C86.7361 75.8969 86.4493 75.6098 86.2503 75.264L86.2033 75.181C85.9154 74.6605 85.8435 74.0476 86.0031 73.4746C86.1628 72.9016 86.5412 72.4142 87.0568 72.1175C87.5724 71.8208 88.1839 71.7386 88.7595 71.8885C89.3352 72.0384 89.8289 72.4085 90.1343 72.919L90.1823 73.001C90.3808 73.3457 90.4852 73.7366 90.485 74.1344C90.4847 74.5322 90.3799 74.923 90.1809 75.2674C89.9819 75.6119 89.6958 75.898 89.3513 76.097C89.0068 76.2959 88.6161 76.4008 88.2183 76.401V76.4ZM83.4393 68.122C83.0403 68.1226 82.6482 68.0179 82.3027 67.8184C81.9571 67.6189 81.6703 67.3318 81.4713 66.986L81.4243 66.904C81.13 66.3831 81.0535 65.7669 81.2114 65.1899C81.3694 64.6128 81.7489 64.1215 82.2675 63.823C82.786 63.5245 83.4015 63.4429 83.9798 63.5962C84.5582 63.7494 85.0526 64.1249 85.3553 64.641L85.4033 64.724C85.6018 65.0687 85.7062 65.4596 85.706 65.8574C85.7057 66.2552 85.6009 66.646 85.4019 66.9904C85.2029 67.3349 84.9168 67.621 84.5723 67.82C84.2278 68.0189 83.8371 68.1238 83.4393 68.124V68.122ZM78.6603 59.84C78.2634 59.8401 77.8735 59.7359 77.5295 59.538C77.1855 59.34 76.8996 59.0552 76.7003 58.712L76.6523 58.63C76.358 58.1105 76.2805 57.4959 76.4365 56.9196C76.5926 56.3433 76.9695 55.8518 77.4857 55.5517C78.0018 55.2515 78.6155 55.167 79.1935 55.3165C79.7715 55.466 80.2673 55.8373 80.5733 56.35L80.6203 56.432C80.8207 56.7766 80.9267 57.168 80.9276 57.5666C80.9285 57.9653 80.8244 58.3571 80.6257 58.7027C80.4269 59.0483 80.1406 59.3354 79.7955 59.535C79.4505 59.7347 79.0589 59.8399 78.6603 59.84ZM73.8813 51.563C73.4823 51.5635 73.0903 51.4586 72.7449 51.259C72.3995 51.0593 72.113 50.772 71.9143 50.426L71.8663 50.344C71.5662 49.8223 71.4856 49.2028 71.6423 48.6217C71.799 48.0406 72.1801 47.5456 72.7018 47.2455C73.2235 46.9454 73.843 46.8649 74.4241 47.0215C75.0052 47.1782 75.5002 47.5593 75.8003 48.081L75.8483 48.164C76.0468 48.5087 76.1512 48.8996 76.151 49.2974C76.1507 49.6952 76.0459 50.086 75.8469 50.4304C75.6479 50.7749 75.3618 51.061 75.0173 51.26C74.6728 51.4589 74.2821 51.5638 73.8843 51.564L73.8813 51.563ZM69.1003 43.286C68.7012 43.2866 68.309 43.1817 67.9634 42.9821C67.6178 42.7824 67.3311 42.495 67.1323 42.149L67.0843 42.067C66.7837 41.5452 66.7026 40.9253 66.859 40.3438C67.0155 39.7622 67.3965 39.2666 67.9183 38.966C68.4401 38.6654 69.06 38.5844 69.6415 38.7408C70.2231 38.8972 70.7187 39.2782 71.0193 39.8L71.0663 39.883C71.2648 40.2277 71.3692 40.6184 71.369 41.0162C71.3688 41.4139 71.264 41.8046 71.0651 42.149C70.8663 42.4935 70.5803 42.7795 70.236 42.9786C69.8916 43.1776 69.501 43.2826 69.1033 43.283L69.1003 43.286ZM64.3213 35.008C63.9222 35.0086 63.53 34.9037 63.1844 34.7041C62.8388 34.5044 62.5521 34.217 62.3533 33.871L62.3053 33.789C62.1568 33.5308 62.0605 33.2459 62.0221 32.9506C61.9837 32.6552 62.0038 32.3552 62.0814 32.0676C62.238 31.4868 62.6189 30.992 63.1403 30.692C63.6617 30.392 64.2809 30.3115 64.8617 30.4681C65.4425 30.6247 65.9373 31.0056 66.2373 31.527L66.2843 31.609C66.4828 31.9537 66.5872 32.3444 66.587 32.7422C66.5868 33.1399 66.482 33.5306 66.2831 33.875C66.0843 34.2195 65.7983 34.5055 65.454 34.7046C65.1096 34.9036 64.719 35.0086 64.3213 35.009V35.008Z" fill="#111111"/>
<path d="M59.5193 43.4C59.2096 43.4001 58.9033 43.3364 58.6193 43.213C58.5342 43.1767 58.4514 43.1353 58.3713 43.089C58.1134 42.9424 57.8871 42.7462 57.7053 42.5118C57.5236 42.2773 57.39 42.0093 57.3123 41.723C57.2346 41.4367 57.2143 41.1379 57.2526 40.8437C57.2908 40.5496 57.3869 40.2659 57.5353 40.009C57.7355 39.6621 58.0229 39.3735 58.369 39.1718C58.715 38.9701 59.1077 38.8623 59.5083 38.859C60.0091 38.854 60.4975 39.015 60.8972 39.3167C61.2969 39.6185 61.5856 40.0441 61.718 40.5271C61.8505 41.0101 61.8193 41.5234 61.6294 41.9868C61.4395 42.4502 61.1016 42.8378 60.6683 43.089C60.3194 43.2921 59.923 43.3994 59.5193 43.4Z" fill="#111111"/>
<path d="M40.0002 77.1769C39.6021 77.1775 39.2109 77.0731 38.8659 76.8744C38.5209 76.6756 38.2344 76.3895 38.0352 76.0448C37.8359 75.7001 37.7311 75.309 37.7311 74.9109C37.7311 74.5127 37.836 74.1216 38.0352 73.7769L38.0832 73.6929C38.2289 73.4298 38.4254 73.1982 38.6614 73.0117C38.8974 72.8252 39.1681 72.6875 39.4578 72.6066C39.7475 72.5258 40.0504 72.5033 40.3489 72.5406C40.6473 72.5779 40.9354 72.6742 41.1963 72.8239C41.4572 72.9736 41.6857 73.1736 41.8685 73.4125C42.0514 73.6513 42.1849 73.9241 42.2613 74.215C42.3377 74.5059 42.3554 74.8091 42.3135 75.107C42.2716 75.4048 42.1709 75.6914 42.0172 75.9499L41.9692 76.0339C41.7712 76.3813 41.4846 76.6701 41.1388 76.8708C40.793 77.0716 40.4001 77.1772 40.0002 77.1769ZM44.8732 68.7369C44.4755 68.7366 44.0848 68.6317 43.7403 68.4327C43.3959 68.2337 43.1098 67.9477 42.9108 67.6033C42.7117 67.2589 42.6067 66.8682 42.6063 66.4705C42.6058 66.0727 42.71 65.6818 42.9082 65.3369L42.9562 65.2529C43.1019 64.9898 43.2984 64.7582 43.5344 64.5717C43.7704 64.3852 44.0411 64.2475 44.3308 64.1666C44.6205 64.0858 44.9234 64.0633 45.2219 64.1006C45.5203 64.1379 45.8084 64.2342 46.0693 64.3839C46.3302 64.5336 46.5587 64.7336 46.7415 64.9725C46.9244 65.2113 47.0579 65.4841 47.1343 65.775C47.2107 66.0659 47.2284 66.3691 47.1865 66.667C47.1446 66.9648 47.0439 67.2514 46.8902 67.5099L46.8422 67.5939C46.6442 67.9411 46.3578 68.2297 46.0121 68.4304C45.6665 68.6312 45.2739 68.7369 44.8742 68.7369H44.8732ZM49.7482 60.2999C49.35 60.2995 48.959 60.1943 48.6143 59.9948C48.2697 59.7952 47.9837 59.5085 47.785 59.1634C47.5864 58.8183 47.4821 58.4269 47.4827 58.0287C47.4832 57.6305 47.5886 57.2395 47.7882 56.8949L47.8372 56.8119C48.1388 56.2917 48.6347 55.9126 49.2157 55.758C49.7968 55.6033 50.4155 55.6859 50.9357 55.9874C51.456 56.289 51.8351 56.7849 51.9897 57.3659C52.1443 57.947 52.0618 58.5657 51.7602 59.0859L51.7112 59.1699C51.512 59.514 51.2257 59.7996 50.8811 59.9979C50.5366 60.1963 50.1458 60.3004 49.7482 60.2999ZM54.6212 51.8589C54.2231 51.8583 53.8322 51.753 53.4877 51.5534C53.1432 51.3538 52.8573 51.067 52.6588 50.722C52.4603 50.3769 52.356 49.9856 52.3567 49.5875C52.3573 49.1894 52.4627 48.7984 52.6622 48.4539L52.7102 48.3709C53.0118 47.8507 53.5077 47.4716 54.0887 47.317C54.6698 47.1623 55.2885 47.2449 55.8087 47.5464C56.329 47.848 56.7081 48.3439 56.8627 48.9249C57.0173 49.506 56.9348 50.1247 56.6332 50.6449L56.5852 50.7289C56.3851 51.072 56.0983 51.3565 55.7536 51.554C55.4089 51.7514 55.0185 51.8548 54.6212 51.8539V51.8589Z" fill="#111111"/>
<path d="M35.2002 85.574C34.7987 85.5745 34.404 85.47 34.0554 85.2707C33.7068 85.0714 33.4164 84.7843 33.2132 84.438C33.043 84.1465 32.94 83.8208 32.9116 83.4844C32.8832 83.1481 32.9302 82.8097 33.0491 82.4938C33.1679 82.178 33.3558 81.8926 33.5989 81.6584C33.842 81.4243 34.1342 81.2473 34.4543 81.1404C34.7745 81.0334 35.1144 80.9992 35.4494 81.0403C35.7844 81.0813 36.1061 81.1965 36.391 81.3775C36.6758 81.5585 36.9167 81.8007 37.0962 82.0866C37.2756 82.3725 37.3891 82.6947 37.4282 83.03C37.4403 83.1215 37.4463 83.2137 37.4462 83.306C37.4487 83.6027 37.3925 83.8969 37.2808 84.1718C37.1691 84.4466 37.0041 84.6967 36.7953 84.9075C36.5865 85.1183 36.3381 85.2857 36.0644 85.4001C35.7906 85.5145 35.4969 85.5736 35.2002 85.574Z" fill="#111111"/>
<path d="M74.1882 85.5739H74.0882C73.4951 85.5615 72.9305 85.3171 72.5154 84.8932C72.1003 84.4694 71.8679 83.8997 71.8679 83.3065C71.8679 82.7132 72.1003 82.1435 72.5154 81.7197C72.9305 81.2958 73.4951 81.0514 74.0882 81.039H74.1882C74.49 81.0326 74.79 81.0866 75.0707 81.1977C75.3513 81.3088 75.607 81.4748 75.8226 81.686C76.0383 81.8972 76.2097 82.1493 76.3266 82.4275C76.4436 82.7058 76.5039 83.0046 76.5039 83.3065C76.5039 83.6083 76.4436 83.9071 76.3266 84.1854C76.2097 84.4636 76.0383 84.7157 75.8226 84.9269C75.607 85.1381 75.3513 85.3041 75.0707 85.4152C74.79 85.5263 74.49 85.5803 74.1882 85.5739ZM64.4412 85.5739H64.3412C63.7481 85.5615 63.1835 85.3171 62.7684 84.8932C62.3533 84.4694 62.1209 83.8997 62.1209 83.3065C62.1209 82.7132 62.3533 82.1435 62.7684 81.7197C63.1835 81.2958 63.7481 81.0514 64.3412 81.039H64.4412C64.743 81.0326 65.043 81.0866 65.3237 81.1977C65.6043 81.3088 65.86 81.4748 66.0757 81.686C66.2913 81.8972 66.4627 82.1493 66.5796 82.4275C66.6966 82.7058 66.7569 83.0046 66.7569 83.3065C66.7569 83.6083 66.6966 83.9071 66.5796 84.1854C66.4627 84.4636 66.2913 84.7157 66.0757 84.9269C65.86 85.1381 65.6043 85.3041 65.3237 85.4152C65.043 85.5263 64.743 85.5803 64.4412 85.5739ZM54.6942 85.5739H54.5942C54.2925 85.5803 53.9924 85.5263 53.7118 85.4152C53.4311 85.3041 53.1755 85.1381 52.9598 84.9269C52.7442 84.7157 52.5728 84.4636 52.4558 84.1854C52.3389 83.9071 52.2786 83.6083 52.2786 83.3065C52.2786 83.0046 52.3389 82.7058 52.4558 82.4275C52.5728 82.1493 52.7442 81.8972 52.9598 81.686C53.1755 81.4748 53.4311 81.3088 53.7118 81.1977C53.9924 81.0866 54.2925 81.0326 54.5942 81.039H54.6942C54.996 81.0326 55.296 81.0866 55.5767 81.1977C55.8573 81.3088 56.113 81.4748 56.3287 81.686C56.5443 81.8972 56.7157 82.1493 56.8326 82.4275C56.9496 82.7058 57.0099 83.0046 57.0099 83.3065C57.0099 83.6083 56.9496 83.9071 56.8326 84.1854C56.7157 84.4636 56.5443 84.7157 56.3287 84.9269C56.113 85.1381 55.8573 85.3041 55.5767 85.4152C55.296 85.5263 54.996 85.5803 54.6942 85.5739ZM44.9472 85.5739H44.8472C44.5455 85.5803 44.2454 85.5263 43.9648 85.4152C43.6841 85.3041 43.4285 85.1381 43.2128 84.9269C42.9972 84.7157 42.8258 84.4636 42.7088 84.1854C42.5919 83.9071 42.5316 83.6083 42.5316 83.3065C42.5316 83.0046 42.5919 82.7058 42.7088 82.4275C42.8258 82.1493 42.9972 81.8972 43.2128 81.686C43.4285 81.4748 43.6841 81.3088 43.9648 81.1977C44.2454 81.0866 44.5455 81.0326 44.8472 81.039H44.9472C45.249 81.0326 45.549 81.0866 45.8297 81.1977C46.1103 81.3088 46.366 81.4748 46.5816 81.686C46.7973 81.8972 46.9687 82.1493 47.0856 82.4275C47.2026 82.7058 47.2629 83.0046 47.2629 83.3065C47.2629 83.6083 47.2026 83.9071 47.0856 84.1854C46.9687 84.4636 46.7973 84.7157 46.5816 84.9269C46.366 85.1381 46.1103 85.3041 45.8297 85.4152C45.549 85.5263 45.249 85.5803 44.9472 85.5739Z" fill="#111111"/>
<path d="M83.8842 85.574C83.4052 85.576 82.9377 85.4268 82.5485 85.1476C82.1592 84.8684 81.8681 84.4734 81.7164 84.019C81.5648 83.5646 81.5605 83.074 81.7041 82.617C81.8477 82.16 82.1319 81.76 82.5162 81.474C82.5861 81.4211 82.6592 81.3726 82.7352 81.329C82.9903 81.1781 83.2727 81.0791 83.5662 81.0377C83.8597 80.9963 84.1585 81.0132 84.4454 81.0876C84.7323 81.1619 85.0017 81.2922 85.2381 81.4709C85.4746 81.6496 85.6734 81.8732 85.8232 82.129C86.0252 82.4761 86.1327 82.87 86.1352 83.2716C86.1376 83.6732 86.0349 84.0684 85.8372 84.418C85.6419 84.7652 85.3585 85.0549 85.0157 85.2578C84.6728 85.4608 84.2826 85.5698 83.8842 85.574Z" fill="#111111"/>
<path d="M79.0382 77.1771C78.6404 77.1778 78.2494 77.0738 77.9047 76.8754C77.5599 76.6771 77.2734 76.3913 77.0742 76.0471L77.0262 75.9641C76.8768 75.7065 76.7796 75.422 76.7402 75.1268C76.7008 74.8317 76.7198 74.5317 76.7964 74.2439C76.8729 73.9561 77.0053 73.6863 77.1861 73.4497C77.367 73.2131 77.5926 73.0144 77.8502 72.8651C78.1078 72.7157 78.3923 72.6185 78.6874 72.5791C78.9825 72.5396 79.2826 72.5587 79.5703 72.6352C79.8581 72.7118 80.128 72.8442 80.3646 73.025C80.6012 73.2058 80.7998 73.4315 80.9492 73.6891L80.9972 73.7721C81.1974 74.1164 81.3033 74.5075 81.3042 74.9059C81.3052 75.3042 81.201 75.6958 81.0024 76.0411C80.8037 76.3864 80.5176 76.6732 80.1727 76.8726C79.8279 77.0721 79.4365 77.1771 79.0382 77.1771ZM74.1642 68.7371C73.7663 68.7377 73.3753 68.6336 73.0305 68.435C72.6857 68.2364 72.3993 67.9505 72.2002 67.6061L72.1512 67.5231C71.8564 67.0031 71.7787 66.3877 71.9351 65.8108C72.0916 65.2339 72.4694 64.7421 72.9866 64.4423C73.5037 64.1425 74.1182 64.0589 74.6966 64.2098C75.275 64.3607 75.7704 64.7338 76.0752 65.2481L76.1232 65.3321C76.3228 65.6766 76.4282 66.0676 76.4288 66.4659C76.4293 66.8641 76.325 67.2554 76.1264 67.6005C75.9277 67.9456 75.6417 68.2324 75.2971 68.4319C74.9525 68.6314 74.5614 68.7366 74.1632 68.7371H74.1642ZM69.2912 60.3001C68.8917 60.3005 68.4993 60.1954 68.1535 59.9954C67.8077 59.7954 67.5209 59.5076 67.3222 59.1611L67.2732 59.0761C66.9849 58.5551 66.913 57.9416 67.0731 57.3681C67.2332 56.7945 67.6125 56.307 68.129 56.0107C68.6454 55.7143 69.2578 55.633 69.8337 55.7843C70.4096 55.9355 70.9029 56.3072 71.2072 56.8191L71.2552 56.9041C71.4537 57.2488 71.5581 57.6397 71.5579 58.0375C71.5576 58.4353 71.4528 58.826 71.2538 59.1705C71.0548 59.515 70.7687 59.801 70.4242 60C70.0797 60.199 69.689 60.3038 69.2912 60.3041V60.3001ZM64.4172 51.8591C64.0177 51.8597 63.6251 51.7547 63.2793 51.5547C62.9335 51.3546 62.6468 51.0667 62.4482 50.7201L62.4002 50.6361C62.2465 50.3775 62.1458 50.091 62.1039 49.7931C62.062 49.4953 62.0798 49.1921 62.1562 48.9011C62.2326 48.6102 62.3661 48.3374 62.5489 48.0986C62.7317 47.8597 62.9603 47.6597 63.2212 47.51C63.482 47.3603 63.7701 47.264 64.0686 47.2267C64.367 47.1894 64.6699 47.2119 64.9596 47.2928C65.2493 47.3736 65.52 47.5113 65.756 47.6978C65.992 47.8843 66.1885 48.1159 66.3342 48.3791L66.3822 48.4631C66.5814 48.8078 66.6863 49.1988 66.6864 49.597C66.6864 49.9951 66.5815 50.3862 66.3823 50.7309C66.183 51.0756 65.8965 51.3618 65.5515 51.5605C65.2066 51.7593 64.8153 51.8636 64.4172 51.8631V51.8591Z" fill="#111111"/>
<path d="M59.5192 59.507C59.2065 59.507 58.8972 59.4416 58.6112 59.315C58.5355 59.2829 58.4617 59.2465 58.3902 59.206C58.1308 59.0621 57.9025 58.8683 57.7184 58.6357C57.5342 58.4031 57.398 58.1364 57.3175 57.8509C57.237 57.5654 57.2138 57.2668 57.2493 56.9723C57.2848 56.6777 57.3782 56.3932 57.5242 56.135C57.7234 55.7832 58.0116 55.49 58.3598 55.2847C58.708 55.0793 59.104 54.9691 59.5082 54.965C60.1105 54.9635 60.6887 55.2014 61.1157 55.6262C61.5426 56.0511 61.7833 56.6282 61.7847 57.2305C61.7862 57.8328 61.5483 58.411 61.1235 58.8379C60.6986 59.2649 60.1215 59.5055 59.5192 59.507Z" fill="#111111"/>
<path d="M54.2832 68.546C53.8857 68.5452 53.4954 68.4399 53.1514 68.2407C52.8075 68.0414 52.5219 67.7552 52.3235 67.4108C52.125 67.0664 52.0206 66.6758 52.0208 66.2783C52.0209 65.8808 52.1255 65.4903 52.3242 65.146L52.3752 65.057C52.5188 64.7891 52.7148 64.5528 52.9515 64.3621C53.1882 64.1714 53.4609 64.0302 53.7532 63.947C54.0456 63.8638 54.3517 63.8402 54.6534 63.8776C54.9551 63.915 55.2461 64.0127 55.5093 64.1648C55.7725 64.317 56.0024 64.5205 56.1854 64.7632C56.3683 65.006 56.5006 65.283 56.5744 65.5779C56.6482 65.8728 56.6619 66.1795 56.6148 66.4798C56.5677 66.7801 56.4607 67.0679 56.3002 67.326L56.2482 67.415C56.0488 67.7595 55.7622 68.0453 55.4172 68.2438C55.0723 68.4424 54.6812 68.5466 54.2832 68.546Z" fill="#111111"/>
<path d="M49.1493 77.521C48.7501 77.5216 48.3577 77.4187 48.0103 77.2222C47.6629 77.0257 47.3724 76.7424 47.1673 76.4C46.9643 76.0595 46.8541 75.6717 46.8478 75.2753C46.8415 74.8789 46.9392 74.4878 47.1313 74.141C47.3661 73.7194 47.7289 73.3834 48.1672 73.1815C48.6055 72.9796 49.0966 72.9224 49.5696 73.018C50.0426 73.1136 50.473 73.3572 50.7985 73.7135C51.1239 74.0697 51.3277 74.5203 51.3803 75C51.3895 75.0843 51.3942 75.1691 51.3943 75.254C51.3968 75.5505 51.3406 75.8447 51.2289 76.1194C51.1173 76.3941 50.9524 76.6441 50.7437 76.8548C50.535 77.0655 50.2867 77.2329 50.013 77.3472C49.7394 77.4615 49.4458 77.5206 49.1493 77.521Z" fill="#111111"/>
<path d="M59.5713 77.521H59.4713C59.1695 77.5273 58.8695 77.4733 58.5888 77.3622C58.3082 77.2511 58.0525 77.0851 57.8368 76.8739C57.6212 76.6628 57.4498 76.4106 57.3329 76.1324C57.2159 75.8541 57.1556 75.5553 57.1556 75.2535C57.1556 74.9516 57.2159 74.6528 57.3329 74.3746C57.4498 74.0963 57.6212 73.8442 57.8368 73.633C58.0525 73.4218 58.3082 73.2558 58.5888 73.1447C58.8695 73.0336 59.1695 72.9796 59.4713 72.986H59.5713C60.1644 72.9984 60.729 73.2428 61.1441 73.6667C61.5592 74.0906 61.7916 74.6602 61.7916 75.2535C61.7916 75.8467 61.5592 76.4164 61.1441 76.8403C60.729 77.2641 60.1644 77.5085 59.5713 77.521Z" fill="#111111"/>
<path d="M69.9352 77.521C69.4578 77.5251 68.9912 77.3788 68.6015 77.1029C68.2119 76.8271 67.9188 76.4356 67.764 75.984C67.6091 75.5324 67.6003 75.0435 67.7387 74.5865C67.8771 74.1296 68.1558 73.7278 68.5352 73.438C68.7905 73.2397 69.0852 73.0984 69.3997 73.0237C69.7141 72.949 70.041 72.9426 70.3581 73.005C70.6752 73.0674 70.9753 73.197 71.2381 73.3852C71.5008 73.5734 71.7201 73.8158 71.8812 74.096C72.0792 74.4432 72.1834 74.8359 72.1834 75.2355C72.1834 75.6351 72.0792 76.0279 71.8812 76.375C71.6851 76.7192 71.4023 77.0061 71.0609 77.2072C70.7195 77.4082 70.3314 77.5164 69.9352 77.521Z" fill="#111111"/>
<path d="M64.7552 68.545C64.3573 68.5457 63.9663 68.4415 63.6215 68.243C63.2767 68.0444 62.9903 67.7585 62.7912 67.414L62.7392 67.325C62.59 67.0674 62.4929 66.7829 62.4537 66.4877C62.4144 66.1925 62.4336 65.8925 62.5103 65.6048C62.5869 65.3171 62.7195 65.0473 62.9004 64.8108C63.0813 64.5743 63.3071 64.3758 63.5647 64.2265C63.8224 64.0773 64.1069 63.9803 64.4021 63.941C64.6972 63.9017 64.9972 63.9209 65.2849 63.9976C65.5727 64.0742 65.8425 64.2068 66.079 64.3877C66.3155 64.5687 66.514 64.7944 66.6632 65.052L66.7152 65.141C66.9139 65.4854 67.0186 65.876 67.0187 66.2736C67.0187 66.6712 66.9143 67.0618 66.7157 67.4062C66.5171 67.7507 66.2315 68.0369 65.8874 68.2361C65.5433 68.4352 65.1528 68.5404 64.7552 68.541V68.545Z" fill="#111111"/>
</g>
<defs>
<clipPath id="clip0_33_132">
<rect width="100" height="100" fill="white" transform="translate(0.000244141)"/>
</clipPath>
</defs>
</svg>
