<svg width="100" height="100" viewBox="0 0 100 100" fill="none" xmlns="http://www.w3.org/2000/svg">
<g clip-path="url(#clip0_33_223)">
<path d="M49.994 2.00598C40.5022 2.00836 31.2242 4.82517 23.3332 10.1003C15.4422 15.3754 9.29259 22.8718 5.66188 31.6418C2.03117 40.4118 1.08244 50.0614 2.93565 59.3705C4.78887 68.6796 9.3608 77.2302 16.0734 83.9411C22.7859 90.652 31.3377 95.2218 40.6472 97.0727C49.9568 98.9236 59.6062 97.9724 68.3753 94.3395C77.1443 90.7066 84.6393 84.5551 89.9124 76.6628C95.1855 68.7705 98 59.4918 98 50C98.0003 43.6962 96.7586 37.4542 94.3461 31.6304C91.9335 25.8066 88.3972 20.5151 83.9392 16.0583C79.4812 11.6014 74.1889 8.06645 68.3645 5.65533C62.5401 3.2442 56.2977 2.00414 49.994 2.00598ZM49.994 71.683C45.7055 71.683 41.5133 70.4113 37.9476 68.0287C34.3818 65.6462 31.6027 62.2598 29.9615 58.2977C28.3204 54.3357 27.891 49.9759 28.7276 45.7698C29.5643 41.5638 31.6294 37.7002 34.6618 34.6678C37.6942 31.6354 41.5578 29.5703 45.7639 28.7336C49.9699 27.897 54.3297 28.3264 58.2917 29.9675C62.2538 31.6086 65.6402 34.3878 68.0228 37.9536C70.4053 41.5193 71.677 45.7115 71.677 50C71.6773 52.8475 71.1166 55.6672 70.027 58.298C68.9374 60.9288 67.3403 63.3193 65.3268 65.3328C63.3133 67.3463 60.9229 68.9434 58.292 70.033C55.6612 71.1226 52.8415 71.6832 49.994 71.683Z" fill="#FF4900" stroke="#111111" stroke-width="6" stroke-linecap="round" stroke-linejoin="round"/>
<path d="M81.887 75.007L75.526 71.647" stroke="#111111" stroke-width="4" stroke-linecap="round" stroke-linejoin="round"/>
<path d="M55.537 88.938L58.934 83.729" stroke="#111111" stroke-width="4" stroke-linecap="round" stroke-linejoin="round"/>
<path d="M48.212 82.9881L44.869 76.701" stroke="#111111" stroke-width="4" stroke-linecap="round" stroke-linejoin="round"/>
<path d="M40.155 88.293L35.534 92.471" stroke="#111111" stroke-width="4" stroke-linecap="round" stroke-linejoin="round"/>
<path d="M74.156 82.7371L68.209 88.1141" stroke="#111111" stroke-width="4" stroke-linecap="round" stroke-linejoin="round"/>
<path d="M36.896 79.925L30.442 82.089" stroke="#111111" stroke-width="4" stroke-linecap="round" stroke-linejoin="round"/>
<path d="M11.721 61.16L19.898 62.305" stroke="#111111" stroke-width="4" stroke-linecap="round" stroke-linejoin="round"/>
<path d="M9.349 34.488L14.092 41.03" stroke="#111111" stroke-width="4" stroke-linecap="round" stroke-linejoin="round"/>
<path d="M23.763 42.516L20.324 48.702" stroke="#111111" stroke-width="4" stroke-linecap="round" stroke-linejoin="round"/>
<path d="M12.621 50.051L6.73199 53.176" stroke="#111111" stroke-width="4" stroke-linecap="round" stroke-linejoin="round"/>
<path d="M28.296 66.337L25.08 72.407" stroke="#111111" stroke-width="4" stroke-linecap="round" stroke-linejoin="round"/>
<path d="M68.49 78.199L66.632 71.683" stroke="#111111" stroke-width="4" stroke-linecap="round" stroke-linejoin="round"/>
<path d="M78.324 62.254L77.087 54.782" stroke="#111111" stroke-width="4" stroke-linecap="round" stroke-linejoin="round"/>
<path d="M92.102 47.869L84.777 48.975" stroke="#111111" stroke-width="4" stroke-linecap="round" stroke-linejoin="round"/>
<path d="M88.969 64.241L85.822 58.707" stroke="#111111" stroke-width="4" stroke-linecap="round" stroke-linejoin="round"/>
<path d="M16.342 74.5699V84.3229" stroke="#111111" stroke-width="4" stroke-linecap="round" stroke-linejoin="round"/>
<path d="M18.113 24.993L24.474 28.353" stroke="#111111" stroke-width="4" stroke-linecap="round" stroke-linejoin="round"/>
<path d="M44.463 11.062L41.066 16.271" stroke="#111111" stroke-width="4" stroke-linecap="round" stroke-linejoin="round"/>
<path d="M51.788 17.012L55.131 23.299" stroke="#111111" stroke-width="4" stroke-linecap="round" stroke-linejoin="round"/>
<path d="M59.845 11.7071L64.466 7.52905" stroke="#111111" stroke-width="4" stroke-linecap="round" stroke-linejoin="round"/>
<path d="M25.844 17.263L31.791 11.886" stroke="#111111" stroke-width="4" stroke-linecap="round" stroke-linejoin="round"/>
<path d="M63.104 20.075L69.558 17.911" stroke="#111111" stroke-width="4" stroke-linecap="round" stroke-linejoin="round"/>
<path d="M88.279 38.8399L80.102 37.6949" stroke="#111111" stroke-width="4" stroke-linecap="round" stroke-linejoin="round"/>
<path d="M71.704 33.663L74.92 27.593" stroke="#111111" stroke-width="4" stroke-linecap="round" stroke-linejoin="round"/>
<path d="M31.51 21.801L33.368 28.317" stroke="#111111" stroke-width="4" stroke-linecap="round" stroke-linejoin="round"/>
<path d="M83.658 25.43V15.677" stroke="#111111" stroke-width="4" stroke-linecap="round" stroke-linejoin="round"/>
</g>
<defs>
<clipPath id="clip0_33_223">
<rect width="100" height="100" fill="white"/>
</clipPath>
</defs>
</svg>
